# Bone_003
# Exported by MapExporter (Unity -> DirectX12)
# Vertices: 163  Triangles: 268

v -0.781913 7.175052 -0.078073
v -0.799672 7.153409 0.000001
v -0.578562 6.724424 0.000001
v -0.548279 6.752782 -0.119055
v -0.735498 7.231662 -0.126124
v -0.391441 6.166947 0.000000
v -0.468666 6.827339 -0.192394
v -0.678393 7.301469 -0.125912
v -0.342593 6.202777 -0.177311
v -0.215661 5.580973 0.000000
v -0.370542 6.919226 -0.192459
v -0.632361 7.357848 -0.077739
v -0.214676 6.296610 -0.286902
v -0.150782 5.616426 -0.220769
v -0.081770 4.937587 0.000000
v -0.290938 6.993777 -0.119262
v -0.614801 7.379378 0.000001
v -0.056605 6.412555 -0.287059
v 0.019074 5.709246 -0.357212
v -0.000460 4.968153 -0.263527
v 0.002323 4.227456 0.000000
v -0.260282 7.022496 0.000000
v -0.632361 7.357848 0.077740
v 0.071402 6.506475 -0.177633
v 0.229028 5.823977 -0.357212
v 0.212411 5.048173 -0.426396
v 0.099952 4.249072 -0.306285
v 0.029308 3.445499 0.000000
v -0.290938 6.993777 0.119263
v -0.678393 7.301469 0.125914
v 0.120408 6.542459 0.000000
v 0.398885 5.916797 -0.220769
v 0.475534 5.147085 -0.426396
v 0.355549 4.305662 -0.495579
v 0.142636 3.453854 -0.349042
v -0.028004 2.609692 0.000000
v -0.370542 6.919226 0.192460
v -0.735498 7.231662 0.126126
v 0.071402 6.506475 0.177633
v 0.463764 5.952251 0.000000
v 0.688406 5.227106 -0.263527
v 0.671484 4.375612 -0.495579
v 0.439333 3.475729 -0.564763
v 0.101762 2.599255 -0.397908
v -0.168738 1.858274 0.000000
v -0.024741 1.823726 -0.446774
v -0.376412 1.190851 0.000000
v 0.441492 2.571931 -0.643829
v 0.806071 3.502767 -0.564763
v 0.927081 4.432202 -0.306285
v 0.769716 5.257671 0.000000
v -0.221017 1.128522 -0.495640
v -0.635285 0.612908 0.000000
v 0.352249 1.733277 -0.722896
v 0.861422 2.538157 -0.643830
v 1.102768 3.524642 -0.349043
v -0.471812 0.519654 -0.544506
v -0.928987 0.131391 0.000001
v 0.185813 0.965341 -0.801963
v 0.818234 1.621477 -0.722896
v -0.761363 0.004316 -0.593371
v -1.239624 -0.245974 0.000001
v -1.072673 -0.409666 -0.642237
v -0.043834 0.275512 -0.881029
v -0.322517 -0.328369 -0.960096
v -0.635590 -0.838217 -1.039162
v 0.688683 0.763639 -0.801963
v 1.201153 2.510833 -0.397909
v 0.485177 -0.026264 -0.881030
v 0.219927 -0.739589 -0.960096
v -0.095325 -1.367936 -1.039163
v 1.195224 1.531028 -0.446775
v 1.095514 0.600459 -0.495641
v 0.913155 -0.270406 -0.544507
v 0.658774 -1.072274 -0.593373
v 0.341759 -1.796488 -0.642238
v 0.826399 -1.199348 -0.000001
v 0.508711 -1.960180 -0.000001
v 1.076629 -0.363659 -0.000001
v 1.250909 0.538129 -0.000001
v 1.339221 1.496480 -0.000001
v 1.330919 2.500396 -0.000001
v 0.658775 -1.072274 0.593371
v 0.341761 -1.796488 0.642237
v 0.913156 -0.270406 0.544505
v 1.095515 0.600459 0.495639
v 1.195224 1.531028 0.446773
v 0.219929 -0.739589 0.960096
v -0.095323 -1.367936 1.039162
v 0.485178 -0.026264 0.881029
v 0.688685 0.763639 0.801962
v -0.322515 -0.328368 0.960096
v -0.635588 -0.838217 1.039163
v -0.043832 0.275512 0.881029
v -0.761362 0.004317 0.593372
v -1.072672 -0.409666 0.642239
v -0.928987 0.131391 0.000001
v -1.239624 -0.245974 0.000001
v -0.635285 0.612908 0.000000
v -0.471811 0.519654 0.544506
v -0.376412 1.190851 0.000000
v -0.221017 1.128522 0.495640
v -0.168738 1.858274 0.000000
v 0.185814 0.965341 0.801962
v -0.024740 1.823726 0.446774
v -0.028004 2.609692 0.000000
v 0.352250 1.733278 0.722895
v 0.101762 2.599255 0.397908
v 0.029308 3.445499 0.000000
v 0.818235 1.621477 0.722895
v 0.142637 3.453854 0.349042
v 0.002323 4.227456 0.000000
v 0.441493 2.571931 0.643829
v 0.861423 2.538157 0.643828
v 0.099952 4.249072 0.306285
v -0.081770 4.937587 0.000000
v 0.439334 3.475729 0.564762
v 1.201154 2.510833 0.397907
v -0.000460 4.968153 0.263527
v -0.215661 5.580973 0.000000
v 0.355550 4.305662 0.495579
v 0.806072 3.502767 0.564762
v 1.102769 3.524642 0.349041
v -0.150782 5.616426 0.220769
v -0.391441 6.166947 0.000000
v 0.212412 5.048173 0.426395
v 0.671485 4.375612 0.495578
v 1.216096 3.532997 -0.000001
v -0.342593 6.202777 0.177312
v -0.578562 6.724424 0.000001
v 0.019075 5.709246 0.357212
v 0.475535 5.147085 0.426395
v 0.927082 4.432202 0.306284
v 1.024711 4.453818 -0.000001
v 0.688406 5.227106 0.263526
v -0.548278 6.752782 0.119057
v -0.799672 7.153409 0.000001
v -0.781913 7.175052 0.078074
v 0.229029 5.823977 0.357212
v 0.398885 5.916797 0.220769
v -0.214676 6.296610 0.286903
v -0.468666 6.827339 0.192395
v -0.056604 6.412555 0.287059
v -0.695453 7.361893 -0.039132
v -0.632361 7.357848 -0.077739
v -0.614801 7.379378 0.000001
v -0.686611 7.372759 0.000001
v -0.632361 7.357848 0.077740
v -0.695453 7.361893 0.039134
v -0.678393 7.301469 0.125914
v -0.721307 7.330122 0.066143
v -0.735498 7.231662 0.126126
v -0.721308 7.330123 -0.066141
v -0.678393 7.301469 -0.125912
v -0.755054 7.288653 0.066143
v -0.781913 7.175052 0.078074
v -0.755054 7.288653 -0.066141
v -0.735498 7.231662 -0.126124
v -0.780908 7.256884 0.039134
v -0.799672 7.153409 0.000001
v -0.780908 7.256884 -0.039132
v -0.781913 7.175052 -0.078073
v -0.789751 7.246017 0.000001

vn -0.847676 -0.114734 -0.517959
vn -0.975392 -0.220477 0.000000
vn -0.922938 -0.384950 0.000001
vn -0.754830 -0.284889 -0.590822
vn -0.532309 0.149018 -0.833331
vn -0.953079 -0.302722 0.000001
vn -0.339174 -0.032384 -0.940166
vn -0.142092 0.482307 -0.864402
vn -0.780024 -0.221465 -0.585249
vn -0.969632 -0.244567 0.000001
vn 0.156474 0.278820 -0.947510
vn 0.212659 0.793108 -0.570751
vn -0.340586 -0.012232 -0.940134
vn -0.788484 -0.178467 -0.588594
vn -0.987104 -0.160078 0.000001
vn 0.575663 0.550944 -0.604213
vn 0.366301 0.930496 0.000000
vn 0.195371 0.248857 -0.948631
vn -0.324372 -0.007234 -0.945902
vn -0.800890 -0.111496 -0.588340
vn -0.997117 -0.075877 0.000001
vn 0.747031 0.664789 -0.000001
vn 0.212661 0.793107 0.570751
vn 0.645054 0.473236 -0.599961
vn 0.242219 0.205553 -0.948197
vn -0.319235 0.015321 -0.947552
vn -0.806943 -0.044612 -0.588942
vn -0.999857 0.016897 0.000001
vn 0.575663 0.550944 0.604212
vn -0.142093 0.482307 0.864401
vn 0.825309 0.564682 -0.000001
vn 0.708213 0.383893 -0.592504
vn 0.270809 0.173006 -0.946959
vn -0.312844 0.037228 -0.949075
vn -0.806096 0.030292 -0.591010
vn -0.992072 0.125669 0.000001
vn 0.156475 0.278820 0.947510
vn -0.532308 0.149016 0.833332
vn 0.645055 0.473236 0.599960
vn 0.890682 0.454627 -0.000001
vn 0.750338 0.303155 -0.587444
vn 0.292728 0.138758 -0.946074
vn -0.303641 0.065326 -0.950544
vn -0.795313 0.118847 -0.594435
vn -0.970936 0.239341 0.000001
vn -0.772594 0.210453 -0.599006
vn -0.936320 0.351149 0.000001
vn -0.289416 0.101633 -0.951793
vn 0.309516 0.108613 -0.944671
vn 0.780852 0.221609 -0.584089
vn 0.935298 0.353862 -0.000001
vn -0.737703 0.299213 -0.605199
vn -0.886614 0.462511 0.000001
vn -0.269772 0.137884 -0.953001
vn 0.322691 0.081232 -0.943012
vn 0.800782 0.143670 -0.581470
vn -0.689825 0.385873 -0.612572
vn -0.817758 0.575562 0.000001
vn -0.244277 0.171456 -0.954427
vn 0.331835 0.052024 -0.941902
vn -0.626114 0.471673 -0.620891
vn -0.775358 0.631522 0.000001
vn -0.576724 0.504772 -0.642335
vn -0.212975 0.202539 -0.955835
vn -0.174797 0.231433 -0.957019
vn -0.125389 0.224873 -0.966287
vn 0.337593 0.022904 -0.941014
vn 0.811949 0.065048 -0.580092
vn 0.340327 -0.005969 -0.940288
vn 0.340482 -0.034894 -0.939603
vn 0.370879 -0.069630 -0.926067
vn 0.813954 -0.016439 -0.580696
vn 0.807023 -0.095919 -0.582678
vn 0.791621 -0.173651 -0.585817
vn 0.767516 -0.250814 -0.589925
vn 0.768085 -0.296513 -0.567561
vn 0.941137 -0.338025 -0.000001
vn 0.923534 -0.383517 -0.000001
vn 0.970777 -0.239984 -0.000001
vn 0.989846 -0.142142 -0.000001
vn 0.999086 -0.042747 -0.000001
vn 0.998266 0.058872 -0.000001
vn 0.767517 -0.250814 0.589924
vn 0.768086 -0.296513 0.567559
vn 0.791622 -0.173651 0.585815
vn 0.807024 -0.095919 0.582677
vn 0.813956 -0.016439 0.580695
vn 0.340484 -0.034894 0.939603
vn 0.370881 -0.069630 0.926067
vn 0.340329 -0.005969 0.940288
vn 0.337594 0.022904 0.941013
vn -0.174795 0.231433 0.957019
vn -0.125387 0.224873 0.966287
vn -0.212973 0.202539 0.955835
vn -0.626113 0.471672 0.620892
vn -0.576723 0.504772 0.642336
vn -0.817758 0.575562 0.000001
vn -0.775358 0.631522 0.000001
vn -0.886614 0.462511 0.000001
vn -0.689824 0.385873 0.612573
vn -0.936320 0.351149 0.000001
vn -0.737703 0.299213 0.605200
vn -0.970936 0.239341 0.000001
vn -0.244276 0.171456 0.954428
vn -0.772593 0.210453 0.599007
vn -0.992072 0.125669 0.000001
vn -0.269770 0.137884 0.953002
vn -0.795312 0.118847 0.594436
vn -0.999857 0.016897 0.000001
vn 0.331836 0.052024 0.941901
vn -0.806095 0.030292 0.591011
vn -0.997117 -0.075877 0.000001
vn -0.289414 0.101633 0.951793
vn 0.322693 0.081232 0.943012
vn -0.806942 -0.044612 0.588943
vn -0.987104 -0.160078 0.000001
vn -0.303640 0.065326 0.950545
vn 0.811950 0.065048 0.580091
vn -0.800889 -0.111496 0.588342
vn -0.969632 -0.244567 0.000001
vn -0.312843 0.037228 0.949075
vn 0.309517 0.108613 0.944670
vn 0.800783 0.143670 0.581469
vn -0.788483 -0.178468 0.588595
vn -0.953079 -0.302722 0.000001
vn -0.319234 0.015321 0.947552
vn 0.292729 0.138758 0.946074
vn 0.987586 0.157078 -0.000001
vn -0.780023 -0.221466 0.585250
vn -0.922938 -0.384950 0.000001
vn -0.324370 -0.007235 0.945903
vn 0.270810 0.173006 0.946959
vn 0.780853 0.221609 0.584088
vn 0.967334 0.253506 -0.000001
vn 0.750339 0.303155 0.587443
vn -0.754829 -0.284889 0.590823
vn -0.975392 -0.220477 0.000000
vn -0.847676 -0.114734 0.517959
vn 0.242220 0.205553 0.948197
vn 0.708214 0.383893 0.592503
vn -0.340585 -0.012232 0.940134
vn -0.339173 -0.032384 0.940167
vn 0.195372 0.248857 0.948631
vn -0.472828 0.841207 -0.262306
vn 0.212659 0.793108 -0.570751
vn 0.366301 0.930496 0.000000
vn -0.404055 0.914735 0.000001
vn 0.212661 0.793107 0.570751
vn -0.472838 0.841201 0.262309
vn -0.142093 0.482307 0.864401
vn -0.624028 0.679110 0.386521
vn -0.532308 0.149016 0.833332
vn -0.624023 0.679115 -0.386521
vn -0.142092 0.482307 -0.864402
vn -0.777694 0.512859 0.363550
vn -0.847676 -0.114734 0.517959
vn -0.777692 0.512863 -0.363547
vn -0.532309 0.149018 -0.833331
vn -0.896043 0.383249 0.224115
vn -0.975392 -0.220477 0.000000
vn -0.896039 0.383259 -0.224115
vn -0.847676 -0.114734 -0.517959
vn -0.943820 0.330460 0.000001

vt 0.205695 -0.640673
vt 0.219700 -0.640807
vt 0.231561 -0.559251
vt 0.210076 -0.558212
vt 0.191205 -0.643749
vt 0.249245 -0.459562
vt 0.188131 -0.561283
vt 0.176742 -0.648694
vt 0.217520 -0.458750
vt 0.257719 -0.354419
vt 0.166668 -0.566780
vt 0.162870 -0.653909
vt 0.186506 -0.463397
vt 0.218163 -0.355165
vt 0.261905 -0.241134
vt 0.146408 -0.572958
vt 0.149533 -0.658222
vt 0.156729 -0.471221
vt 0.179606 -0.361206
vt 0.214801 -0.242788
vt 0.263228 -0.118478
vt 0.127126 -0.578720
vt 0.135907 -0.661509
vt 0.128609 -0.479926
vt 0.142749 -0.370441
vt 0.169126 -0.249333
vt 0.208736 -0.120446
vt 0.263271 0.014760
vt 0.107674 -0.583875
vt 0.121352 -0.664306
vt 0.101584 -0.488093
vt 0.107816 -0.380686
vt 0.125450 -0.259078
vt 0.155825 -0.126609
vt 0.200731 0.013772
vt 0.266936 0.158167
vt 0.087169 -0.589186
vt 0.106436 -0.667640
vt 0.074272 -0.495240
vt 0.074105 -0.390594
vt 0.083797 -0.270228
vt 0.105071 -0.135959
vt 0.140004 0.009180
vt 0.195007 0.159811
vt 0.274697 0.290414
vt 0.192928 0.296238
vt 0.286803 0.412224
vt 0.124203 0.158272
vt 0.081573 0.001306
vt 0.056423 -0.147367
vt 0.043409 -0.281681
vt 0.195234 0.423775
vt 0.303338 0.522662
vt 0.111503 0.299682
vt 0.055856 0.153030
vt 0.025366 -0.009562
vt 0.202545 0.541676
vt 0.323891 0.620130
vt 0.102615 0.433783
vt 0.032524 0.298777
vt 0.215191 0.648018
vt 0.347123 0.702919
vt 0.232388 0.739505
vt 0.098478 0.560234
vt 0.100441 0.677922
vt 0.110393 0.784990
vt 0.012067 0.438513
vt -0.009493 0.143422
vt -0.004642 0.572483
vt -0.016029 0.701109
vt -0.019264 0.825228
vt -0.042568 0.291488
vt -0.073629 0.434343
vt -0.102271 0.572646
vt -0.127792 0.707872
vt -0.148843 0.842944
vt -0.231176 0.692585
vt -0.269293 0.827827
vt -0.192993 0.557106
vt -0.154039 0.418892
vt -0.113876 0.276387
vt -0.072303 0.128881
vt -0.327328 0.651636
vt -0.379910 0.777821
vt -0.278478 0.522983
vt -0.230683 0.390079
vt -0.182575 0.252028
vt -0.419110 0.587506
vt -0.481166 0.695046
vt -0.361653 0.471864
vt -0.305944 0.348886
vt -0.506331 0.506911
vt -0.570728 0.593024
vt -0.443201 0.407569
vt -0.588576 0.421485
vt -0.651016 0.490528
vt -0.666716 0.340940
vt -0.729761 0.399412
vt -0.598290 0.268549
vt -0.522260 0.337398
vt -0.526518 0.183000
vt -0.454457 0.240667
vt -0.452585 0.085439
vt -0.380696 0.297567
vt -0.385892 0.133104
vt -0.376907 -0.023292
vt -0.318249 0.178561
vt -0.316423 0.015671
vt -0.298895 -0.143680
vt -0.250421 0.219032
vt -0.245043 -0.111865
vt -0.229282 -0.257286
vt -0.255236 0.051332
vt -0.194210 0.082551
vt -0.181782 -0.230509
vt -0.164103 -0.361199
vt -0.190856 -0.084068
vt -0.133462 0.108483
vt -0.123068 -0.338012
vt -0.101376 -0.455626
vt -0.133440 -0.208135
vt -0.136913 -0.060271
vt -0.083304 -0.040189
vt -0.067252 -0.435606
vt -0.039244 -0.540869
vt -0.080697 -0.319742
vt -0.085274 -0.189605
vt -0.029398 -0.023351
vt -0.012612 -0.523609
vt 0.027894 -0.616652
vt -0.031215 -0.420623
vt -0.038360 -0.305245
vt -0.037827 -0.173931
vt 0.009160 -0.160159
vt 0.002985 -0.293004
vt 0.045676 -0.604546
vt 0.080599 -0.680011
vt 0.092473 -0.672584
vt 0.005040 -0.409253
vt 0.040182 -0.399748
vt 0.016264 -0.511378
vt 0.065994 -0.595706
vt 0.045745 -0.502500
vt 0.499947 1.159636
vt 0.494874 1.148222
vt 0.510503 1.148465
vt 0.506266 1.159734
vt 0.522441 1.158637
vt 0.511087 1.163770
vt 0.525745 1.174484
vt 0.512804 1.171201
vt 0.519461 1.189733
vt 0.493667 1.163996
vt 0.481871 1.157793
vt 0.509896 1.179109
vt 0.506309 1.198533
vt 0.490536 1.171771
vt 0.476368 1.173294
vt 0.503660 1.183714
vt 0.491597 1.197995
vt 0.492103 1.179322
vt 0.480283 1.188595
vt 0.497074 1.183636

f 1/1/1 3/3/3 2/2/2
f 1/1/1 4/4/4 3/3/3
f 5/5/5 4/4/4 1/1/1
f 4/4/4 6/6/6 3/3/3
f 5/5/5 7/7/7 4/4/4
f 8/8/8 7/7/7 5/5/5
f 4/4/4 9/9/9 6/6/6
f 7/7/7 9/9/9 4/4/4
f 9/9/9 10/10/10 6/6/6
f 8/8/8 11/11/11 7/7/7
f 12/12/12 11/11/11 8/8/8
f 7/7/7 13/13/13 9/9/9
f 11/11/11 13/13/13 7/7/7
f 9/9/9 14/14/14 10/10/10
f 13/13/13 14/14/14 9/9/9
f 14/14/14 15/15/15 10/10/10
f 12/12/12 16/16/16 11/11/11
f 17/17/17 16/16/16 12/12/12
f 11/11/11 18/18/18 13/13/13
f 16/16/16 18/18/18 11/11/11
f 13/13/13 19/19/19 14/14/14
f 18/18/18 19/19/19 13/13/13
f 14/14/14 20/20/20 15/15/15
f 19/19/19 20/20/20 14/14/14
f 20/20/20 21/21/21 15/15/15
f 17/17/17 22/22/22 16/16/16
f 23/23/23 22/22/22 17/17/17
f 16/16/16 24/24/24 18/18/18
f 22/22/22 24/24/24 16/16/16
f 18/18/18 25/25/25 19/19/19
f 24/24/24 25/25/25 18/18/18
f 19/19/19 26/26/26 20/20/20
f 25/25/25 26/26/26 19/19/19
f 20/20/20 27/27/27 21/21/21
f 26/26/26 27/27/27 20/20/20
f 27/27/27 28/28/28 21/21/21
f 23/23/23 29/29/29 22/22/22
f 30/30/30 29/29/29 23/23/23
f 22/22/22 31/31/31 24/24/24
f 29/29/29 31/31/31 22/22/22
f 24/24/24 32/32/32 25/25/25
f 31/31/31 32/32/32 24/24/24
f 25/25/25 33/33/33 26/26/26
f 32/32/32 33/33/33 25/25/25
f 26/26/26 34/34/34 27/27/27
f 33/33/33 34/34/34 26/26/26
f 27/27/27 35/35/35 28/28/28
f 34/34/34 35/35/35 27/27/27
f 35/35/35 36/36/36 28/28/28
f 30/30/30 37/37/37 29/29/29
f 38/38/38 37/37/37 30/30/30
f 29/29/29 39/39/39 31/31/31
f 37/37/37 39/39/39 29/29/29
f 31/31/31 40/40/40 32/32/32
f 39/39/39 40/40/40 31/31/31
f 32/32/32 41/41/41 33/33/33
f 40/40/40 41/41/41 32/32/32
f 33/33/33 42/42/42 34/34/34
f 41/41/41 42/42/42 33/33/33
f 34/34/34 43/43/43 35/35/35
f 42/42/42 43/43/43 34/34/34
f 35/35/35 44/44/44 36/36/36
f 43/43/43 44/44/44 35/35/35
f 44/44/44 45/45/45 36/36/36
f 44/44/44 46/46/46 45/45/45
f 46/46/46 47/47/47 45/45/45
f 43/43/43 48/48/48 44/44/44
f 48/48/48 46/46/46 44/44/44
f 42/42/42 49/49/49 43/43/43
f 49/49/49 48/48/48 43/43/43
f 41/41/41 50/50/50 42/42/42
f 50/50/50 49/49/49 42/42/42
f 40/40/40 51/51/51 41/41/41
f 51/51/51 50/50/50 41/41/41
f 46/46/46 52/52/52 47/47/47
f 52/52/52 53/53/53 47/47/47
f 48/48/48 54/54/54 46/46/46
f 54/54/54 52/52/52 46/46/46
f 49/49/49 55/55/55 48/48/48
f 55/55/55 54/54/54 48/48/48
f 50/50/50 56/56/56 49/49/49
f 56/56/56 55/55/55 49/49/49
f 52/52/52 57/57/57 53/53/53
f 57/57/57 58/58/58 53/53/53
f 54/54/54 59/59/59 52/52/52
f 59/59/59 57/57/57 52/52/52
f 55/55/55 60/60/60 54/54/54
f 60/60/60 59/59/59 54/54/54
f 57/57/57 61/61/61 58/58/58
f 61/61/61 62/62/62 58/58/58
f 61/61/61 63/63/63 62/62/62
f 59/59/59 64/64/64 57/57/57
f 64/64/64 61/61/61 57/57/57
f 65/65/65 63/63/63 61/61/61
f 64/64/64 65/65/65 61/61/61
f 65/65/65 66/66/66 63/63/63
f 67/67/67 64/64/64 59/59/59
f 60/60/60 67/67/67 59/59/59
f 68/68/68 60/60/60 55/55/55
f 56/56/56 68/68/68 55/55/55
f 69/69/69 65/65/65 64/64/64
f 67/67/67 69/69/69 64/64/64
f 70/70/70 66/66/66 65/65/65
f 69/69/69 70/70/70 65/65/65
f 70/70/70 71/71/71 66/66/66
f 72/72/72 67/67/67 60/60/60
f 68/68/68 72/72/72 60/60/60
f 73/73/73 69/69/69 67/67/67
f 72/72/72 73/73/73 67/67/67
f 74/74/74 70/70/70 69/69/69
f 73/73/73 74/74/74 69/69/69
f 75/75/75 71/71/71 70/70/70
f 74/74/74 75/75/75 70/70/70
f 75/75/75 76/76/76 71/71/71
f 77/77/77 76/76/76 75/75/75
f 77/77/77 78/78/78 76/76/76
f 79/79/79 75/75/75 74/74/74
f 79/79/79 77/77/77 75/75/75
f 80/80/80 74/74/74 73/73/73
f 80/80/80 79/79/79 74/74/74
f 81/81/81 73/73/73 72/72/72
f 81/81/81 80/80/80 73/73/73
f 82/82/82 72/72/72 68/68/68
f 82/82/82 81/81/81 72/72/72
f 83/83/83 78/78/78 77/77/77
f 83/83/83 84/84/84 78/78/78
f 85/85/85 77/77/77 79/79/79
f 85/85/85 83/83/83 77/77/77
f 86/86/86 79/79/79 80/80/80
f 86/86/86 85/85/85 79/79/79
f 87/87/87 80/80/80 81/81/81
f 87/87/87 86/86/86 80/80/80
f 88/88/88 84/84/84 83/83/83
f 88/88/88 89/89/89 84/84/84
f 90/90/90 83/83/83 85/85/85
f 90/90/90 88/88/88 83/83/83
f 91/91/91 85/85/85 86/86/86
f 91/91/91 90/90/90 85/85/85
f 92/92/92 89/89/89 88/88/88
f 92/92/92 93/93/93 89/89/89
f 94/94/94 88/88/88 90/90/90
f 94/94/94 92/92/92 88/88/88
f 95/95/95 93/93/93 92/92/92
f 95/95/95 96/96/96 93/93/93
f 97/97/97 96/96/96 95/95/95
f 97/97/97 98/98/98 96/96/96
f 99/99/99 97/97/97 95/95/95
f 100/100/100 95/95/95 92/92/92
f 99/99/99 95/95/95 100/100/100
f 100/100/100 92/92/92 94/94/94
f 101/101/101 99/99/99 100/100/100
f 101/101/101 100/100/100 102/102/102
f 102/102/102 100/100/100 94/94/94
f 103/103/103 101/101/101 102/102/102
f 104/104/104 94/94/94 90/90/90
f 102/102/102 94/94/94 104/104/104
f 104/104/104 90/90/90 91/91/91
f 103/103/103 102/102/102 105/105/105
f 105/105/105 102/102/102 104/104/104
f 106/106/106 103/103/103 105/105/105
f 107/107/107 104/104/104 91/91/91
f 105/105/105 104/104/104 107/107/107
f 106/106/106 105/105/105 108/108/108
f 108/108/108 105/105/105 107/107/107
f 109/109/109 106/106/106 108/108/108
f 107/107/107 91/91/91 110/110/110
f 110/110/110 91/91/91 86/86/86
f 110/110/110 86/86/86 87/87/87
f 109/109/109 108/108/108 111/111/111
f 112/112/112 109/109/109 111/111/111
f 108/108/108 107/107/107 113/113/113
f 113/113/113 107/107/107 110/110/110
f 111/111/111 108/108/108 113/113/113
f 114/114/114 110/110/110 87/87/87
f 113/113/113 110/110/110 114/114/114
f 112/112/112 111/111/111 115/115/115
f 116/116/116 112/112/112 115/115/115
f 111/111/111 113/113/113 117/117/117
f 117/117/117 113/113/113 114/114/114
f 115/115/115 111/111/111 117/117/117
f 114/114/114 87/87/87 118/118/118
f 118/118/118 87/87/87 81/81/81
f 118/118/118 81/81/81 82/82/82
f 116/116/116 115/115/115 119/119/119
f 120/120/120 116/116/116 119/119/119
f 115/115/115 117/117/117 121/121/121
f 119/119/119 115/115/115 121/121/121
f 117/117/117 114/114/114 122/122/122
f 122/122/122 114/114/114 118/118/118
f 121/121/121 117/117/117 122/122/122
f 123/123/123 118/118/118 82/82/82
f 122/122/122 118/118/118 123/123/123
f 120/120/120 119/119/119 124/124/124
f 125/125/125 120/120/120 124/124/124
f 119/119/119 121/121/121 126/126/126
f 124/124/124 119/119/119 126/126/126
f 121/121/121 122/122/122 127/127/127
f 127/127/127 122/122/122 123/123/123
f 126/126/126 121/121/121 127/127/127
f 123/123/123 82/82/82 128/128/128
f 128/128/128 82/82/82 68/68/68
f 128/128/128 68/68/68 56/56/56
f 125/125/125 124/124/124 129/129/129
f 130/130/130 125/125/125 129/129/129
f 124/124/124 126/126/126 131/131/131
f 129/129/129 124/124/124 131/131/131
f 126/126/126 127/127/127 132/132/132
f 131/131/131 126/126/126 132/132/132
f 127/127/127 123/123/123 133/133/133
f 133/133/133 123/123/123 128/128/128
f 132/132/132 127/127/127 133/133/133
f 134/134/134 128/128/128 56/56/56
f 133/133/133 128/128/128 134/134/134
f 134/134/134 56/56/56 50/50/50
f 51/51/51 134/134/134 50/50/50
f 135/135/135 133/133/133 134/134/134
f 132/132/132 133/133/133 135/135/135
f 135/135/135 134/134/134 51/51/51
f 130/130/130 129/129/129 136/136/136
f 137/137/137 130/130/130 136/136/136
f 137/137/137 136/136/136 138/138/138
f 139/139/139 132/132/132 135/135/135
f 131/131/131 132/132/132 139/139/139
f 140/140/140 135/135/135 51/51/51
f 139/139/139 135/135/135 140/140/140
f 140/140/140 51/51/51 40/40/40
f 39/39/39 140/140/140 40/40/40
f 129/129/129 131/131/131 141/141/141
f 136/136/136 129/129/129 141/141/141
f 141/141/141 131/131/131 139/139/139
f 138/138/138 136/136/136 142/142/142
f 136/136/136 141/141/141 142/142/142
f 138/138/138 142/142/142 38/38/38
f 38/38/38 142/142/142 37/37/37
f 37/37/37 143/143/143 39/39/39
f 143/143/143 140/140/140 39/39/39
f 143/143/143 139/139/139 140/140/140
f 141/141/141 139/139/139 143/143/143
f 142/142/142 143/143/143 37/37/37
f 142/142/142 141/141/141 143/143/143
f 144/144/144 146/146/146 145/145/145
f 144/144/144 147/147/147 146/146/146
f 148/148/148 146/146/146 147/147/147
f 148/148/148 147/147/147 149/149/149
f 149/149/149 147/147/147 144/144/144
f 149/149/149 150/150/150 148/148/148
f 149/149/149 151/151/151 150/150/150
f 151/151/151 149/149/149 144/144/144
f 151/151/151 152/152/152 150/150/150
f 153/153/153 144/144/144 145/145/145
f 144/144/144 153/153/153 151/151/151
f 153/153/153 145/145/145 154/154/154
f 151/151/151 155/155/155 152/152/152
f 155/155/155 151/151/151 153/153/153
f 155/155/155 156/156/156 152/152/152
f 157/157/157 153/153/153 154/154/154
f 153/153/153 157/157/157 155/155/155
f 157/157/157 154/154/154 158/158/158
f 155/155/155 159/159/159 156/156/156
f 159/159/159 155/155/155 157/157/157
f 159/159/159 160/160/160 156/156/156
f 161/161/161 157/157/157 158/158/158
f 157/157/157 161/161/161 159/159/159
f 161/161/161 158/158/158 162/162/162
f 163/163/163 162/162/162 160/160/160
f 159/159/159 163/163/163 160/160/160
f 163/163/163 161/161/161 162/162/162
f 161/161/161 163/163/163 159/159/159
