# Gem_001
# Exported by MapExporter (Unity -> DirectX12)
# Vertices: 159  Triangles: 116

v -0.054354 0.081739 -0.066204
v -0.044106 0.076382 -0.071375
v -0.043620 0.087936 -0.066205
v -0.088213 -0.000013 -0.071375
v -0.044106 -0.076409 -0.071375
v -0.097976 -0.006209 -0.066203
v -0.054354 -0.081763 -0.066203
v -0.043621 -0.087960 -0.066202
v 0.044108 -0.076409 -0.071375
v 0.044108 0.076382 -0.071375
v -0.043621 -0.087960 -0.066202
v -0.044106 -0.076409 -0.071375
v 0.043622 -0.087960 -0.066202
v -0.077738 -0.147015 -0.005173
v 0.077735 -0.147015 -0.005173
v -0.077738 -0.147015 0.005173
v -0.088472 -0.140820 -0.005172
v -0.088472 -0.140820 0.005172
v -0.166210 -0.006174 0.005172
v -0.166210 -0.006174 -0.005172
v -0.166213 0.006220 -0.005171
v -0.166213 0.006220 0.005170
v -0.088474 0.140868 0.005170
v -0.088474 0.140868 -0.005171
v -0.077741 0.147066 -0.005170
v -0.077741 0.147066 0.005170
v 0.077735 -0.147015 0.005173
v -0.043621 -0.087960 0.066202
v 0.043622 -0.087960 0.066202
v -0.044106 -0.076409 0.071375
v 0.044108 -0.076409 0.071375
v 0.088470 -0.140819 0.005172
v 0.088470 -0.140819 -0.005173
v 0.166207 -0.006174 -0.005173
v 0.166207 -0.006174 0.005172
v 0.166210 0.006220 0.005171
v 0.166210 0.006220 -0.005171
v 0.088471 0.140868 -0.005171
v 0.088471 0.140868 0.005171
v 0.077738 0.147066 0.005170
v 0.077738 0.147066 -0.005170
v -0.043620 0.087936 -0.066205
v 0.043621 0.087936 0.066205
v 0.043621 0.087936 -0.066205
v -0.044106 0.076382 -0.071375
v -0.043620 0.087936 0.066205
v 0.044108 0.076382 0.071375
v -0.044106 0.076382 0.071375
v 0.043621 0.087936 0.066205
v 0.054355 0.081739 0.066204
v 0.097976 0.006186 -0.066204
v 0.088214 -0.000013 -0.071375
v 0.097977 -0.006209 -0.066202
v 0.054355 0.081739 -0.066204
v 0.077738 0.147066 -0.005170
v 0.043621 0.087936 -0.066205
v 0.088471 0.140868 -0.005171
v 0.088214 -0.000013 0.071375
v 0.097977 -0.006209 0.066203
v 0.054356 -0.081763 0.066203
v 0.043622 -0.087960 0.066202
v -0.044106 0.076382 0.071375
v -0.044106 -0.076409 0.071375
v -0.088213 -0.000013 0.071375
v -0.054354 -0.081763 0.066203
v -0.097976 -0.006209 0.066203
v -0.043621 -0.087960 0.066202
v -0.054354 0.081739 0.066204
v -0.043620 0.087936 0.066205
v 0.043621 0.087936 -0.066205
v 0.044108 0.076382 -0.071375
v 0.054355 0.081739 -0.066204
v 0.044108 -0.076409 -0.071375
v 0.088214 -0.000013 -0.071375
v 0.054356 -0.081763 -0.066202
v 0.043622 -0.087960 -0.066202
v 0.097977 -0.006209 -0.066202
v 0.166207 -0.006174 0.005172
v 0.088470 -0.140819 0.005172
v 0.054356 -0.081763 0.066203
v 0.097977 -0.006209 0.066203
v 0.166207 -0.006174 0.005172
v 0.097976 0.006186 0.066204
v 0.166210 0.006220 0.005171
v -0.166213 0.006220 0.005170
v -0.088474 0.140868 0.005170
v -0.054354 0.081739 0.066204
v -0.097975 0.006186 0.066204
v -0.097976 -0.006209 0.066203
v -0.166213 0.006220 0.005170
v -0.166210 -0.006174 0.005172
v -0.088472 -0.140820 0.005172
v -0.166210 -0.006174 0.005172
v -0.054354 -0.081763 0.066203
v 0.088471 0.140868 0.005171
v 0.166210 0.006220 0.005171
v 0.097976 0.006186 0.066204
v 0.054355 0.081739 0.066204
v 0.054355 0.081739 -0.066204
v 0.097976 0.006186 -0.066204
v 0.166210 0.006220 -0.005171
v 0.088471 0.140868 -0.005171
v -0.097975 0.006186 -0.066204
v -0.054354 0.081739 -0.066204
v -0.088474 0.140868 -0.005171
v -0.166213 0.006220 -0.005171
v -0.166210 -0.006174 -0.005172
v -0.166213 0.006220 -0.005171
v -0.097976 -0.006209 -0.066203
v -0.054354 -0.081763 -0.066203
v -0.166210 -0.006174 -0.005172
v -0.088472 -0.140820 -0.005172
v 0.097977 -0.006209 -0.066202
v 0.054356 -0.081763 -0.066202
v 0.088470 -0.140819 -0.005173
v 0.166207 -0.006174 -0.005173
v 0.166207 -0.006174 -0.005173
v 0.166210 0.006220 -0.005171
v 0.097976 0.006186 -0.066204
v -0.097975 0.006186 -0.066204
v -0.097976 -0.006209 -0.066203
v -0.088213 -0.000013 -0.071375
v -0.054354 0.081739 -0.066204
v -0.044106 0.076382 -0.071375
v -0.043620 0.087936 -0.066205
v -0.088474 0.140868 -0.005171
v -0.077741 0.147066 -0.005170
v -0.097975 0.006186 0.066204
v -0.088213 -0.000013 0.071375
v -0.097976 -0.006209 0.066203
v -0.044106 0.076382 0.071375
v -0.054354 0.081739 0.066204
v -0.077741 0.147066 0.005170
v -0.043620 0.087936 0.066205
v -0.088474 0.140868 0.005170
v 0.097976 0.006186 0.066204
v 0.097977 -0.006209 0.066203
v 0.088214 -0.000013 0.071375
v 0.054355 0.081739 0.066204
v 0.044108 0.076382 0.071375
v 0.043621 0.087936 0.066205
v 0.088471 0.140868 0.005171
v 0.077738 0.147066 0.005170
v -0.077738 -0.147015 -0.005173
v -0.043621 -0.087960 -0.066202
v -0.054354 -0.081763 -0.066203
v -0.088472 -0.140820 -0.005172
v 0.077735 -0.147015 0.005173
v 0.043622 -0.087960 0.066202
v 0.054356 -0.081763 0.066203
v 0.088470 -0.140819 0.005172
v -0.043621 -0.087960 0.066202
v -0.077738 -0.147015 0.005173
v -0.088472 -0.140820 0.005172
v -0.054354 -0.081763 0.066203
v 0.043622 -0.087960 -0.066202
v 0.077735 -0.147015 -0.005173
v 0.088470 -0.140819 -0.005173
v 0.054356 -0.081763 -0.066202

vn -0.576870 0.369538 -0.728467
vn -0.018337 0.031695 -0.999329
vn -0.031588 0.684286 -0.728529
vn -0.036617 -0.000009 -0.999329
vn -0.018353 -0.031746 -0.999327
vn -0.608631 -0.314943 -0.728271
vn -0.577069 -0.369654 -0.728249
vn -0.031591 -0.684661 -0.728177
vn 0.018329 -0.031760 -0.999327
vn 0.018315 0.031714 -0.999329
vn -0.031586 -0.684666 -0.728173
vn -0.018314 -0.031760 -0.999328
vn 0.031589 -0.684667 -0.728171
vn -0.034960 -0.773125 -0.633290
vn 0.034963 -0.773124 -0.633291
vn -0.034964 -0.773125 0.633290
vn -0.651963 -0.416787 -0.633429
vn -0.651963 -0.416787 0.633430
vn -0.686929 -0.356263 0.633408
vn -0.686926 -0.356264 -0.633411
vn -0.686761 0.356172 -0.633642
vn -0.686763 0.356172 0.633639
vn -0.651780 0.416667 0.633697
vn -0.651779 0.416665 -0.633698
vn -0.034952 0.772725 -0.633777
vn -0.034948 0.772728 0.633775
vn 0.034959 -0.773126 0.633288
vn -0.031588 -0.684668 0.728171
vn 0.031587 -0.684667 0.728171
vn -0.018327 -0.031760 0.999327
vn 0.018331 -0.031754 0.999328
vn 0.651973 -0.416811 0.633403
vn 0.651973 -0.416811 -0.633404
vn 0.686927 -0.356264 -0.633409
vn 0.686926 -0.356264 0.633410
vn 0.686762 0.356171 0.633640
vn 0.686763 0.356171 -0.633640
vn 0.651789 0.416690 -0.633673
vn 0.651790 0.416692 0.633670
vn 0.034951 0.772727 0.633776
vn 0.034947 0.772727 -0.633776
vn -0.031578 0.684280 -0.728535
vn 0.031579 0.684282 0.728534
vn 0.031577 0.684280 -0.728536
vn -0.018326 0.031715 -0.999329
vn -0.031576 0.684280 0.728535
vn 0.018310 0.031710 0.999329
vn -0.018313 0.031715 0.999329
vn 0.031597 0.684286 0.728529
vn 0.576880 0.369542 0.728456
vn 0.608480 0.314862 -0.728432
vn 0.036631 0.000017 -0.999329
vn 0.608636 -0.314958 -0.728261
vn 0.576910 0.369527 -0.728440
vn 0.034977 0.772733 -0.633766
vn 0.031568 0.684293 -0.728523
vn 0.651819 0.416661 -0.633661
vn 0.036665 -0.000002 0.999328
vn 0.608641 -0.314949 0.728260
vn 0.577079 -0.369660 0.728239
vn 0.031598 -0.684662 0.728175
vn -0.018311 0.031710 0.999329
vn -0.018330 -0.031754 0.999328
vn -0.036665 -0.000003 0.999328
vn -0.577072 -0.369646 0.728251
vn -0.608637 -0.314933 0.728271
vn -0.031599 -0.684664 0.728173
vn -0.576870 0.369544 0.728463
vn -0.031583 0.684282 0.728533
vn 0.031589 0.684283 -0.728532
vn 0.018298 0.031727 -0.999329
vn 0.576879 0.369549 -0.728454
vn 0.018282 -0.031741 -0.999329
vn 0.036637 -0.000006 -0.999329
vn 0.577079 -0.369651 -0.728243
vn 0.031605 -0.684664 -0.728173
vn 0.608645 -0.314939 -0.728261
vn 0.686920 -0.356253 0.633423
vn 0.651990 -0.416801 0.633392
vn 0.577062 -0.369651 0.728257
vn 0.608644 -0.314935 0.728265
vn 0.686929 -0.356258 0.633411
vn 0.608478 0.314861 0.728435
vn 0.686786 0.356152 0.633626
vn -0.686746 0.356148 0.633670
vn -0.651799 0.416672 0.633673
vn -0.576900 0.369528 0.728447
vn -0.608475 0.314843 0.728445
vn -0.608634 -0.314920 0.728279
vn -0.686769 0.356152 0.633644
vn -0.686912 -0.356257 0.633429
vn -0.651979 -0.416789 0.633412
vn -0.686906 -0.356240 0.633446
vn -0.577045 -0.369639 0.728276
vn 0.651816 0.416679 0.633652
vn 0.686762 0.356153 0.633651
vn 0.608495 0.314851 0.728425
vn 0.576917 0.369535 0.728430
vn 0.576916 0.369536 -0.728430
vn 0.608492 0.314852 -0.728427
vn 0.686760 0.356157 -0.633651
vn 0.651812 0.416681 -0.633654
vn -0.608476 0.314841 -0.728445
vn -0.576899 0.369525 -0.728450
vn -0.651801 0.416669 -0.633674
vn -0.686746 0.356144 -0.633673
vn -0.686911 -0.356257 -0.633431
vn -0.686767 0.356153 -0.633645
vn -0.608631 -0.314921 -0.728281
vn -0.577044 -0.369641 -0.728276
vn -0.686904 -0.356243 -0.633446
vn -0.651975 -0.416792 -0.633414
vn 0.608644 -0.314933 -0.728265
vn 0.577061 -0.369648 -0.728259
vn 0.651992 -0.416798 -0.633392
vn 0.686920 -0.356248 -0.633426
vn 0.686928 -0.356258 -0.633412
vn 0.686785 0.356152 -0.633627
vn 0.608490 0.314816 -0.728444
vn -0.608462 0.314820 -0.728466
vn -0.608605 -0.314925 -0.728301
vn -0.036663 0.000021 -0.999328
vn -0.576907 0.369511 -0.728451
vn -0.018339 0.031717 -0.999329
vn -0.031605 0.684281 -0.728533
vn -0.651809 0.416654 -0.633675
vn -0.034969 0.772730 -0.633771
vn -0.608456 0.314824 0.728469
vn -0.036663 0.000017 0.999328
vn -0.608611 -0.314921 0.728298
vn -0.018333 0.031729 0.999328
vn -0.576901 0.369520 0.728450
vn -0.034971 0.772731 0.633770
vn -0.031607 0.684282 0.728532
vn -0.651810 0.416655 0.633674
vn 0.608488 0.314857 0.728428
vn 0.608632 -0.314964 0.728262
vn 0.036634 0.000021 0.999329
vn 0.576917 0.369518 0.728439
vn 0.018311 0.031702 0.999330
vn 0.031568 0.684294 0.728523
vn 0.651819 0.416662 0.633660
vn 0.034978 0.772734 0.633765
vn -0.034945 -0.773108 -0.633312
vn -0.031592 -0.684671 -0.728167
vn -0.577061 -0.369620 -0.728273
vn -0.651994 -0.416789 -0.633396
vn 0.034953 -0.773112 0.633305
vn 0.031600 -0.684673 0.728165
vn 0.577075 -0.369631 0.728257
vn 0.652003 -0.416797 0.633381
vn -0.031593 -0.684672 0.728166
vn -0.034946 -0.773109 0.633310
vn -0.651995 -0.416790 0.633394
vn -0.577062 -0.369621 0.728272
vn 0.031599 -0.684672 -0.728166
vn 0.034953 -0.773112 -0.633306
vn 0.652003 -0.416796 -0.633382
vn 0.577074 -0.369630 -0.728258

vt 0.515653 0.775863
vt 0.515087 0.777843
vt 0.516308 0.773571
vt 0.507014 0.806086
vt 0.498941 0.834328
vt 0.506360 0.808376
vt 0.498376 0.836308
vt 0.497721 0.838599
vt 0.498941 0.834328
vt 0.515087 0.777843
vt 0.497721 0.838599
vt 0.498941 0.834328
vt 0.497721 0.838599
vt 0.491480 0.860431
vt 0.491480 0.860431
vt 0.491480 0.860431
vt 0.492135 0.858141
vt 0.492135 0.858141
vt 0.506363 0.808363
vt 0.506363 0.808363
vt 0.507673 0.803781
vt 0.507673 0.803781
vt 0.521901 0.754003
vt 0.521901 0.754003
vt 0.522556 0.751712
vt 0.522556 0.751712
vt 0.491480 0.860431
vt 0.497721 0.838599
vt 0.497721 0.838599
vt 0.498941 0.834328
vt 0.498941 0.834328
vt 0.492135 0.858141
vt 0.492135 0.858141
vt 0.506363 0.808363
vt 0.506363 0.808363
vt 0.507673 0.803781
vt 0.507673 0.803781
vt 0.521901 0.754003
vt 0.521901 0.754003
vt 0.522556 0.751712
vt 0.522556 0.751712
vt 0.516308 0.773571
vt 0.516308 0.773571
vt 0.516308 0.773571
vt 0.515087 0.777843
vt 0.516308 0.773571
vt 0.515087 0.777843
vt 0.515087 0.777843
vt 0.516308 0.773571
vt 0.515653 0.775863
vt 0.507669 0.803794
vt 0.507014 0.806086
vt 0.506360 0.808376
vt 0.515653 0.775863
vt 0.522556 0.751712
vt 0.516308 0.773571
vt 0.521901 0.754003
vt 0.507014 0.806086
vt 0.506360 0.808376
vt 0.498376 0.836308
vt 0.497721 0.838599
vt 0.515087 0.777843
vt 0.498941 0.834328
vt 0.507014 0.806086
vt 0.498376 0.836308
vt 0.506360 0.808376
vt 0.497721 0.838599
vt 0.515653 0.775863
vt 0.516308 0.773571
vt 0.516308 0.773571
vt 0.515087 0.777843
vt 0.515653 0.775863
vt 0.498941 0.834328
vt 0.507014 0.806086
vt 0.498376 0.836308
vt 0.497721 0.838599
vt 0.506360 0.808376
vt 0.506363 0.808363
vt 0.492135 0.858141
vt 0.498376 0.836308
vt 0.506360 0.808376
vt 0.506363 0.808363
vt 0.507669 0.803794
vt 0.507673 0.803781
vt 0.507673 0.803781
vt 0.521901 0.754003
vt 0.515653 0.775863
vt 0.507669 0.803794
vt 0.506360 0.808376
vt 0.507673 0.803781
vt 0.506363 0.808363
vt 0.492135 0.858141
vt 0.506363 0.808363
vt 0.498376 0.836308
vt 0.521901 0.754003
vt 0.507673 0.803781
vt 0.507669 0.803794
vt 0.515653 0.775863
vt 0.515653 0.775863
vt 0.507669 0.803794
vt 0.507673 0.803781
vt 0.521901 0.754003
vt 0.507669 0.803794
vt 0.515653 0.775863
vt 0.521901 0.754003
vt 0.507673 0.803781
vt 0.506363 0.808363
vt 0.507673 0.803781
vt 0.506360 0.808376
vt 0.498376 0.836308
vt 0.506363 0.808363
vt 0.492135 0.858141
vt 0.506360 0.808376
vt 0.498376 0.836308
vt 0.492135 0.858141
vt 0.506363 0.808363
vt 0.506363 0.808363
vt 0.507673 0.803781
vt 0.507669 0.803794
vt 0.507669 0.803794
vt 0.506360 0.808376
vt 0.507014 0.806086
vt 0.515653 0.775863
vt 0.515087 0.777843
vt 0.516308 0.773571
vt 0.521901 0.754003
vt 0.522556 0.751712
vt 0.507669 0.803794
vt 0.507014 0.806086
vt 0.506360 0.808376
vt 0.515087 0.777843
vt 0.515653 0.775863
vt 0.522556 0.751712
vt 0.516308 0.773571
vt 0.521901 0.754003
vt 0.507669 0.803794
vt 0.506360 0.808376
vt 0.507014 0.806086
vt 0.515653 0.775863
vt 0.515087 0.777843
vt 0.516308 0.773571
vt 0.521901 0.754003
vt 0.522556 0.751712
vt 0.491480 0.860431
vt 0.497721 0.838599
vt 0.498376 0.836308
vt 0.492135 0.858141
vt 0.491480 0.860431
vt 0.497721 0.838599
vt 0.498376 0.836308
vt 0.492135 0.858141
vt 0.497721 0.838599
vt 0.491480 0.860431
vt 0.492135 0.858141
vt 0.498376 0.836308
vt 0.497721 0.838599
vt 0.491480 0.860431
vt 0.492135 0.858141
vt 0.498376 0.836308

f 1/1/1 3/3/3 2/2/2
f 2/2/2 5/5/5 4/4/4
f 6/6/6 4/4/4 5/5/5
f 6/6/6 5/5/5 7/7/7
f 8/8/8 7/7/7 5/5/5
f 5/5/5 2/2/2 9/9/9
f 9/9/9 2/2/2 10/10/10
f 11/11/11 12/12/12 9/9/9
f 11/11/11 9/9/9 13/13/13
f 13/13/13 14/14/14 11/11/11
f 13/13/13 15/15/15 14/14/14
f 16/16/16 14/14/14 15/15/15
f 17/17/17 14/14/14 16/16/16
f 17/17/17 16/16/16 18/18/18
f 19/19/19 17/17/17 18/18/18
f 19/19/19 20/20/20 17/17/17
f 21/21/21 20/20/20 19/19/19
f 21/21/21 19/19/19 22/22/22
f 23/23/23 21/21/21 22/22/22
f 23/23/23 24/24/24 21/21/21
f 23/23/23 25/25/25 24/24/24
f 23/23/23 26/26/26 25/25/25
f 16/16/16 15/15/15 27/27/27
f 27/27/27 28/28/28 16/16/16
f 27/27/27 29/29/29 28/28/28
f 30/30/30 28/28/28 29/29/29
f 30/30/30 29/29/29 31/31/31
f 32/32/32 27/27/27 15/15/15
f 32/32/32 15/15/15 33/33/33
f 32/32/32 33/33/33 34/34/34
f 32/32/32 34/34/34 35/35/35
f 36/36/36 35/35/35 34/34/34
f 36/36/36 34/34/34 37/37/37
f 36/36/36 37/37/37 38/38/38
f 36/36/36 38/38/38 39/39/39
f 38/38/38 40/40/40 39/39/39
f 38/38/38 41/41/41 40/40/40
f 40/40/40 41/41/41 25/25/25
f 40/40/40 25/25/25 26/26/26
f 42/42/42 25/25/25 41/41/41
f 26/26/26 43/43/43 40/40/40
f 42/42/42 41/41/41 44/44/44
f 44/44/44 45/45/45 42/42/42
f 44/44/44 10/10/10 45/45/45
f 26/26/26 46/46/46 43/43/43
f 47/47/47 43/43/43 46/46/46
f 47/47/47 46/46/46 48/48/48
f 49/49/49 47/47/47 50/50/50
f 51/51/51 52/52/52 10/10/10
f 51/51/51 53/53/53 52/52/52
f 51/51/51 10/10/10 54/54/54
f 55/55/55 54/54/54 56/56/56
f 55/55/55 57/57/57 54/54/54
f 47/47/47 31/31/31 58/58/58
f 31/31/31 59/59/59 58/58/58
f 31/31/31 60/60/60 59/59/59
f 60/60/60 31/31/31 61/61/61
f 62/62/62 31/31/31 47/47/47
f 62/62/62 63/63/63 31/31/31
f 63/63/63 62/62/62 64/64/64
f 64/64/64 65/65/65 63/63/63
f 64/64/64 66/66/66 65/65/65
f 67/67/67 63/63/63 65/65/65
f 68/68/68 62/62/62 69/69/69
f 70/70/70 72/72/72 71/71/71
f 73/73/73 71/71/71 74/74/74
f 75/75/75 73/73/73 74/74/74
f 75/75/75 76/76/76 73/73/73
f 75/75/75 74/74/74 77/77/77
f 78/78/78 80/80/80 79/79/79
f 78/78/78 81/81/81 80/80/80
f 82/82/82 83/83/83 81/81/81
f 82/82/82 84/84/84 83/83/83
f 85/85/85 87/87/87 86/86/86
f 85/85/85 88/88/88 87/87/87
f 89/89/89 88/88/88 90/90/90
f 89/89/89 90/90/90 91/91/91
f 92/92/92 89/89/89 93/93/93
f 92/92/92 94/94/94 89/89/89
f 95/95/95 97/97/97 96/96/96
f 95/95/95 98/98/98 97/97/97
f 99/99/99 101/101/101 100/100/100
f 99/99/99 102/102/102 101/101/101
f 103/103/103 105/105/105 104/104/104
f 103/103/103 106/106/106 105/105/105
f 107/107/107 108/108/108 103/103/103
f 107/107/107 103/103/103 109/109/109
f 110/110/110 111/111/111 109/109/109
f 110/110/110 112/112/112 111/111/111
f 113/113/113 115/115/115 114/114/114
f 113/113/113 116/116/116 115/115/115
f 113/113/113 118/118/118 117/117/117
f 113/113/113 119/119/119 118/118/118
f 120/120/120 122/122/122 121/121/121
f 123/123/123 122/122/122 120/120/120
f 123/123/123 124/124/124 122/122/122
f 125/125/125 123/123/123 126/126/126
f 125/125/125 126/126/126 127/127/127
f 128/128/128 130/130/130 129/129/129
f 131/131/131 128/128/128 129/129/129
f 131/131/131 132/132/132 128/128/128
f 133/133/133 132/132/132 134/134/134
f 133/133/133 135/135/135 132/132/132
f 136/136/136 138/138/138 137/137/137
f 138/138/138 136/136/136 139/139/139
f 138/138/138 139/139/139 140/140/140
f 141/141/141 139/139/139 142/142/142
f 141/141/141 142/142/142 143/143/143
f 144/144/144 146/146/146 145/145/145
f 144/144/144 147/147/147 146/146/146
f 148/148/148 150/150/150 149/149/149
f 148/148/148 151/151/151 150/150/150
f 152/152/152 154/154/154 153/153/153
f 152/152/152 155/155/155 154/154/154
f 156/156/156 158/158/158 157/157/157
f 156/156/156 159/159/159 158/158/158
