# Gem_004
# Exported by MapExporter (Unity -> DirectX12)
# Vertices: 65  Triangles: 92

v -0.051675 -0.007240 -0.105281
v -0.053012 0.000000 -0.091820
v -0.065335 -0.007242 -0.097395
v -0.076155 -0.071496 -0.147732
v -0.089814 -0.071495 -0.139844
v -0.075472 -0.085305 -0.146845
v 0.076158 -0.071496 -0.147732
v -0.165970 -0.071495 -0.007938
v -0.117010 -0.007242 -0.007890
v -0.117011 -0.007244 0.007882
v -0.165967 -0.071492 0.007834
v -0.089812 -0.071492 0.139738
v -0.106025 0.000000 0.000000
v -0.065334 -0.007244 0.097388
v -0.051677 -0.007245 0.105273
v -0.076153 -0.071491 0.147622
v -0.053012 0.000000 -0.091820
v -0.065335 -0.007242 -0.097395
v -0.053012 0.000000 0.091820
v 0.053012 0.000000 -0.091820
v -0.051675 -0.007240 -0.105281
v 0.106025 0.000000 0.000000
v 0.051675 -0.007240 -0.105281
v -0.076155 -0.071496 -0.147732
v 0.065335 -0.007241 -0.097395
v 0.089817 -0.071495 -0.139844
v 0.117011 -0.007241 -0.007890
v 0.165973 -0.071495 -0.007938
v 0.165970 -0.071493 0.007834
v 0.089387 -0.085306 -0.138813
v 0.165973 -0.071495 -0.007938
v 0.075476 -0.085305 -0.146845
v 0.117011 -0.007244 0.007882
v 0.065335 -0.007244 0.097388
v 0.089815 -0.071493 0.139738
v 0.076156 -0.071491 0.147622
v 0.106025 0.000000 0.000000
v 0.065335 -0.007241 -0.097395
v 0.053012 0.000000 -0.091820
v 0.053012 0.000000 0.091820
v 0.051677 -0.007245 0.105273
v -0.076153 -0.071491 0.147622
v 0.075475 -0.085307 0.146730
v -0.075471 -0.085307 0.146730
v 0.000001 -0.236793 0.016044
v -0.089383 -0.085307 0.138699
v -0.089812 -0.071492 0.139738
v -0.165967 -0.071492 0.007834
v -0.013910 -0.236793 0.008013
v -0.164856 -0.085307 0.007975
v -0.165970 -0.071495 -0.007938
v 0.013913 -0.236794 0.008013
v 0.013913 -0.236794 -0.008051
v -0.164857 -0.085306 -0.008088
v -0.013910 -0.236794 -0.008051
v -0.089384 -0.085306 -0.138813
v 0.000001 -0.236794 -0.016083
v 0.164861 -0.085306 -0.008088
v 0.013913 -0.236794 0.008013
v 0.164860 -0.085307 0.007975
v 0.165970 -0.071493 0.007834
v 0.089815 -0.071493 0.139738
v 0.089386 -0.085307 0.138699
v 0.075475 -0.085307 0.146730
v 0.076156 -0.071491 0.147622

vn -0.042651 0.613185 -0.788788
vn -0.021318 0.999091 -0.036924
vn -0.661887 0.613013 -0.431417
vn -0.047834 0.468860 -0.881976
vn -0.740027 0.468603 -0.482464
vn -0.065732 -0.616867 -0.784318
vn 0.047809 0.468847 -0.881985
vn -0.787855 0.468579 -0.399648
vn -0.704588 0.612971 -0.357523
vn -0.704816 0.612624 0.357668
vn -0.788038 0.468183 0.399751
vn -0.740251 0.468134 0.482576
vn -0.042646 0.999090 0.000021
vn -0.662148 0.612612 0.431587
vn -0.042702 0.612464 0.789345
vn -0.047837 0.467935 0.882468
vn -0.021318 0.999091 -0.036924
vn -0.661887 0.613013 -0.431417
vn -0.021313 0.999090 0.036945
vn 0.021339 0.999091 -0.036907
vn -0.042651 0.613185 -0.788788
vn 0.042638 0.999091 -0.000018
vn 0.042641 0.613190 -0.788784
vn -0.047834 0.468860 -0.881976
vn 0.661880 0.613040 -0.431389
vn 0.740017 0.468662 -0.482423
vn 0.704565 0.612995 -0.357527
vn 0.787846 0.468598 -0.399644
vn 0.788028 0.468181 0.399774
vn 0.646376 -0.616840 -0.449117
vn 0.787846 0.468598 -0.399644
vn 0.065743 -0.616871 -0.784313
vn 0.704785 0.612681 0.357630
vn 0.662141 0.612641 0.431556
vn 0.740211 0.468178 0.482594
vn 0.047827 0.467935 0.882468
vn 0.042638 0.999091 -0.000018
vn 0.661880 0.613040 -0.431389
vn 0.021339 0.999091 -0.036907
vn 0.021313 0.999090 0.036940
vn 0.042695 0.612467 0.789342
vn -0.047837 0.467935 0.882468
vn 0.065752 -0.616655 0.784483
vn -0.065773 -0.616668 0.784471
vn 0.000026 -0.701032 0.713130
vn -0.646460 -0.616707 0.449179
vn -0.740251 0.468134 0.482576
vn -0.788038 0.468183 0.399751
vn -0.617555 -0.701061 0.356566
vn -0.712226 -0.616704 0.335276
vn -0.787855 0.468579 -0.399648
vn 0.617572 -0.701063 0.356534
vn 0.617475 -0.701164 -0.356503
vn -0.712173 -0.616782 -0.335246
vn -0.617479 -0.701162 -0.356499
vn -0.646407 -0.616825 -0.449094
vn 0.000005 -0.701193 -0.712971
vn 0.712138 -0.616836 -0.335221
vn 0.617572 -0.701063 0.356534
vn 0.712190 -0.616740 0.335286
vn 0.788028 0.468181 0.399774
vn 0.740211 0.468178 0.482594
vn 0.646442 -0.616715 0.449193
vn 0.065752 -0.616655 0.784483
vn 0.047827 0.467935 0.882468

vt 0.038180 0.755598
vt 0.038639 0.752144
vt 0.038180 0.755599
vt 0.034103 0.786261
vt 0.034103 0.786261
vt 0.033227 0.792851
vt 0.034103 0.786261
vt 0.034103 0.786261
vt 0.038180 0.755599
vt 0.038180 0.755601
vt 0.034103 0.786259
vt 0.034103 0.786259
vt 0.038639 0.752144
vt 0.038180 0.755601
vt 0.038180 0.755601
vt 0.034103 0.786258
vt 0.038639 0.752144
vt 0.038180 0.755599
vt 0.038639 0.752144
vt 0.038639 0.752144
vt 0.038180 0.755598
vt 0.038639 0.752144
vt 0.038180 0.755598
vt 0.034103 0.786261
vt 0.038180 0.755599
vt 0.034103 0.786261
vt 0.038180 0.755599
vt 0.034103 0.786261
vt 0.034103 0.786259
vt 0.033227 0.792851
vt 0.034103 0.786261
vt 0.033227 0.792851
vt 0.038180 0.755601
vt 0.038180 0.755601
vt 0.034103 0.786259
vt 0.034103 0.786258
vt 0.038639 0.752144
vt 0.038180 0.755599
vt 0.038639 0.752144
vt 0.038639 0.752144
vt 0.038180 0.755601
vt 0.034103 0.786258
vt 0.033227 0.792851
vt 0.033227 0.792851
vt 0.023615 0.865139
vt 0.033227 0.792851
vt 0.034103 0.786259
vt 0.034103 0.786259
vt 0.023615 0.865139
vt 0.033227 0.792851
vt 0.034103 0.786261
vt 0.023615 0.865139
vt 0.023615 0.865139
vt 0.033227 0.792851
vt 0.023615 0.865139
vt 0.033227 0.792851
vt 0.023615 0.865139
vt 0.033227 0.792851
vt 0.023615 0.865139
vt 0.033227 0.792851
vt 0.034103 0.786259
vt 0.034103 0.786259
vt 0.033227 0.792851
vt 0.033227 0.792851
vt 0.034103 0.786258

f 1/1/1 3/3/3 2/2/2
f 4/4/4 3/3/3 1/1/1
f 4/4/4 5/5/5 3/3/3
f 6/6/6 5/5/5 4/4/4
f 6/6/6 4/4/4 7/7/7
f 3/3/3 5/5/5 8/8/8
f 3/3/3 8/8/8 9/9/9
f 10/10/10 9/9/9 8/8/8
f 10/10/10 8/8/8 11/11/11
f 10/10/10 11/11/11 12/12/12
f 10/10/10 13/13/13 9/9/9
f 10/10/10 12/12/12 14/14/14
f 14/14/14 13/13/13 10/10/10
f 12/12/12 15/15/15 14/14/14
f 12/12/12 16/16/16 15/15/15
f 9/9/9 13/13/13 17/17/17
f 9/9/9 17/17/17 18/18/18
f 14/14/14 15/15/15 19/19/19
f 14/14/14 19/19/19 13/13/13
f 13/13/13 20/20/20 17/17/17
f 21/21/21 17/17/17 20/20/20
f 13/13/13 22/22/22 20/20/20
f 19/19/19 22/22/22 13/13/13
f 21/21/21 20/20/20 23/23/23
f 23/23/23 24/24/24 21/21/21
f 25/25/25 23/23/23 20/20/20
f 23/23/23 7/7/7 24/24/24
f 23/23/23 25/25/25 26/26/26
f 23/23/23 26/26/26 7/7/7
f 27/27/27 26/26/26 25/25/25
f 27/27/27 28/28/28 26/26/26
f 29/29/29 28/28/28 27/27/27
f 30/30/30 7/7/7 26/26/26
f 30/30/30 26/26/26 31/31/31
f 30/30/30 32/32/32 7/7/7
f 6/6/6 7/7/7 32/32/32
f 29/29/29 27/27/27 33/33/33
f 34/34/34 29/29/29 33/33/33
f 34/34/34 35/35/35 29/29/29
f 34/34/34 36/36/36 35/35/35
f 33/33/33 27/27/27 37/37/37
f 38/38/38 37/37/37 27/27/27
f 38/38/38 39/39/39 37/37/37
f 33/33/33 37/37/37 40/40/40
f 33/33/33 40/40/40 34/34/34
f 37/37/37 19/19/19 40/40/40
f 41/41/41 34/34/34 40/40/40
f 41/41/41 40/40/40 19/19/19
f 34/34/34 41/41/41 36/36/36
f 41/41/41 19/19/19 15/15/15
f 15/15/15 36/36/36 41/41/41
f 15/15/15 42/42/42 36/36/36
f 43/43/43 36/36/36 42/42/42
f 43/43/43 42/42/42 44/44/44
f 44/44/44 45/45/45 43/43/43
f 46/46/46 44/44/44 42/42/42
f 46/46/46 42/42/42 47/47/47
f 46/46/46 47/47/47 48/48/48
f 49/49/49 44/44/44 46/46/46
f 49/49/49 45/45/45 44/44/44
f 46/46/46 48/48/48 50/50/50
f 50/50/50 49/49/49 46/46/46
f 50/50/50 48/48/48 51/51/51
f 49/49/49 52/52/52 45/45/45
f 52/52/52 49/49/49 53/53/53
f 50/50/50 51/51/51 54/54/54
f 54/54/54 51/51/51 5/5/5
f 55/55/55 49/49/49 50/50/50
f 55/55/55 50/50/50 54/54/54
f 53/53/53 49/49/49 55/55/55
f 54/54/54 5/5/5 56/56/56
f 56/56/56 55/55/55 54/54/54
f 6/6/6 56/56/56 5/5/5
f 56/56/56 57/57/57 55/55/55
f 56/56/56 6/6/6 57/57/57
f 53/53/53 55/55/55 57/57/57
f 32/32/32 57/57/57 6/6/6
f 32/32/32 53/53/53 57/57/57
f 32/32/32 30/30/30 53/53/53
f 58/58/58 53/53/53 30/30/30
f 30/30/30 31/31/31 58/58/58
f 59/59/59 53/53/53 58/58/58
f 60/60/60 58/58/58 31/31/31
f 59/59/59 58/58/58 60/60/60
f 60/60/60 31/31/31 61/61/61
f 60/60/60 61/61/61 62/62/62
f 63/63/63 59/59/59 60/60/60
f 60/60/60 62/62/62 63/63/63
f 63/63/63 45/45/45 59/59/59
f 63/63/63 64/64/64 45/45/45
f 64/64/64 63/63/63 62/62/62
f 64/64/64 62/62/62 65/65/65
