# Gem_002
# Exported by MapExporter (Unity -> DirectX12)
# Vertices: 131  Triangles: 116

v 0.115977 0.110719 -0.005617
v 0.068663 -0.062130 -0.066796
v 0.115977 -0.110718 -0.005617
v 0.068663 0.062129 -0.066796
v 0.063043 0.074921 -0.067656
v 0.111686 0.124877 -0.004758
v -0.115977 -0.110718 -0.005618
v -0.068665 -0.062130 -0.066796
v -0.068665 0.062129 -0.066796
v -0.115977 0.110719 -0.005618
v -0.111687 0.124877 -0.004758
v -0.063044 0.074921 -0.067656
v 0.111686 -0.124877 -0.004758
v 0.006229 -0.133269 -0.067656
v 0.006230 -0.233178 -0.004758
v 0.063043 -0.074923 -0.067656
v 0.068663 -0.062130 -0.066796
v 0.115977 -0.110718 -0.005617
v 0.006229 0.133268 0.067656
v 0.111686 0.124877 0.004758
v 0.063043 0.074921 0.067656
v 0.006230 0.233178 0.004758
v -0.006230 0.233178 0.004758
v -0.006230 0.133268 0.067656
v -0.000001 0.121930 0.072413
v -0.057219 0.063168 0.072413
v -0.063044 0.074921 0.067656
v -0.000001 -0.121931 0.072414
v -0.057219 -0.063169 0.072413
v -0.063044 -0.074923 0.067656
v -0.006230 -0.133269 0.067656
v 0.006229 -0.133269 0.067656
v 0.006230 -0.233178 0.004758
v -0.006230 -0.233178 0.004758
v 0.063043 -0.074923 0.067656
v 0.006230 -0.233178 -0.004758
v -0.006230 -0.233178 -0.004758
v 0.111686 -0.124877 0.004758
v 0.111686 -0.124877 -0.004758
v 0.115977 -0.110718 -0.005617
v 0.115977 -0.110718 0.005617
v 0.006229 -0.133269 -0.067656
v 0.068663 -0.062130 0.066796
v 0.057218 -0.063169 0.072414
v 0.057218 0.063168 0.072413
v 0.068663 0.062129 0.066796
v 0.115977 0.110719 0.005617
v 0.063043 0.074921 0.067656
v -0.006230 -0.133269 -0.067656
v -0.063044 -0.074923 -0.067656
v -0.111687 -0.124877 -0.004758
v -0.115977 -0.110718 -0.005618
v -0.068665 -0.062130 -0.066796
v -0.000001 -0.121931 -0.072413
v 0.063043 -0.074923 -0.067656
v 0.057218 -0.063169 -0.072413
v 0.068663 -0.062130 -0.066796
v -0.057219 -0.063169 -0.072413
v -0.000001 0.121930 -0.072414
v 0.057218 0.063168 -0.072413
v 0.006229 0.133268 -0.067656
v 0.063043 0.074921 -0.067656
v -0.000001 -0.121931 -0.072413
v 0.057218 -0.063169 -0.072413
v -0.000001 0.121930 -0.072414
v -0.057219 -0.063169 -0.072413
v -0.006230 -0.133269 -0.067656
v -0.063044 -0.074923 -0.067656
v -0.068665 -0.062130 -0.066796
v -0.057219 0.063168 -0.072414
v -0.063044 0.074921 -0.067656
v -0.006230 0.133268 -0.067656
v 0.006229 0.133268 -0.067656
v 0.006230 0.233178 -0.004758
v -0.006230 0.233178 -0.004758
v 0.063043 0.074921 -0.067656
v 0.111686 0.124877 -0.004758
v 0.006230 0.233178 0.004758
v 0.111686 0.124877 0.004758
v 0.115977 0.110719 0.005617
v 0.115977 0.110719 -0.005617
v 0.115977 -0.110718 -0.005617
v 0.115977 -0.110718 0.005617
v 0.068663 0.062129 0.066796
v 0.063043 0.074921 0.067656
v 0.057218 0.063168 -0.072413
v 0.068663 0.062129 -0.066796
v 0.057218 -0.063169 -0.072413
v 0.068663 -0.062130 -0.066796
v 0.006230 0.233178 0.004758
v -0.006230 0.233178 -0.004758
v -0.111687 0.124877 0.004758
v -0.111687 0.124877 -0.004758
v -0.006230 0.133268 -0.067656
v -0.063044 0.074921 -0.067656
v -0.115977 0.110719 -0.005618
v -0.115977 0.110719 0.005617
v -0.063044 0.074921 0.067656
v -0.068665 0.062129 0.066796
v -0.068665 -0.062130 0.066796
v -0.115977 -0.110718 0.005618
v -0.115977 -0.110718 -0.005618
v -0.068665 0.062129 -0.066796
v -0.057219 0.063168 -0.072414
v -0.068665 -0.062130 -0.066796
v -0.057219 -0.063169 -0.072413
v -0.063044 0.074921 0.067656
v -0.111687 0.124877 0.004758
v -0.006230 0.233178 0.004758
v -0.006230 0.133268 0.067656
v -0.068665 0.062129 0.066796
v -0.063044 0.074921 0.067656
v -0.057219 0.063168 0.072413
v -0.057219 -0.063169 0.072413
v -0.068665 -0.062130 0.066796
v -0.063044 -0.074923 0.067656
v -0.111687 -0.124877 0.004758
v -0.006230 -0.133269 0.067656
v -0.115977 -0.110718 0.005618
v -0.006230 -0.233178 0.004758
v -0.111687 -0.124877 -0.004758
v -0.115977 -0.110718 -0.005618
v -0.006230 -0.233178 -0.004758
v 0.063043 0.074921 0.067656
v -0.000001 0.121930 0.072413
v 0.006229 0.133268 0.067656
v 0.057218 0.063168 0.072413
v 0.057218 -0.063169 0.072414
v -0.000001 -0.121931 0.072414
v 0.006229 -0.133269 0.067656
v 0.063043 -0.074923 0.067656

vn 0.839916 0.021019 -0.542310
vn 0.754227 -0.019747 -0.656317
vn 0.839908 -0.021040 -0.542321
vn 0.754229 0.019755 -0.656315
vn 0.483350 0.430558 -0.762229
vn 0.547923 0.487835 -0.679557
vn -0.839919 -0.021021 -0.542305
vn -0.754233 -0.019756 -0.656309
vn -0.754232 0.019746 -0.656312
vn -0.839911 0.021036 -0.542317
vn -0.547931 0.487822 -0.679560
vn -0.483346 0.430562 -0.762229
vn 0.547930 -0.487823 -0.679560
vn 0.414189 -0.464309 -0.782857
vn 0.472861 -0.528484 -0.705058
vn 0.483348 -0.430562 -0.762228
vn 0.754227 -0.019747 -0.656317
vn 0.839908 -0.021040 -0.542321
vn 0.414187 0.464305 0.782861
vn 0.547929 0.487821 0.679562
vn 0.483344 0.430560 0.762232
vn 0.472863 0.528482 0.705059
vn -0.472847 0.528481 0.705070
vn -0.414188 0.464310 0.782856
vn 0.000004 0.024577 0.999698
vn -0.042926 0.011890 0.999008
vn -0.483353 0.430559 0.762226
vn -0.000007 -0.024579 0.999698
vn -0.042929 -0.011883 0.999008
vn -0.483350 -0.430564 0.762225
vn -0.414192 -0.464310 0.782854
vn 0.414188 -0.464312 0.782856
vn 0.472844 -0.528486 0.705069
vn -0.472871 -0.528481 0.705054
vn 0.483352 -0.430561 0.762226
vn 0.472861 -0.528484 -0.705058
vn -0.472848 -0.528482 -0.705068
vn 0.547922 -0.487842 0.679553
vn 0.547930 -0.487823 -0.679560
vn 0.839908 -0.021040 -0.542321
vn 0.839917 -0.021020 0.542308
vn 0.414189 -0.464309 -0.782857
vn 0.754228 -0.019754 0.656315
vn 0.042923 -0.011892 0.999008
vn 0.042926 0.011881 0.999008
vn 0.754226 0.019745 0.656317
vn 0.839909 0.021036 0.542320
vn 0.483344 0.430560 0.762232
vn -0.414190 -0.464315 -0.782853
vn -0.483356 -0.430563 -0.762222
vn -0.547924 -0.487841 -0.679552
vn -0.839919 -0.021021 -0.542305
vn -0.754233 -0.019756 -0.656309
vn -0.000002 -0.024579 -0.999698
vn 0.483348 -0.430562 -0.762228
vn 0.042920 -0.011903 -0.999008
vn 0.754227 -0.019747 -0.656317
vn -0.042923 -0.011900 -0.999008
vn 0.000000 0.024577 -0.999698
vn 0.042920 0.011898 -0.999008
vn 0.414186 0.464308 -0.782859
vn 0.483350 0.430558 -0.762229
vn -0.000002 -0.024579 -0.999698
vn 0.042920 -0.011903 -0.999008
vn 0.000000 0.024577 -0.999698
vn -0.042923 -0.011900 -0.999008
vn -0.414190 -0.464315 -0.782853
vn -0.483356 -0.430563 -0.762222
vn -0.754233 -0.019756 -0.656309
vn -0.042921 0.011903 -0.999008
vn -0.483346 0.430562 -0.762229
vn -0.414178 0.464340 -0.782844
vn 0.414186 0.464308 -0.782859
vn 0.472843 0.528483 -0.705071
vn -0.472870 0.528478 -0.705056
vn 0.483350 0.430558 -0.762229
vn 0.547923 0.487835 -0.679557
vn 0.472863 0.528482 0.705059
vn 0.547929 0.487821 0.679562
vn 0.839909 0.021036 0.542320
vn 0.839916 0.021019 -0.542310
vn 0.839908 -0.021040 -0.542321
vn 0.839917 -0.021020 0.542308
vn 0.754226 0.019745 0.656317
vn 0.483344 0.430560 0.762232
vn 0.042920 0.011898 -0.999008
vn 0.754229 0.019755 -0.656315
vn 0.042920 -0.011903 -0.999008
vn 0.754227 -0.019747 -0.656317
vn 0.472863 0.528482 0.705059
vn -0.472870 0.528478 -0.705056
vn -0.547926 0.487834 0.679555
vn -0.547931 0.487822 -0.679560
vn -0.414178 0.464340 -0.782844
vn -0.483346 0.430562 -0.762229
vn -0.839911 0.021036 -0.542317
vn -0.839918 0.021020 0.542307
vn -0.483353 0.430559 0.762226
vn -0.754234 0.019757 0.656309
vn -0.754232 -0.019747 0.656311
vn -0.839911 -0.021041 0.542317
vn -0.839919 -0.021021 -0.542305
vn -0.754232 0.019746 -0.656312
vn -0.042921 0.011903 -0.999008
vn -0.754233 -0.019756 -0.656309
vn -0.042923 -0.011900 -0.999008
vn -0.483353 0.430559 0.762226
vn -0.547926 0.487834 0.679555
vn -0.472847 0.528481 0.705070
vn -0.414188 0.464310 0.782856
vn -0.754234 0.019757 0.656309
vn -0.483353 0.430559 0.762226
vn -0.042926 0.011890 0.999008
vn -0.042929 -0.011883 0.999008
vn -0.754232 -0.019747 0.656311
vn -0.483350 -0.430564 0.762225
vn -0.547932 -0.487825 0.679557
vn -0.414192 -0.464310 0.782854
vn -0.839911 -0.021041 0.542317
vn -0.472871 -0.528481 0.705054
vn -0.547924 -0.487841 -0.679552
vn -0.839919 -0.021021 -0.542305
vn -0.472848 -0.528482 -0.705068
vn 0.483344 0.430560 0.762232
vn 0.000004 0.024577 0.999698
vn 0.414187 0.464305 0.782861
vn 0.042926 0.011881 0.999008
vn 0.042923 -0.011892 0.999008
vn -0.000007 -0.024579 0.999698
vn 0.414188 -0.464312 0.782856
vn 0.483352 -0.430561 0.762226

vt 0.263702 0.755557
vt 0.242974 0.798097
vt 0.238033 0.808238
vt 0.257378 0.768535
vt 0.258850 0.765515
vt 0.265353 0.752170
vt 0.238033 0.808238
vt 0.242974 0.798097
vt 0.257378 0.768535
vt 0.263702 0.755557
vt 0.265353 0.752170
vt 0.258850 0.765515
vt 0.236401 0.811587
vt 0.234716 0.815044
vt 0.223846 0.837353
vt 0.241480 0.801163
vt 0.242974 0.798097
vt 0.238033 0.808238
vt 0.267145 0.748491
vt 0.265461 0.751947
vt 0.260381 0.762372
vt 0.278015 0.726182
vt 0.278015 0.726182
vt 0.267145 0.748491
vt 0.265885 0.751078
vt 0.259073 0.765057
vt 0.260381 0.762372
vt 0.237616 0.809093
vt 0.244428 0.795113
vt 0.243011 0.798021
vt 0.236247 0.811902
vt 0.236247 0.811902
vt 0.223955 0.837130
vt 0.223955 0.837130
vt 0.243011 0.798021
vt 0.223846 0.837353
vt 0.223846 0.837353
vt 0.236509 0.811365
vt 0.236401 0.811587
vt 0.238033 0.808238
vt 0.238160 0.807977
vt 0.234716 0.815044
vt 0.244485 0.794996
vt 0.244428 0.795113
vt 0.259073 0.765057
vt 0.258889 0.765435
vt 0.263829 0.755297
vt 0.260381 0.762372
vt 0.234716 0.815044
vt 0.241480 0.801163
vt 0.236401 0.811587
vt 0.238033 0.808238
vt 0.242974 0.798097
vt 0.235978 0.812454
vt 0.241480 0.801163
vt 0.242790 0.798475
vt 0.242974 0.798097
vt 0.242790 0.798475
vt 0.264247 0.754439
vt 0.257435 0.768419
vt 0.265614 0.751634
vt 0.258850 0.765515
vt 0.235978 0.812454
vt 0.242790 0.798475
vt 0.264247 0.754439
vt 0.242790 0.798475
vt 0.234716 0.815044
vt 0.241480 0.801163
vt 0.242974 0.798097
vt 0.257435 0.768419
vt 0.258850 0.765515
vt 0.265614 0.751634
vt 0.265614 0.751634
vt 0.277907 0.726405
vt 0.277907 0.726405
vt 0.258850 0.765515
vt 0.265353 0.752170
vt 0.278015 0.726182
vt 0.265461 0.751947
vt 0.263829 0.755297
vt 0.263702 0.755557
vt 0.238033 0.808238
vt 0.238160 0.807977
vt 0.258889 0.765435
vt 0.260381 0.762372
vt 0.257435 0.768419
vt 0.257378 0.768535
vt 0.242790 0.798475
vt 0.242974 0.798097
vt 0.278015 0.726182
vt 0.277907 0.726405
vt 0.265461 0.751947
vt 0.265353 0.752170
vt 0.265614 0.751634
vt 0.258850 0.765515
vt 0.263702 0.755557
vt 0.263829 0.755297
vt 0.260381 0.762372
vt 0.258889 0.765435
vt 0.244485 0.794996
vt 0.238160 0.807977
vt 0.238033 0.808238
vt 0.257378 0.768535
vt 0.257435 0.768419
vt 0.242974 0.798097
vt 0.242790 0.798475
vt 0.260381 0.762372
vt 0.265461 0.751947
vt 0.278015 0.726182
vt 0.267145 0.748491
vt 0.258889 0.765435
vt 0.260381 0.762372
vt 0.259073 0.765057
vt 0.244428 0.795113
vt 0.244485 0.794996
vt 0.243011 0.798021
vt 0.236509 0.811365
vt 0.236247 0.811902
vt 0.238160 0.807977
vt 0.223955 0.837130
vt 0.236401 0.811587
vt 0.238033 0.808238
vt 0.223846 0.837353
vt 0.260381 0.762372
vt 0.265885 0.751078
vt 0.267145 0.748491
vt 0.259073 0.765057
vt 0.244428 0.795113
vt 0.237616 0.809093
vt 0.236247 0.811902
vt 0.243011 0.798021

f 1/1/1 3/3/3 2/2/2
f 1/1/1 2/2/2 4/4/4
f 1/1/1 4/4/4 5/5/5
f 1/1/1 5/5/5 6/6/6
f 7/7/7 9/9/9 8/8/8
f 7/7/7 10/10/10 9/9/9
f 11/11/11 9/9/9 10/10/10
f 11/11/11 12/12/12 9/9/9
f 13/13/13 15/15/15 14/14/14
f 13/13/13 14/14/14 16/16/16
f 17/17/17 13/13/13 16/16/16
f 17/17/17 18/18/18 13/13/13
f 19/19/19 21/21/21 20/20/20
f 19/19/19 20/20/20 22/22/22
f 23/23/23 19/19/19 22/22/22
f 23/23/23 24/24/24 19/19/19
f 19/19/19 24/24/24 25/25/25
f 24/24/24 26/26/26 25/25/25
f 24/24/24 27/27/27 26/26/26
f 26/26/26 28/28/28 25/25/25
f 28/28/28 26/26/26 29/29/29
f 30/30/30 28/28/28 29/29/29
f 30/30/30 31/31/31 28/28/28
f 32/32/32 28/28/28 31/31/31
f 31/31/31 33/33/33 32/32/32
f 31/31/31 34/34/34 33/33/33
f 35/35/35 32/32/32 33/33/33
f 36/36/36 33/33/33 34/34/34
f 36/36/36 34/34/34 37/37/37
f 36/36/36 38/38/38 33/33/33
f 35/35/35 33/33/33 38/38/38
f 36/36/36 39/39/39 38/38/38
f 38/38/38 39/39/39 40/40/40
f 38/38/38 40/40/40 41/41/41
f 41/41/41 35/35/35 38/38/38
f 37/37/37 42/42/42 36/36/36
f 41/41/41 43/43/43 35/35/35
f 43/43/43 44/44/44 35/35/35
f 43/43/43 45/45/45 44/44/44
f 46/46/46 43/43/43 41/41/41
f 43/43/43 46/46/46 45/45/45
f 46/46/46 41/41/41 47/47/47
f 48/48/48 45/45/45 46/46/46
f 37/37/37 49/49/49 42/42/42
f 37/37/37 50/50/50 49/49/49
f 37/37/37 51/51/51 50/50/50
f 50/50/50 51/51/51 52/52/52
f 50/50/50 52/52/52 53/53/53
f 42/42/42 49/49/49 54/54/54
f 54/54/54 55/55/55 42/42/42
f 54/54/54 56/56/56 55/55/55
f 57/57/57 55/55/55 56/56/56
f 58/58/58 59/59/59 54/54/54
f 56/56/56 59/59/59 60/60/60
f 60/60/60 59/59/59 61/61/61
f 60/60/60 61/61/61 62/62/62
f 63/63/63 65/65/65 64/64/64
f 66/66/66 63/63/63 67/67/67
f 66/66/66 67/67/67 68/68/68
f 68/68/68 69/69/69 66/66/66
f 65/65/65 66/66/66 70/70/70
f 65/65/65 70/70/70 71/71/71
f 65/65/65 71/71/71 72/72/72
f 73/73/73 65/65/65 72/72/72
f 72/72/72 74/74/74 73/73/73
f 72/72/72 75/75/75 74/74/74
f 74/74/74 76/76/76 73/73/73
f 74/74/74 77/77/77 76/76/76
f 77/77/77 74/74/74 78/78/78
f 77/77/77 78/78/78 79/79/79
f 77/77/77 79/79/79 80/80/80
f 77/77/77 80/80/80 81/81/81
f 82/82/82 81/81/81 80/80/80
f 82/82/82 80/80/80 83/83/83
f 84/84/84 80/80/80 79/79/79
f 84/84/84 79/79/79 85/85/85
f 76/76/76 87/87/87 86/86/86
f 88/88/88 86/86/86 87/87/87
f 88/88/88 87/87/87 89/89/89
f 90/90/90 74/74/74 91/91/91
f 90/90/90 91/91/91 23/23/23
f 91/91/91 92/92/92 23/23/23
f 91/91/91 93/93/93 92/92/92
f 93/93/93 91/91/91 94/94/94
f 93/93/93 94/94/94 95/95/95
f 96/96/96 92/92/92 93/93/93
f 96/96/96 97/97/97 92/92/92
f 98/98/98 92/92/92 97/97/97
f 98/98/98 97/97/97 99/99/99
f 100/100/100 99/99/99 97/97/97
f 100/100/100 97/97/97 101/101/101
f 96/96/96 101/101/101 97/97/97
f 96/96/96 102/102/102 101/101/101
f 103/103/103 95/95/95 104/104/104
f 104/104/104 105/105/105 103/103/103
f 104/104/104 106/106/106 105/105/105
f 107/107/107 109/109/109 108/108/108
f 107/107/107 110/110/110 109/109/109
f 111/111/111 113/113/113 112/112/112
f 111/111/111 114/114/114 113/113/113
f 111/111/111 115/115/115 114/114/114
f 116/116/116 114/114/114 115/115/115
f 117/117/117 116/116/116 115/115/115
f 118/118/118 116/116/116 117/117/117
f 117/117/117 115/115/115 119/119/119
f 118/118/118 117/117/117 120/120/120
f 119/119/119 121/121/121 117/117/117
f 121/121/121 120/120/120 117/117/117
f 119/119/119 122/122/122 121/121/121
f 121/121/121 123/123/123 120/120/120
f 124/124/124 126/126/126 125/125/125
f 124/124/124 125/125/125 127/127/127
f 125/125/125 128/128/128 127/127/127
f 125/125/125 129/129/129 128/128/128
f 130/130/130 128/128/128 129/129/129
f 130/130/130 131/131/131 128/128/128
