# Gem_005
# Exported by MapExporter (Unity -> DirectX12)
# Vertices: 75  Triangles: 76

v 0.163368 -0.008181 -0.007878
v 0.008181 -0.101745 -0.065175
v 0.008181 -0.163368 -0.007878
v 0.101744 -0.008182 -0.065175
v 0.101744 0.008181 -0.065175
v 0.163368 0.008181 -0.007878
v 0.008181 0.163368 -0.007878
v 0.008181 0.101744 -0.065175
v -0.008181 0.101744 -0.065175
v 0.000000 0.087454 -0.073053
v -0.101745 0.008181 -0.065175
v -0.087455 0.000000 -0.073053
v 0.087455 0.000000 -0.073053
v -0.008181 0.163368 -0.007878
v 0.000000 -0.087455 -0.073053
v 0.101744 -0.008182 -0.065175
v 0.101744 0.008181 -0.065175
v 0.008181 -0.101745 -0.065175
v -0.008181 -0.101745 -0.065175
v -0.008181 -0.163368 -0.007878
v 0.008181 -0.163368 -0.007878
v -0.101745 -0.008182 -0.065175
v 0.008181 0.163368 0.007878
v 0.163368 0.008181 0.007878
v 0.163368 -0.008181 -0.007878
v 0.163368 -0.008181 0.007878
v -0.008181 0.163368 0.007878
v 0.008181 0.101744 0.065175
v 0.101744 -0.008182 0.065175
v 0.101744 0.008181 0.065175
v 0.008181 -0.101745 0.065175
v 0.008181 -0.163368 0.007878
v -0.163368 0.008181 0.007878
v -0.163368 0.008181 -0.007878
v -0.008181 0.101744 0.065175
v 0.000000 0.087454 0.073053
v 0.087455 0.000000 0.073053
v -0.101745 0.008181 0.065175
v -0.163368 -0.008181 0.007878
v -0.101745 -0.008182 0.065175
v -0.008181 -0.163368 0.007878
v -0.008181 -0.101745 0.065175
v -0.163368 -0.008181 0.007878
v -0.163368 -0.008181 -0.007878
v -0.008181 -0.163368 0.007878
v -0.101745 0.008181 -0.065175
v -0.008181 -0.101745 0.065175
v 0.000000 -0.087455 0.073053
v -0.101745 -0.008182 0.065175
v -0.087455 0.000000 0.073053
v -0.101745 0.008181 0.065175
v -0.163368 0.008181 -0.007878
v -0.008181 0.101744 -0.065175
v -0.008181 0.163368 -0.007878
v -0.101745 -0.008182 -0.065175
v -0.087455 0.000000 -0.073053
v -0.101745 0.008181 -0.065175
v -0.008181 -0.101745 -0.065175
v 0.000000 -0.087455 -0.073053
v 0.101744 0.008181 0.065175
v 0.101744 -0.008182 0.065175
v 0.087455 0.000000 0.073053
v 0.008181 -0.101745 0.065175
v 0.000000 -0.087455 0.073053
v -0.087455 0.000000 0.073053
v 0.000000 0.087454 0.073053
v -0.008181 0.101744 0.065175
v -0.101745 0.008181 0.065175
v 0.008181 0.101744 -0.065175
v 0.000000 0.087454 -0.073053
v 0.087455 0.000000 -0.073053
v 0.101744 0.008181 -0.065175
v 0.008181 0.163368 0.007878
v 0.163368 0.008181 0.007878
v 0.008181 0.101744 0.065175

vn 0.640286 -0.569244 -0.515747
vn 0.489235 -0.551763 -0.675430
vn 0.569225 -0.640286 -0.515768
vn 0.551747 -0.489241 -0.675440
vn 0.551761 0.489234 -0.675433
vn 0.640285 0.569225 -0.515770
vn 0.569200 0.640282 -0.515801
vn 0.489239 0.551745 -0.675443
vn -0.489235 0.551761 -0.675432
vn 0.000017 0.076275 -0.997087
vn -0.551746 0.489240 -0.675441
vn -0.076276 0.000017 -0.997087
vn 0.076276 -0.000018 -0.997087
vn -0.569227 0.640284 -0.515768
vn -0.000018 -0.076277 -0.997087
vn 0.551747 -0.489241 -0.675440
vn 0.551761 0.489234 -0.675433
vn 0.489235 -0.551763 -0.675430
vn -0.489242 -0.551748 -0.675438
vn -0.569244 -0.640288 -0.515745
vn 0.569225 -0.640286 -0.515768
vn -0.551763 -0.489237 -0.675429
vn 0.569222 0.640284 0.515773
vn 0.640284 0.569216 0.515780
vn 0.640286 -0.569244 -0.515747
vn 0.640285 -0.569228 0.515767
vn -0.569243 0.640286 0.515747
vn 0.489234 0.551762 0.675432
vn 0.551762 -0.489237 0.675431
vn 0.551732 0.489243 0.675450
vn 0.489240 -0.551747 0.675440
vn 0.569243 -0.640288 0.515746
vn -0.640286 0.569224 0.515769
vn -0.640288 0.569243 -0.515746
vn -0.489240 0.551746 0.675441
vn -0.000018 0.076275 0.997087
vn 0.076276 0.000016 0.997087
vn -0.551763 0.489234 0.675432
vn -0.640287 -0.569244 0.515746
vn -0.551748 -0.489242 0.675438
vn -0.569227 -0.640286 0.515767
vn -0.489237 -0.551764 0.675429
vn -0.640287 -0.569244 0.515746
vn -0.640285 -0.569228 -0.515766
vn -0.569227 -0.640286 0.515767
vn -0.551746 0.489240 -0.675441
vn -0.489237 -0.551764 0.675429
vn 0.000017 -0.076277 0.997087
vn -0.551748 -0.489242 0.675438
vn -0.076276 -0.000018 0.997087
vn -0.551763 0.489234 0.675432
vn -0.640288 0.569243 -0.515746
vn -0.489235 0.551761 -0.675432
vn -0.569227 0.640284 -0.515768
vn -0.551763 -0.489237 -0.675429
vn -0.076276 0.000017 -0.997087
vn -0.551746 0.489240 -0.675441
vn -0.489242 -0.551748 -0.675438
vn -0.000018 -0.076277 -0.997087
vn 0.551732 0.489243 0.675450
vn 0.551762 -0.489237 0.675431
vn 0.076276 0.000016 0.997087
vn 0.489240 -0.551747 0.675440
vn 0.000017 -0.076277 0.997087
vn -0.076276 -0.000018 0.997087
vn -0.000018 0.076275 0.997087
vn -0.489240 0.551746 0.675441
vn -0.551763 0.489234 0.675432
vn 0.489239 0.551745 -0.675443
vn 0.000017 0.076275 -0.997087
vn 0.076276 -0.000018 -0.997087
vn 0.551761 0.489234 -0.675433
vn 0.569222 0.640284 0.515773
vn 0.640284 0.569216 0.515780
vn 0.489234 0.551762 0.675432

vt 0.082736 0.706901
vt 0.074365 0.736413
vt 0.068852 0.755850
vt 0.082736 0.706901
vt 0.084200 0.701740
vt 0.084200 0.701740
vt 0.098084 0.652790
vt 0.092571 0.672228
vt 0.092571 0.672228
vt 0.091292 0.676735
vt 0.084200 0.701740
vt 0.083468 0.704320
vt 0.083468 0.704320
vt 0.098084 0.652790
vt 0.075644 0.731905
vt 0.082736 0.706901
vt 0.084200 0.701740
vt 0.074365 0.736413
vt 0.074365 0.736413
vt 0.068852 0.755850
vt 0.068852 0.755850
vt 0.082736 0.706901
vt 0.098084 0.652790
vt 0.084200 0.701740
vt 0.082736 0.706901
vt 0.082736 0.706901
vt 0.098084 0.652790
vt 0.092571 0.672228
vt 0.082736 0.706901
vt 0.084200 0.701740
vt 0.074365 0.736413
vt 0.068852 0.755850
vt 0.084200 0.701740
vt 0.084200 0.701740
vt 0.092571 0.672228
vt 0.091292 0.676735
vt 0.083468 0.704320
vt 0.084200 0.701740
vt 0.082736 0.706901
vt 0.082736 0.706901
vt 0.068852 0.755850
vt 0.074365 0.736413
vt 0.082736 0.706901
vt 0.082736 0.706901
vt 0.068852 0.755850
vt 0.084200 0.701740
vt 0.074365 0.736413
vt 0.075644 0.731905
vt 0.082736 0.706901
vt 0.083468 0.704320
vt 0.084200 0.701740
vt 0.084200 0.701740
vt 0.092571 0.672228
vt 0.098084 0.652790
vt 0.082736 0.706901
vt 0.083468 0.704320
vt 0.084200 0.701740
vt 0.074365 0.736413
vt 0.075644 0.731905
vt 0.084200 0.701740
vt 0.082736 0.706901
vt 0.083468 0.704320
vt 0.074365 0.736413
vt 0.075644 0.731905
vt 0.083468 0.704320
vt 0.091292 0.676735
vt 0.092571 0.672228
vt 0.084200 0.701740
vt 0.092571 0.672228
vt 0.091292 0.676735
vt 0.083468 0.704320
vt 0.084200 0.701740
vt 0.098084 0.652790
vt 0.084200 0.701740
vt 0.092571 0.672228

f 1/1/1 3/3/3 2/2/2
f 1/1/1 2/2/2 4/4/4
f 1/1/1 4/4/4 5/5/5
f 1/1/1 5/5/5 6/6/6
f 7/7/7 6/6/6 5/5/5
f 7/7/7 5/5/5 8/8/8
f 9/9/9 7/7/7 8/8/8
f 8/8/8 10/10/10 9/9/9
f 11/11/11 9/9/9 10/10/10
f 11/11/11 10/10/10 12/12/12
f 13/13/13 12/12/12 10/10/10
f 9/9/9 14/14/14 7/7/7
f 13/13/13 15/15/15 12/12/12
f 16/16/16 15/15/15 13/13/13
f 17/17/17 16/16/16 13/13/13
f 16/16/16 18/18/18 15/15/15
f 18/18/18 19/19/19 15/15/15
f 18/18/18 20/20/20 19/19/19
f 18/18/18 21/21/21 20/20/20
f 20/20/20 22/22/22 19/19/19
f 23/23/23 7/7/7 14/14/14
f 23/23/23 6/6/6 7/7/7
f 23/23/23 24/24/24 6/6/6
f 24/24/24 25/25/25 6/6/6
f 26/26/26 21/21/21 25/25/25
f 24/24/24 26/26/26 25/25/25
f 23/23/23 14/14/14 27/27/27
f 28/28/28 23/23/23 27/27/27
f 24/24/24 29/29/29 26/26/26
f 24/24/24 30/30/30 29/29/29
f 26/26/26 29/29/29 31/31/31
f 26/26/26 32/32/32 21/21/21
f 26/26/26 31/31/31 32/32/32
f 32/32/32 20/20/20 21/21/21
f 33/33/33 27/27/27 14/14/14
f 33/33/33 14/14/14 34/34/34
f 28/28/28 27/27/27 35/35/35
f 33/33/33 35/35/35 27/27/27
f 28/28/28 35/35/35 36/36/36
f 36/36/36 30/30/30 28/28/28
f 36/36/36 37/37/37 30/30/30
f 33/33/33 38/38/38 35/35/35
f 39/39/39 38/38/38 33/33/33
f 39/39/39 40/40/40 38/38/38
f 41/41/41 40/40/40 39/39/39
f 41/41/41 42/42/42 40/40/40
f 43/43/43 33/33/33 34/34/34
f 43/43/43 34/34/34 44/44/44
f 45/45/45 43/43/43 44/44/44
f 34/34/34 22/22/22 44/44/44
f 34/34/34 46/46/46 22/22/22
f 20/20/20 44/44/44 22/22/22
f 45/45/45 44/44/44 20/20/20
f 32/32/32 45/45/45 20/20/20
f 47/47/47 45/45/45 32/32/32
f 47/47/47 32/32/32 31/31/31
f 31/31/31 48/48/48 47/47/47
f 48/48/48 49/49/49 47/47/47
f 48/48/48 50/50/50 49/49/49
f 49/49/49 50/50/50 51/51/51
f 52/52/52 53/53/53 46/46/46
f 52/52/52 54/54/54 53/53/53
f 55/55/55 57/57/57 56/56/56
f 58/58/58 55/55/55 56/56/56
f 58/58/58 56/56/56 59/59/59
f 60/60/60 62/62/62 61/61/61
f 62/62/62 63/63/63 61/61/61
f 62/62/62 64/64/64 63/63/63
f 62/62/62 65/65/65 64/64/64
f 62/62/62 66/66/66 65/65/65
f 65/65/65 66/66/66 67/67/67
f 65/65/65 67/67/67 68/68/68
f 69/69/69 71/71/71 70/70/70
f 69/69/69 72/72/72 71/71/71
f 73/73/73 30/30/30 74/74/74
f 73/73/73 75/75/75 30/30/30
