# LavaMaze_GridTile_02
# Exported by MapExporter (Unity -> DirectX12)
# Vertices: 35  Triangles: 48

v 1.000000 0.000000 0.500000
v 1.000000 0.000000 1.000000
v 0.937500 -0.037500 1.000000
v 0.894494 -0.000794 0.500000
v 1.000000 0.000000 0.000000
v 0.468750 -0.318750 1.000000
v 0.933560 -0.000794 0.000000
v 1.000000 0.000000 -0.500000
v 0.468750 -0.370740 0.500000
v 0.000000 -0.600000 1.000000
v 0.921313 0.001877 -0.500000
v 1.000000 0.000000 -1.000000
v 0.937500 -0.037500 -1.000000
v 0.468750 -0.318750 0.000000
v -0.069440 -0.578338 0.542784
v -0.468750 -0.881250 1.000000
v 0.408991 -0.258095 -0.500000
v 0.468750 -0.318750 -1.000000
v 0.000000 -0.600000 0.000000
v -0.468750 -0.881250 0.500000
v -0.918100 -1.182448 1.000000
v 0.000000 -0.600000 -0.500000
v 0.000000 -0.600000 -1.000000
v -0.873087 -1.159159 0.500000
v -1.000000 -1.200000 1.000000
v -1.000000 -1.200000 0.500000
v -0.519906 -0.842258 0.000000
v -0.468750 -0.814179 -0.500000
v -0.468750 -0.881250 -1.000000
v -0.873087 -1.167893 0.000000
v -1.000000 -1.200000 0.000000
v -0.918100 -1.170804 -0.500000
v -0.918100 -1.182448 -1.000000
v -1.000000 -1.200000 -0.500000
v -1.000000 -1.200000 -1.000000

vn -0.116319 0.992955 0.022605
vn -0.222004 0.973993 0.045299
vn -0.409500 0.911813 0.030114
vn -0.381245 0.924272 0.019349
vn -0.000884 0.999999 0.001109
vn -0.517177 0.855839 0.008261
vn -0.284404 0.958286 0.028321
vn -0.119477 0.992637 -0.019928
vn -0.517938 0.855387 0.007294
vn -0.495337 0.868202 0.029445
vn -0.316332 0.948478 -0.017975
vn -0.244426 0.968754 -0.042103
vn -0.366137 0.926780 -0.083797
vn -0.536227 0.842735 0.047519
vn -0.490691 0.871145 0.018129
vn -0.560651 0.827623 0.026660
vn -0.539056 0.842232 -0.007996
vn -0.527820 0.842937 -0.104224
vn -0.486323 0.873489 0.022523
vn -0.562899 0.826067 0.027529
vn -0.411489 0.911411 0.002703
vn -0.512569 0.858534 -0.013855
vn -0.522795 0.849443 -0.071635
vn -0.444696 0.895589 0.012879
vn -0.269295 0.963003 0.010305
vn -0.272763 0.962081 0.000956
vn -0.558036 0.829561 0.020600
vn -0.528563 0.848497 -0.025972
vn -0.532126 0.844425 -0.061550
vn -0.470941 0.881973 0.018403
vn -0.278954 0.960304 0.000747
vn -0.452942 0.891449 -0.012757
vn -0.438021 0.898172 -0.037745
vn -0.278070 0.960561 -0.000655
vn -0.274425 0.961543 -0.011196

vt 0.000100 0.250050
vt 0.000100 0.000100
vt 0.031344 0.000100
vt 0.031344 0.250050
vt 0.000100 0.500000
vt 0.265672 0.000100
vt 0.031344 0.500000
vt 0.000100 0.749950
vt 0.265672 0.250050
vt 0.500000 0.000100
vt 0.031344 0.749950
vt 0.000100 0.999900
vt 0.031344 0.999900
vt 0.265672 0.500000
vt 0.500000 0.250050
vt 0.734328 0.000100
vt 0.265672 0.749950
vt 0.265672 0.999900
vt 0.500000 0.500000
vt 0.734328 0.250050
vt 0.968656 0.000100
vt 0.500000 0.749950
vt 0.500000 0.999900
vt 0.968656 0.250050
vt 0.999900 0.000100
vt 0.999900 0.250050
vt 0.734328 0.500000
vt 0.734328 0.749950
vt 0.734328 0.999900
vt 0.968656 0.500000
vt 0.999900 0.500000
vt 0.968656 0.749950
vt 0.968656 0.999900
vt 0.999900 0.749950
vt 0.999900 0.999900

f 1/1/1 3/3/3 2/2/2
f 1/1/1 4/4/4 3/3/3
f 5/5/5 4/4/4 1/1/1
f 4/4/4 6/6/6 3/3/3
f 5/5/5 7/7/7 4/4/4
f 8/8/8 7/7/7 5/5/5
f 4/4/4 9/9/9 6/6/6
f 7/7/7 9/9/9 4/4/4
f 9/9/9 10/10/10 6/6/6
f 8/8/8 11/11/11 7/7/7
f 12/12/12 11/11/11 8/8/8
f 12/12/12 13/13/13 11/11/11
f 7/7/7 14/14/14 9/9/9
f 11/11/11 14/14/14 7/7/7
f 9/9/9 15/15/15 10/10/10
f 14/14/14 15/15/15 9/9/9
f 15/15/15 16/16/16 10/10/10
f 13/13/13 17/17/17 11/11/11
f 11/11/11 17/17/17 14/14/14
f 13/13/13 18/18/18 17/17/17
f 14/14/14 19/19/19 15/15/15
f 17/17/17 19/19/19 14/14/14
f 15/15/15 20/20/20 16/16/16
f 19/19/19 20/20/20 15/15/15
f 20/20/20 21/21/21 16/16/16
f 18/18/18 22/22/22 17/17/17
f 17/17/17 22/22/22 19/19/19
f 18/18/18 23/23/23 22/22/22
f 20/20/20 24/24/24 21/21/21
f 24/24/24 25/25/25 21/21/21
f 24/24/24 26/26/26 25/25/25
f 19/19/19 27/27/27 20/20/20
f 22/22/22 27/27/27 19/19/19
f 27/27/27 24/24/24 20/20/20
f 23/23/23 28/28/28 22/22/22
f 22/22/22 28/28/28 27/27/27
f 23/23/23 29/29/29 28/28/28
f 30/30/30 26/26/26 24/24/24
f 27/27/27 30/30/30 24/24/24
f 28/28/28 30/30/30 27/27/27
f 30/30/30 31/31/31 26/26/26
f 29/29/29 32/32/32 28/28/28
f 28/28/28 32/32/32 30/30/30
f 32/32/32 31/31/31 30/30/30
f 29/29/29 33/33/33 32/32/32
f 32/32/32 34/34/34 31/31/31
f 33/33/33 34/34/34 32/32/32
f 33/33/33 35/35/35 34/34/34
