# lava_plane_02
# Exported by MapExporter (Unity -> DirectX12)
# Vertices: 6  Triangles: 4

v 0.615617 0.000000 1.000000
v -0.426132 0.000000 1.000000
v -1.000000 0.000000 0.333333
v 0.615617 0.000000 -1.000000
v -1.000000 0.000000 -0.333333
v -0.426132 0.000000 -1.000000

vn 0.000000 1.000000 0.000000
vn 0.000000 1.000000 0.000000
vn 0.000000 1.000000 0.000000
vn 0.000000 1.000000 0.000000
vn 0.000000 1.000000 0.000000
vn 0.000000 1.000000 0.000000

vt 0.999910 0.192247
vt 0.999910 0.713028
vt 0.666637 0.999910
vt 0.000090 0.192247
vt 0.333363 0.999910
vt 0.000090 0.713028

f 1/1/1 3/3/3 2/2/2
f 4/4/4 3/3/3 1/1/1
f 4/4/4 5/5/5 3/3/3
f 4/4/4 6/6/6 5/5/5
