# lm_rock_06
# Exported by MapExporter (Unity -> DirectX12)
# Vertices: 63  Triangles: 52

v -0.393571 0.334792 0.010507
v -0.481512 0.001007 0.352260
v -0.429486 0.001007 -0.075629
v -0.371732 0.246197 0.297428
v -0.217898 0.718018 0.244442
v -0.277513 0.734944 0.039897
v -0.094837 1.232783 0.209306
v -0.173033 1.226159 -0.009132
v -0.116688 0.191994 0.469488
v 0.289878 0.001007 0.306728
v -0.086954 0.001007 0.545108
v 0.164840 0.268498 0.326897
v 0.406019 0.105158 0.027955
v 0.452425 0.001007 0.001456
v 0.283029 0.563211 -0.032214
v 0.158369 0.727651 0.180407
v -0.014321 0.702431 0.330993
v 0.156785 1.276754 0.143450
v 0.049575 1.221726 0.270703
v -0.371732 0.246197 0.297428
v -0.086954 0.001007 0.545108
v -0.481512 0.001007 0.352260
v -0.116688 0.191994 0.469488
v -0.014321 0.702431 0.330993
v -0.217898 0.718018 0.244442
v 0.049575 1.221726 0.270703
v -0.094837 1.232783 0.209306
v -0.393571 0.334792 0.010507
v -0.429486 0.001007 -0.075629
v -0.185917 -0.012341 -0.396467
v -0.126004 0.251803 -0.133365
v 0.074160 0.006763 -0.450186
v -0.277513 0.734944 0.039897
v 0.060437 0.187631 -0.320933
v -0.112381 0.649835 -0.084462
v -0.010365 0.572498 -0.229139
v -0.173033 1.226159 -0.009132
v -0.035191 1.013776 -0.030619
v 0.060437 0.187631 -0.320933
v 0.074160 0.006763 -0.450186
v 0.367404 0.000544 -0.283270
v 0.353681 0.181411 -0.154016
v -0.010365 0.572498 -0.229139
v 0.218233 0.588581 -0.159315
v 0.406019 0.105158 0.027955
v 0.452425 0.001007 0.001456
v 0.283029 0.563211 -0.032214
v 0.115850 0.774966 -0.034676
v 0.158369 0.727651 0.180407
v 0.080109 1.088458 0.002379
v 0.156785 1.276754 0.143450
v -0.112381 0.649835 -0.084462
v -0.010365 0.572498 -0.229139
v 0.218233 0.588581 -0.159315
v 0.115850 0.774966 -0.034676
v -0.035191 1.013776 -0.030619
v 0.080109 1.088458 0.002379
v -0.173033 1.226159 -0.009132
v 0.156785 1.276754 0.143450
v -0.173033 1.226159 -0.009132
v 0.156785 1.276754 0.143450
v 0.049575 1.221726 0.270703
v -0.094837 1.232783 0.209306

vn -0.868019 0.337906 -0.363816
vn -0.817573 0.331551 0.470795
vn -0.796299 0.420975 -0.434382
vn -0.792394 0.322555 0.517754
vn -0.731327 0.267499 0.627379
vn -0.885447 0.252087 -0.390429
vn -0.539634 0.658047 0.525138
vn -0.595527 0.642375 -0.482392
vn -0.030030 0.311567 0.949750
vn 0.707868 0.308034 0.635640
vn 0.051154 0.326733 0.943731
vn 0.655034 0.248579 0.713540
vn 0.935402 0.313184 0.164131
vn 0.938736 0.338353 0.065513
vn 0.920870 0.387173 0.045780
vn 0.880822 0.227370 0.415278
vn 0.113775 0.200175 0.973132
vn 0.687780 0.725838 0.010865
vn 0.155983 0.547389 0.822213
vn -0.792394 0.322555 0.517754
vn 0.051154 0.326733 0.943731
vn -0.817573 0.331551 0.470795
vn -0.030030 0.311567 0.949750
vn 0.113775 0.200175 0.973132
vn -0.731327 0.267499 0.627379
vn 0.155983 0.547389 0.822213
vn -0.539634 0.658047 0.525138
vn -0.868019 0.337906 -0.363816
vn -0.796299 0.420975 -0.434382
vn -0.407687 0.586269 -0.700057
vn -0.570805 0.329946 -0.751876
vn 0.045708 0.644789 -0.762993
vn -0.885447 0.252087 -0.390429
vn -0.010834 0.492309 -0.870353
vn -0.346543 0.265118 -0.899789
vn -0.239701 0.373225 -0.896240
vn -0.595527 0.642375 -0.482392
vn -0.039095 0.129584 -0.990798
vn -0.010834 0.492309 -0.870353
vn 0.045708 0.644789 -0.762993
vn 0.644579 0.497438 -0.580580
vn 0.780718 0.352378 -0.516053
vn -0.239701 0.373225 -0.896240
vn 0.596132 0.509274 -0.620699
vn 0.935402 0.313184 0.164131
vn 0.938736 0.338353 0.065513
vn 0.920870 0.387173 0.045780
vn 0.591727 0.442796 -0.673640
vn 0.880822 0.227370 0.415278
vn 0.585573 0.220867 -0.779950
vn 0.687780 0.725838 0.010865
vn -0.346543 0.265118 -0.899789
vn -0.239701 0.373225 -0.896240
vn 0.596132 0.509274 -0.620699
vn 0.591727 0.442796 -0.673640
vn -0.039095 0.129584 -0.990798
vn 0.585573 0.220867 -0.779950
vn -0.595527 0.642375 -0.482392
vn 0.687780 0.725838 0.010865
vn -0.595527 0.642375 -0.482392
vn 0.687780 0.725838 0.010865
vn 0.155983 0.547389 0.822213
vn -0.539634 0.658047 0.525138

vt 0.185482 0.060851
vt 0.241591 0.012948
vt 0.234433 0.077256
vt 0.200827 0.018634
vt 0.125700 0.020760
vt 0.122800 0.053227
vt 0.046544 0.016761
vt 0.046036 0.050831
vt 0.076444 0.301582
vt 0.145622 0.321141
vt 0.080594 0.332095
vt 0.122060 0.283538
vt 0.183860 0.293333
vt 0.194759 0.306800
vt 0.164385 0.225250
vt 0.122846 0.211031
vt 0.089084 0.219770
vt 0.117542 0.129129
vt 0.093820 0.140101
vt 0.032398 0.286839
vt 0.080594 0.332095
vt 0.016927 0.323563
vt 0.076444 0.301582
vt 0.089084 0.219770
vt 0.055495 0.216152
vt 0.093820 0.140101
vt 0.070764 0.138520
vt 0.185482 0.060851
vt 0.234433 0.077256
vt 0.230513 0.137743
vt 0.183256 0.107199
vt 0.207224 0.170295
vt 0.122800 0.053227
vt 0.182505 0.147711
vt 0.126892 0.087263
vt 0.131281 0.115989
vt 0.046036 0.050831
vt 0.071129 0.078770
vt 0.298405 0.283311
vt 0.304406 0.315460
vt 0.254885 0.313688
vt 0.247918 0.281414
vt 0.304903 0.225605
vt 0.271585 0.224667
vt 0.217870 0.282661
vt 0.214421 0.299094
vt 0.251701 0.222003
vt 0.275517 0.185281
vt 0.239517 0.180061
vt 0.282603 0.134111
vt 0.266672 0.100622
vt 0.316233 0.200688
vt 0.304903 0.225605
vt 0.271585 0.224667
vt 0.275517 0.185281
vt 0.299609 0.145398
vt 0.282603 0.134111
vt 0.319685 0.113650
vt 0.266672 0.100622
vt 0.319685 0.113650
vt 0.266672 0.100622
vt 0.279535 0.077940
vt 0.302172 0.083886

f 1/1/1 3/3/3 2/2/2
f 1/1/1 2/2/2 4/4/4
f 1/1/1 4/4/4 5/5/5
f 1/1/1 5/5/5 6/6/6
f 6/6/6 5/5/5 7/7/7
f 6/6/6 7/7/7 8/8/8
f 9/9/9 11/11/11 10/10/10
f 9/9/9 10/10/10 12/12/12
f 10/10/10 13/13/13 12/12/12
f 10/10/10 14/14/14 13/13/13
f 12/12/12 13/13/13 15/15/15
f 12/12/12 15/15/15 16/16/16
f 9/9/9 12/12/12 16/16/16
f 9/9/9 16/16/16 17/17/17
f 17/17/17 16/16/16 18/18/18
f 17/17/17 18/18/18 19/19/19
f 20/20/20 22/22/22 21/21/21
f 20/20/20 21/21/21 23/23/23
f 20/20/20 23/23/23 24/24/24
f 20/20/20 24/24/24 25/25/25
f 25/25/25 24/24/24 26/26/26
f 25/25/25 26/26/26 27/27/27
f 28/28/28 30/30/30 29/29/29
f 28/28/28 31/31/31 30/30/30
f 31/31/31 32/32/32 30/30/30
f 31/31/31 28/28/28 33/33/33
f 31/31/31 34/34/34 32/32/32
f 31/31/31 33/33/33 35/35/35
f 34/34/34 31/31/31 35/35/35
f 34/34/34 35/35/35 36/36/36
f 35/35/35 33/33/33 37/37/37
f 35/35/35 37/37/37 38/38/38
f 39/39/39 41/41/41 40/40/40
f 39/39/39 42/42/42 41/41/41
f 42/42/42 39/39/39 43/43/43
f 42/42/42 43/43/43 44/44/44
f 41/41/41 42/42/42 45/45/45
f 45/45/45 42/42/42 44/44/44
f 41/41/41 45/45/45 46/46/46
f 45/45/45 44/44/44 47/47/47
f 47/47/47 44/44/44 48/48/48
f 47/47/47 48/48/48 49/49/49
f 49/49/49 48/48/48 50/50/50
f 49/49/49 50/50/50 51/51/51
f 52/52/52 54/54/54 53/53/53
f 52/52/52 55/55/55 54/54/54
f 55/55/55 52/52/52 56/56/56
f 55/55/55 56/56/56 57/57/57
f 58/58/58 57/57/57 56/56/56
f 59/59/59 57/57/57 58/58/58
f 60/60/60 62/62/62 61/61/61
f 60/60/60 63/63/63 62/62/62
