# lm_rock_07
# Exported by MapExporter (Unity -> DirectX12)
# Vertices: 46  Triangles: 29

v 0.252225 0.255467 -0.139265
v 0.163120 0.255467 0.034659
v -0.181094 0.249132 -0.021097
v -0.255722 0.187938 -0.077022
v -0.157379 0.110010 -0.255735
v 0.089005 0.165222 -0.270725
v -0.247452 0.189633 0.302387
v -0.265251 0.000000 0.298910
v -0.321936 0.000000 -0.018697
v -0.255722 0.187938 -0.077022
v -0.181094 0.249132 -0.021097
v -0.178673 0.397928 0.260701
v -0.098881 0.360362 0.089814
v 0.101453 0.360362 0.120649
v 0.056014 0.397928 0.240463
v -0.178673 0.397928 0.260701
v -0.098881 0.360362 0.089814
v 0.163120 0.255467 0.034659
v -0.098881 0.360362 0.089814
v -0.181094 0.249132 -0.021097
v 0.075463 0.173229 0.338665
v 0.056014 0.397928 0.240463
v 0.101453 0.360362 0.120649
v 0.163120 0.255467 0.034659
v 0.088327 0.000000 0.311882
v 0.266972 0.000000 0.140211
v -0.247452 0.189633 0.302387
v -0.178673 0.397928 0.260701
v 0.056014 0.397928 0.240463
v 0.075463 0.173229 0.338665
v -0.265251 0.000000 0.298910
v 0.088327 0.000000 0.311882
v 0.252225 0.255467 -0.139265
v 0.127755 0.000000 -0.340037
v 0.319246 0.000000 -0.111184
v 0.089005 0.165222 -0.270725
v -0.215113 0.000000 -0.281084
v -0.157379 0.110010 -0.255735
v -0.157379 0.110010 -0.255735
v -0.255722 0.187938 -0.077022
v -0.321936 0.000000 -0.018697
v -0.215113 0.000000 -0.281084
v 0.252225 0.255467 -0.139265
v 0.319246 0.000000 -0.111184
v 0.266972 0.000000 0.140211
v 0.163120 0.255467 0.034659

vn 0.607128 0.739675 -0.290303
vn 0.660440 0.746108 0.084508
vn -0.427297 0.812812 -0.395923
vn -0.717999 0.623237 -0.309924
vn -0.421739 0.569146 -0.705839
vn 0.125099 0.613440 -0.779771
vn -0.675911 0.331294 0.658323
vn -0.714653 0.105655 0.691453
vn -0.955052 0.267636 -0.127463
vn -0.717999 0.623237 -0.309924
vn -0.427297 0.812812 -0.395923
vn -0.486552 0.786611 0.380144
vn -0.300030 0.814791 -0.496083
vn 0.615656 0.756927 -0.219155
vn 0.420184 0.795016 0.437488
vn -0.486552 0.786611 0.380144
vn -0.300030 0.814791 -0.496083
vn 0.660440 0.746108 0.084508
vn -0.300030 0.814791 -0.496083
vn -0.427297 0.812812 -0.395923
vn 0.435089 0.219590 0.873200
vn 0.420184 0.795016 0.437488
vn 0.615656 0.756927 -0.219155
vn 0.660440 0.746108 0.084508
vn 0.470333 0.152930 0.869137
vn 0.845080 0.341008 0.411768
vn -0.675911 0.331294 0.658323
vn -0.486552 0.786611 0.380144
vn 0.420184 0.795016 0.437488
vn 0.435089 0.219590 0.873200
vn -0.714653 0.105655 0.691453
vn 0.470333 0.152930 0.869137
vn 0.607128 0.739675 -0.290303
vn 0.303587 0.310378 -0.900833
vn 0.913485 0.362435 -0.184892
vn 0.125099 0.613440 -0.779771
vn -0.604611 0.345741 -0.717572
vn -0.421739 0.569146 -0.705839
vn -0.421739 0.569146 -0.705839
vn -0.717999 0.623237 -0.309924
vn -0.955052 0.267636 -0.127463
vn -0.604611 0.345741 -0.717572
vn 0.607128 0.739675 -0.290303
vn 0.913485 0.362435 -0.184892
vn 0.845080 0.341008 0.411768
vn 0.660440 0.746108 0.084508

vt 0.340721 0.259264
vt 0.352996 0.213554
vt 0.437356 0.209291
vt 0.460454 0.223301
vt 0.448678 0.274860
vt 0.388604 0.286858
vt 0.557794 0.171007
vt 0.559712 0.217105
vt 0.481799 0.223037
vt 0.465980 0.175305
vt 0.478886 0.151572
vt 0.551556 0.117290
vt 0.504981 0.117472
vt 0.385765 0.117440
vt 0.418923 0.117170
vt 0.443854 0.170084
vt 0.396224 0.166674
vt 0.353913 0.098615
vt 0.375434 0.166701
vt 0.334548 0.183026
vt 0.420116 0.060111
vt 0.418923 0.117170
vt 0.385765 0.117440
vt 0.353913 0.098615
vt 0.413112 0.019967
vt 0.352201 0.024651
vt 0.495782 0.064825
vt 0.477518 0.118008
vt 0.418923 0.117170
vt 0.420116 0.060111
vt 0.499303 0.016992
vt 0.413112 0.019967
vt 0.853800 0.183435
vt 0.788144 0.127807
vt 0.859924 0.119400
vt 0.800052 0.170578
vt 0.716172 0.171622
vt 0.741584 0.188865
vt 0.741584 0.188865
vt 0.724714 0.238988
vt 0.675846 0.227135
vt 0.716172 0.171622
vt 0.853800 0.183435
vt 0.859924 0.119400
vt 0.922101 0.120655
vt 0.900810 0.188928

f 1/1/1 3/3/3 2/2/2
f 4/4/4 3/3/3 1/1/1
f 1/1/1 5/5/5 4/4/4
f 1/1/1 6/6/6 5/5/5
f 7/7/7 9/9/9 8/8/8
f 7/7/7 10/10/10 9/9/9
f 11/11/11 10/10/10 7/7/7
f 11/11/11 7/7/7 12/12/12
f 11/11/11 12/12/12 13/13/13
f 14/14/14 16/16/16 15/15/15
f 14/14/14 17/17/17 16/16/16
f 18/18/18 19/19/19 14/14/14
f 18/18/18 20/20/20 19/19/19
f 21/21/21 23/23/23 22/22/22
f 21/21/21 24/24/24 23/23/23
f 24/24/24 21/21/21 25/25/25
f 24/24/24 25/25/25 26/26/26
f 27/27/27 29/29/29 28/28/28
f 27/27/27 30/30/30 29/29/29
f 30/30/30 27/27/27 31/31/31
f 30/30/30 31/31/31 32/32/32
f 33/33/33 35/35/35 34/34/34
f 33/33/33 34/34/34 36/36/36
f 36/36/36 34/34/34 37/37/37
f 36/36/36 37/37/37 38/38/38
f 39/39/39 41/41/41 40/40/40
f 39/39/39 42/42/42 41/41/41
f 43/43/43 45/45/45 44/44/44
f 43/43/43 46/46/46 45/45/45
