# PlatformSmall_002
# Exported by MapExporter (Unity -> DirectX12)
# Vertices: 200  Triangles: 150

v -19.274610 7.228289 3.777259
v -18.304390 7.792207 3.922704
v -18.708860 7.228715 4.798609
v -17.374050 7.227381 7.601800
v -18.958070 -0.394193 9.043411
v -20.628400 -0.394193 5.657284
v 14.302680 7.211650 8.859826
v 14.638570 7.792207 8.276341
v 15.365340 7.233057 8.692636
v 17.287280 -0.394193 10.212400
v 16.215600 -0.394193 10.356760
v 14.302680 7.211650 8.859826
v 8.286139 7.210578 7.093037
v 14.302680 7.211650 8.859826
v 9.543647 -0.394193 8.286737
v 8.396905 -0.411909 8.220797
v 7.130725 7.216860 7.023067
v 7.652235 7.792207 6.236404
v 14.302680 7.211650 8.859826
v 14.638570 7.792207 8.276341
v 1.694227 7.792207 7.241931
v 2.458473 7.218325 7.819493
v 2.835761 -0.582697 9.289628
v 1.339314 7.218215 8.135363
v -2.940943 -0.585179 11.646080
v 1.724718 -0.598763 9.631797
v -3.323267 7.220316 10.024560
v -4.350249 7.218973 10.573820
v -4.171494 7.792207 9.604618
v -7.442415 7.792207 11.835620
v -6.947844 7.221290 12.358850
v -13.995900 7.792207 -6.951737
v -4.171494 7.792207 9.604618
v -12.012640 7.792207 9.344446
v -4.281989 7.792207 -8.755410
v -4.171494 7.792207 9.604618
v -13.995900 7.792207 -6.951737
v 1.694227 7.792207 7.241931
v -4.171494 7.792207 9.604618
v -4.281989 7.792207 -8.755410
v -13.995900 7.792207 -6.951737
v -12.012640 7.792207 9.344446
v -18.304390 7.792207 3.922704
v 18.682240 7.237964 5.903625
v 20.278900 7.238993 -2.515625
v 22.989910 -0.394193 -2.807886
v 21.048080 -0.394193 7.210418
v 15.365340 7.233057 8.692636
v 20.443380 -0.394193 8.115025
v 17.287280 -0.394193 10.212400
v 18.087500 7.234812 6.817992
v 14.638570 7.792207 8.276341
v 17.871410 7.792207 6.041877
v 18.087500 7.234812 6.817992
v 18.682240 7.237964 5.903625
v 21.048080 -0.394193 7.210418
v 17.871410 7.792207 6.041877
v 18.087500 7.234812 6.817992
v 20.278900 7.238993 -2.515625
v 19.583610 7.792207 -3.004154
v 20.154770 7.238865 -3.632188
v 22.989910 -0.394193 -2.807886
v 22.878970 -0.394193 -3.928150
v 20.803310 -0.394193 -8.991704
v 18.382440 7.241580 -7.746278
v 17.609700 7.792207 -7.564373
v 12.870380 7.792207 -7.041866
v 7.652235 7.792207 6.236404
v 14.638570 7.792207 8.276341
v 2.364604 7.792207 -8.549170
v 1.694227 7.792207 7.241931
v 8.925890 7.792207 -10.182460
v -4.281989 7.792207 -8.755410
v 2.904847 7.221810 -9.418690
v 8.578942 7.223400 -10.838210
v 9.616392 7.237023 -10.614580
v -3.697093 7.224889 -9.463850
v 1.748717 7.224679 -9.294025
v -4.103908 -0.394193 -11.377170
v 2.177273 -0.394193 -11.171360
v -9.963308 7.223504 -9.880371
v -10.328940 7.792207 -9.183908
v -4.867194 7.224541 -9.523533
v -11.030570 -0.394193 -11.785950
v -5.274246 -0.394193 -11.432290
v -11.051900 7.230028 -9.616514
v -12.122550 -0.394193 -11.522000
v -13.995900 7.792207 -6.951737
v -10.328940 7.792207 -9.183908
v -13.819850 7.230740 -7.934484
v -11.051900 7.230028 -9.616514
v -9.963308 7.223504 -9.880371
v -13.819850 7.230740 -7.934484
v -15.493030 -0.394193 -9.505430
v -12.122550 -0.394193 -11.522000
v 12.714880 7.238303 -8.152463
v 10.912820 -0.394193 -12.813820
v 14.453240 -0.394193 -10.058660
v 8.578942 7.223400 -10.838210
v 9.870648 -0.394193 -13.020670
v 8.578942 7.223400 -10.838210
v 3.331475 -0.394193 -11.301800
v 2.904847 7.221810 -9.418690
v 1.748717 7.224679 -9.294025
v 2.364604 7.792207 -8.549170
v 2.177273 -0.394193 -11.171360
v -22.535440 7.226755 -1.336136
v -19.274610 7.228289 3.777259
v -21.196860 -0.394193 4.636517
v -24.975100 -0.394193 -1.417431
v -18.708860 7.228715 4.798609
v -20.628400 -0.394193 5.657284
v -19.274610 7.228289 3.777259
v -21.980460 7.792207 -1.829875
v -18.304390 7.792207 3.922704
v -19.989360 7.231337 -6.332909
v -22.535550 7.228431 -2.334873
v -24.982220 -0.394193 -2.426137
v -22.009920 -0.394194 -7.318279
v -11.822000 7.229302 10.294440
v -7.957058 7.231985 12.411710
v -8.402711 -0.394193 14.749020
v -12.852960 -0.394193 12.187680
v -16.574490 7.225070 8.346120
v -17.374050 7.227381 7.601800
v -16.577140 7.792207 7.564825
v -18.304390 7.792207 3.922704
v -18.708860 7.228715 4.798609
v -16.574490 7.225070 8.346120
v -18.958070 -0.394193 9.043411
v -18.159380 -0.394193 9.804288
v -16.574490 7.225070 8.346120
v -13.895910 -0.394193 11.662340
v -12.880520 7.228972 9.802155
v -16.577140 7.792207 7.564825
v -12.012640 7.792207 9.344446
v -11.822000 7.229302 10.294440
v -18.304390 7.792207 3.922704
v -19.989360 7.231337 -6.332909
v -19.082730 7.215444 -6.912812
v -19.176540 7.792207 -6.211749
v -13.995900 7.792207 -6.951737
v -14.910940 7.223073 -7.547079
v -21.123900 -0.394193 -7.959521
v -13.819850 7.230740 -7.934484
v -16.571780 -0.394193 -9.064596
v -15.493030 -0.394193 -9.505430
v -4.867194 7.224541 -9.523533
v -3.697093 7.224889 -9.463850
v -4.281989 7.792207 -8.755410
v -4.103908 -0.394193 -11.377170
v -5.274246 -0.394193 -11.432290
v -22.535550 7.228431 -2.334873
v -19.989360 7.231337 -6.332909
v -19.176540 7.792207 -6.211749
v -21.980460 7.792207 -1.829875
v -18.304390 7.792207 3.922704
v -13.995900 7.792207 -6.951737
v -22.535440 7.226755 -1.336136
v -24.982220 -0.394193 -2.426137
v -24.975100 -0.394193 -1.417431
v 9.616392 7.237023 -10.614580
v 12.870380 7.792207 -7.041866
v 8.925890 7.792207 -10.182460
v 12.714880 7.238303 -8.152463
v 13.775040 7.221626 -7.858373
v 17.609700 7.792207 -7.564373
v 15.512500 -0.394193 -9.681886
v 14.453240 -0.394193 -10.058660
v 17.547130 7.212219 -8.220305
v 18.382440 7.241580 -7.746278
v 19.969750 -0.394193 -9.550920
v 20.803310 -0.394193 -8.991704
v -21.123900 -0.394193 -7.959521
v -19.082730 7.215444 -6.912812
v -19.989360 7.231337 -6.332909
v -22.009920 -0.394194 -7.318279
v -7.957058 7.231985 12.411710
v -11.822000 7.229302 10.294440
v -12.012640 7.792207 9.344446
v -7.442415 7.792207 11.835620
v -4.171494 7.792207 9.604618
v -6.947844 7.221290 12.358850
v -8.402711 -0.394193 14.749020
v -7.410296 -0.414923 14.695820
v -3.953547 -0.563216 12.218700
v -4.350249 7.218973 10.573820
v -3.323267 7.220316 10.024560
v -2.940943 -0.585179 11.646080
v -11.822000 7.229302 10.294440
v -12.852960 -0.394193 12.187680
v -13.895910 -0.394193 11.662340
v -12.880520 7.228972 9.802155
v -4.171494 7.792207 9.604618
v 1.694227 7.792207 7.241931
v 1.339314 7.218215 8.135363
v -3.323267 7.220316 10.024560
v 2.458473 7.218325 7.819493
v 1.724718 -0.598763 9.631797
v 2.835761 -0.582697 9.289628

vn -0.805943 0.318140 0.499242
vn -0.008139 0.999956 0.004728
vn -0.844966 0.320750 0.427963
vn -0.813503 0.322996 0.483618
vn -0.826727 0.267873 0.494738
vn -0.861777 0.263657 0.433389
vn -0.228640 0.190712 0.954648
vn 0.000123 0.999959 0.009026
vn 0.445730 0.339152 0.828433
vn 0.451389 0.284800 0.845658
vn -0.229623 0.126643 0.965005
vn -0.228640 0.190712 0.954648
vn -0.252475 0.181215 0.950483
vn -0.228640 0.190712 0.954648
vn -0.254532 0.114248 0.960292
vn 0.132297 0.179203 0.974876
vn 0.131210 0.243290 0.961038
vn -0.000937 0.999936 0.011269
vn -0.228640 0.190712 0.954648
vn 0.000123 0.999959 0.009026
vn 0.002834 0.999946 0.010045
vn 0.188576 0.249288 0.949892
vn 0.192435 0.187077 0.963313
vn 0.354017 0.263298 0.897411
vn 0.396653 0.199974 0.895922
vn 0.359853 0.197946 0.911769
vn 0.388978 0.265223 0.882243
vn 0.537289 0.260407 0.802190
vn 0.003950 0.999962 0.007814
vn -0.000221 0.999977 0.006785
vn 0.463689 0.281835 0.839977
vn -0.002565 0.999968 -0.007579
vn 0.003950 0.999962 0.007814
vn -0.003673 0.999963 0.007829
vn 0.000540 0.999941 -0.010890
vn 0.003950 0.999962 0.007814
vn -0.002565 0.999968 -0.007579
vn 0.002834 0.999946 0.010045
vn 0.003950 0.999962 0.007814
vn 0.000540 0.999941 -0.010890
vn -0.002565 0.999968 -0.007579
vn -0.003673 0.999963 0.007829
vn -0.008139 0.999956 0.004728
vn 0.902152 0.376932 0.209870
vn 0.914697 0.376528 0.146822
vn 0.934177 0.324092 0.149260
vn 0.921043 0.324405 0.215501
vn 0.445730 0.339152 0.828433
vn 0.602228 0.308543 0.736290
vn 0.451389 0.284800 0.845658
vn 0.589030 0.360848 0.723072
vn 0.000123 0.999959 0.009026
vn 0.009736 0.999944 0.004256
vn 0.589030 0.360848 0.723072
vn 0.902152 0.376932 0.209870
vn 0.921043 0.324405 0.215501
vn 0.009736 0.999944 0.004256
vn 0.589030 0.360848 0.723072
vn 0.914697 0.376528 0.146822
vn 0.011780 0.999931 -0.000203
vn 0.869183 0.383034 -0.312740
vn 0.934177 0.324092 0.149260
vn 0.887734 0.333357 -0.317493
vn 0.829459 0.332464 -0.448850
vn 0.813087 0.383172 -0.438257
vn 0.003565 0.999977 -0.005852
vn 0.002214 0.999970 -0.007379
vn -0.000937 0.999936 0.011269
vn 0.000123 0.999959 0.009026
vn -0.001229 0.999935 -0.011353
vn 0.002834 0.999946 0.010045
vn 0.001164 0.999959 -0.009006
vn 0.000540 0.999941 -0.010890
vn -0.218163 0.286648 -0.932865
vn -0.179412 0.297042 -0.937858
vn 0.506330 0.374018 -0.777008
vn 0.033073 0.301570 -0.952870
vn 0.008932 0.301377 -0.953463
vn 0.033793 0.241220 -0.969882
vn 0.008416 0.240216 -0.970683
vn 0.015260 0.301701 -0.953281
vn -0.001491 0.999965 -0.008277
vn 0.059945 0.297296 -0.952902
vn 0.013676 0.243135 -0.969896
vn 0.060587 0.237311 -0.969543
vn -0.428986 0.332107 -0.840045
vn -0.435087 0.276656 -0.856832
vn -0.002565 0.999968 -0.007579
vn -0.001491 0.999965 -0.008277
vn -0.452613 0.332036 -0.827583
vn -0.428986 0.332107 -0.840045
vn 0.015260 0.301701 -0.953281
vn -0.452613 0.332036 -0.827583
vn -0.460470 0.273096 -0.844622
vn -0.435087 0.276656 -0.856832
vn 0.519752 0.374085 -0.768061
vn 0.514986 0.318772 -0.795723
vn 0.530088 0.314351 -0.787522
vn -0.179412 0.297042 -0.937858
vn -0.180973 0.238676 -0.954088
vn -0.179412 0.297042 -0.937858
vn -0.221628 0.226071 -0.948564
vn -0.218163 0.286648 -0.932865
vn 0.008932 0.301377 -0.953463
vn -0.001229 0.999935 -0.011353
vn 0.008416 0.240216 -0.970683
vn -0.832318 0.326724 0.447770
vn -0.805943 0.318140 0.499242
vn -0.820960 0.260851 0.507919
vn -0.848916 0.270504 0.454059
vn -0.844966 0.320750 0.427963
vn -0.861777 0.263657 0.433389
vn -0.805943 0.318140 0.499242
vn -0.008914 0.999960 0.000705
vn -0.008139 0.999956 0.004728
vn -0.765997 0.327658 -0.553072
vn -0.838371 0.338687 -0.427114
vn -0.855266 0.285475 -0.432464
vn -0.779157 0.274211 -0.563669
vn -0.452088 0.333119 0.827435
vn -0.381864 0.341568 0.858785
vn -0.387538 0.285925 0.876391
vn -0.461158 0.276336 0.843192
vn -0.423915 0.319213 0.847584
vn -0.813503 0.322996 0.483618
vn -0.004630 0.999975 0.005356
vn -0.008139 0.999956 0.004728
vn -0.844966 0.320750 0.427963
vn -0.423915 0.319213 0.847584
vn -0.826727 0.267873 0.494738
vn -0.434510 0.262779 0.861481
vn -0.423915 0.319213 0.847584
vn -0.381992 0.260232 0.886770
vn -0.373642 0.318233 0.871275
vn -0.004630 0.999975 0.005356
vn -0.003673 0.999963 0.007829
vn -0.452088 0.333119 0.827435
vn -0.008139 0.999956 0.004728
vn -0.765997 0.327658 -0.553072
vn -0.254745 0.279069 -0.925865
vn -0.004575 0.999965 -0.006951
vn -0.002565 0.999968 -0.007579
vn -0.216564 0.281449 -0.934819
vn -0.264277 0.219342 -0.939174
vn -0.452613 0.332036 -0.827583
vn -0.224183 0.219130 -0.949591
vn -0.460470 0.273096 -0.844622
vn 0.059945 0.297296 -0.952902
vn 0.033073 0.301570 -0.952870
vn 0.000540 0.999941 -0.010890
vn 0.033793 0.241220 -0.969882
vn 0.060587 0.237311 -0.969543
vn -0.838371 0.338687 -0.427114
vn -0.765997 0.327658 -0.553072
vn -0.004575 0.999965 -0.006951
vn -0.008914 0.999960 0.000705
vn -0.008139 0.999956 0.004728
vn -0.002565 0.999968 -0.007579
vn -0.832318 0.326724 0.447770
vn -0.855266 0.285475 -0.432464
vn -0.848916 0.270504 0.454059
vn 0.506330 0.374018 -0.777008
vn 0.002214 0.999970 -0.007379
vn 0.001164 0.999959 -0.009006
vn 0.519752 0.374085 -0.768061
vn 0.035124 0.280586 -0.959186
vn 0.003565 0.999977 -0.005852
vn 0.042130 0.218121 -0.975012
vn 0.530088 0.314351 -0.787522
vn 0.069353 0.279341 -0.957684
vn 0.813087 0.383172 -0.438257
vn 0.078552 0.221090 -0.972085
vn 0.829459 0.332464 -0.448850
vn -0.264277 0.219342 -0.939174
vn -0.254745 0.279069 -0.925865
vn -0.765997 0.327658 -0.553072
vn -0.779157 0.274211 -0.563669
vn -0.381864 0.341568 0.858785
vn -0.452088 0.333119 0.827435
vn -0.003673 0.999963 0.007829
vn -0.000221 0.999977 0.006785
vn 0.003950 0.999962 0.007814
vn 0.463689 0.281835 0.839977
vn -0.387538 0.285925 0.876391
vn 0.468786 0.227843 0.853421
vn 0.545081 0.203827 0.813229
vn 0.537289 0.260407 0.802190
vn 0.388978 0.265223 0.882243
vn 0.396653 0.199974 0.895922
vn -0.452088 0.333119 0.827435
vn -0.461158 0.276336 0.843192
vn -0.381992 0.260232 0.886770
vn -0.373642 0.318233 0.871275
vn 0.003950 0.999962 0.007814
vn 0.002834 0.999946 0.010045
vn 0.354017 0.263298 0.897411
vn 0.388978 0.265223 0.882243
vn 0.188576 0.249288 0.949892
vn 0.359853 0.197946 0.911769
vn 0.192435 0.187077 0.963313

vt 0.879566 0.932138
vt 0.879928 0.931178
vt 0.879566 0.932137
vt 0.879566 0.932138
vt 0.874678 0.945100
vt 0.874678 0.945100
vt 0.879556 0.932166
vt 0.879928 0.931178
vt 0.879570 0.932128
vt 0.874678 0.945100
vt 0.874678 0.945100
vt 0.879556 0.932166
vt 0.879555 0.932167
vt 0.879556 0.932166
vt 0.874678 0.945100
vt 0.874667 0.945130
vt 0.879559 0.932156
vt 0.879928 0.931178
vt 0.879556 0.932166
vt 0.879928 0.931178
vt 0.879928 0.931178
vt 0.879560 0.932155
vt 0.874557 0.945420
vt 0.879560 0.932154
vt 0.874556 0.945425
vt 0.874547 0.945448
vt 0.879561 0.932152
vt 0.879561 0.932152
vt 0.879928 0.931178
vt 0.879928 0.931178
vt 0.879561 0.932150
vt 0.879928 0.931178
vt 0.879928 0.931178
vt 0.879928 0.931178
vt 0.879928 0.931178
vt 0.879928 0.931178
vt 0.879928 0.931178
vt 0.879928 0.931178
vt 0.879928 0.931178
vt 0.879928 0.931178
vt 0.879928 0.931178
vt 0.879928 0.931178
vt 0.879928 0.931178
vt 0.879573 0.932120
vt 0.879573 0.932119
vt 0.874678 0.945100
vt 0.874678 0.945100
vt 0.879570 0.932128
vt 0.874678 0.945100
vt 0.874678 0.945100
vt 0.879570 0.932127
vt 0.879928 0.931178
vt 0.879928 0.931178
vt 0.879570 0.932127
vt 0.879573 0.932120
vt 0.874678 0.945100
vt 0.879928 0.931178
vt 0.879570 0.932127
vt 0.879573 0.932119
vt 0.879928 0.931178
vt 0.879574 0.932118
vt 0.874678 0.945100
vt 0.874678 0.945100
vt 0.874678 0.945100
vt 0.879574 0.932116
vt 0.879928 0.931178
vt 0.879928 0.931178
vt 0.879928 0.931178
vt 0.879928 0.931178
vt 0.879928 0.931178
vt 0.879928 0.931178
vt 0.879928 0.931178
vt 0.879928 0.931178
vt 0.879562 0.932148
vt 0.879563 0.932146
vt 0.879572 0.932122
vt 0.879564 0.932143
vt 0.879564 0.932143
vt 0.874678 0.945100
vt 0.874678 0.945100
vt 0.879563 0.932145
vt 0.879928 0.931178
vt 0.879564 0.932144
vt 0.874678 0.945100
vt 0.874678 0.945100
vt 0.879568 0.932134
vt 0.874678 0.945100
vt 0.879928 0.931178
vt 0.879928 0.931178
vt 0.879568 0.932133
vt 0.879568 0.932134
vt 0.879563 0.932145
vt 0.879568 0.932133
vt 0.874678 0.945100
vt 0.874678 0.945100
vt 0.879573 0.932121
vt 0.874678 0.945100
vt 0.874678 0.945100
vt 0.879563 0.932146
vt 0.874678 0.945100
vt 0.879563 0.932146
vt 0.874678 0.945100
vt 0.879562 0.932148
vt 0.879564 0.932143
vt 0.879928 0.931178
vt 0.874678 0.945100
vt 0.879566 0.932139
vt 0.879566 0.932138
vt 0.874678 0.945100
vt 0.874678 0.945100
vt 0.879566 0.932137
vt 0.874678 0.945100
vt 0.879566 0.932138
vt 0.879928 0.931178
vt 0.879928 0.931178
vt 0.879568 0.932133
vt 0.879567 0.932136
vt 0.874678 0.945100
vt 0.874678 0.945100
vt 0.879567 0.932134
vt 0.879568 0.932132
vt 0.874678 0.945100
vt 0.874678 0.945100
vt 0.879565 0.932141
vt 0.879566 0.932138
vt 0.879928 0.931178
vt 0.879928 0.931178
vt 0.879566 0.932137
vt 0.879565 0.932141
vt 0.874678 0.945100
vt 0.874678 0.945100
vt 0.879565 0.932141
vt 0.874678 0.945100
vt 0.879566 0.932138
vt 0.879928 0.931178
vt 0.879928 0.931178
vt 0.879567 0.932134
vt 0.879928 0.931178
vt 0.879568 0.932133
vt 0.879560 0.932155
vt 0.879928 0.931178
vt 0.879928 0.931178
vt 0.879562 0.932149
vt 0.874678 0.945100
vt 0.879568 0.932133
vt 0.874678 0.945100
vt 0.874678 0.945100
vt 0.879564 0.932144
vt 0.879564 0.932143
vt 0.879928 0.931178
vt 0.874678 0.945100
vt 0.874678 0.945100
vt 0.879567 0.932136
vt 0.879568 0.932133
vt 0.879928 0.931178
vt 0.879928 0.931178
vt 0.879928 0.931178
vt 0.879928 0.931178
vt 0.879566 0.932139
vt 0.874678 0.945100
vt 0.874678 0.945100
vt 0.879572 0.932122
vt 0.879928 0.931178
vt 0.879928 0.931178
vt 0.879573 0.932121
vt 0.879561 0.932152
vt 0.879928 0.931178
vt 0.874678 0.945100
vt 0.874678 0.945100
vt 0.879558 0.932158
vt 0.879574 0.932116
vt 0.874678 0.945100
vt 0.874678 0.945100
vt 0.874678 0.945100
vt 0.879560 0.932155
vt 0.879568 0.932133
vt 0.874678 0.945100
vt 0.879568 0.932132
vt 0.879567 0.932134
vt 0.879928 0.931178
vt 0.879928 0.931178
vt 0.879928 0.931178
vt 0.879561 0.932150
vt 0.874678 0.945100
vt 0.874665 0.945135
vt 0.874570 0.945387
vt 0.879561 0.932152
vt 0.879561 0.932152
vt 0.874556 0.945425
vt 0.879567 0.932134
vt 0.874678 0.945100
vt 0.874678 0.945100
vt 0.879566 0.932138
vt 0.879928 0.931178
vt 0.879928 0.931178
vt 0.879560 0.932154
vt 0.879561 0.932152
vt 0.879560 0.932155
vt 0.874547 0.945448
vt 0.874557 0.945420

f 1/1/1 3/3/3 2/2/2
f 3/3/3 5/5/5 4/4/4
f 3/3/3 6/6/6 5/5/5
f 7/7/7 9/9/9 8/8/8
f 9/9/9 11/11/11 10/10/10
f 9/9/9 12/12/12 11/11/11
f 13/13/13 11/11/11 14/14/14
f 13/13/13 15/15/15 11/11/11
f 13/13/13 16/16/16 15/15/15
f 13/13/13 17/17/17 16/16/16
f 18/18/18 17/17/17 13/13/13
f 19/19/19 18/18/18 13/13/13
f 19/19/19 20/20/20 18/18/18
f 17/17/17 18/18/18 21/21/21
f 22/22/22 16/16/16 17/17/17
f 17/17/17 21/21/21 22/22/22
f 22/22/22 23/23/23 16/16/16
f 21/21/21 24/24/24 22/22/22
f 25/25/25 26/26/26 24/24/24
f 25/25/25 24/24/24 27/27/27
f 28/28/28 27/27/27 29/29/29
f 30/30/30 28/28/28 29/29/29
f 30/30/30 31/31/31 28/28/28
f 32/32/32 34/34/34 33/33/33
f 35/35/35 37/37/37 36/36/36
f 38/38/38 40/40/40 39/39/39
f 41/41/41 43/43/43 42/42/42
f 44/44/44 46/46/46 45/45/45
f 44/44/44 47/47/47 46/46/46
f 48/48/48 50/50/50 49/49/49
f 48/48/48 49/49/49 51/51/51
f 51/51/51 52/52/52 48/48/48
f 51/51/51 53/53/53 52/52/52
f 49/49/49 55/55/55 54/54/54
f 49/49/49 56/56/56 55/55/55
f 57/57/57 58/58/58 55/55/55
f 59/59/59 57/57/57 55/55/55
f 59/59/59 60/60/60 57/57/57
f 59/59/59 61/61/61 60/60/60
f 61/61/61 59/59/59 62/62/62
f 61/61/61 62/62/62 63/63/63
f 61/61/61 63/63/63 64/64/64
f 61/61/61 64/64/64 65/65/65
f 65/65/65 60/60/60 61/61/61
f 65/65/65 66/66/66 60/60/60
f 60/60/60 66/66/66 67/67/67
f 57/57/57 60/60/60 67/67/67
f 68/68/68 57/57/57 67/67/67
f 68/68/68 69/69/69 57/57/57
f 67/67/67 70/70/70 68/68/68
f 68/68/68 70/70/70 71/71/71
f 67/67/67 72/72/72 70/70/70
f 70/70/70 73/73/73 71/71/71
f 74/74/74 70/70/70 72/72/72
f 74/74/74 72/72/72 75/75/75
f 75/75/75 72/72/72 76/76/76
f 77/77/77 73/73/73 70/70/70
f 77/77/77 70/70/70 78/78/78
f 78/78/78 79/79/79 77/77/77
f 78/78/78 80/80/80 79/79/79
f 81/81/81 82/82/82 73/73/73
f 81/81/81 73/73/73 83/83/83
f 83/83/83 84/84/84 81/81/81
f 83/83/83 85/85/85 84/84/84
f 84/84/84 86/86/86 81/81/81
f 84/84/84 87/87/87 86/86/86
f 73/73/73 89/89/89 88/88/88
f 90/90/90 88/88/88 89/89/89
f 90/90/90 89/89/89 91/91/91
f 91/91/91 89/89/89 92/92/92
f 91/91/91 94/94/94 93/93/93
f 91/91/91 95/95/95 94/94/94
f 96/96/96 98/98/98 97/97/97
f 96/96/96 97/97/97 76/76/76
f 97/97/97 99/99/99 76/76/76
f 97/97/97 100/100/100 99/99/99
f 101/101/101 100/100/100 102/102/102
f 101/101/101 102/102/102 103/103/103
f 104/104/104 103/103/103 102/102/102
f 104/104/104 105/105/105 103/103/103
f 104/104/104 102/102/102 106/106/106
f 107/107/107 109/109/109 108/108/108
f 107/107/107 110/110/110 109/109/109
f 109/109/109 112/112/112 111/111/111
f 109/109/109 111/111/111 113/113/113
f 113/113/113 114/114/114 107/107/107
f 113/113/113 115/115/115 114/114/114
f 116/116/116 118/118/118 117/117/117
f 116/116/116 119/119/119 118/118/118
f 120/120/120 122/122/122 121/121/121
f 120/120/120 123/123/123 122/122/122
f 124/124/124 126/126/126 125/125/125
f 125/125/125 126/126/126 127/127/127
f 125/125/125 127/127/127 128/128/128
f 129/129/129 125/125/125 130/130/130
f 129/129/129 130/130/130 131/131/131
f 132/132/132 131/131/131 133/133/133
f 132/132/132 133/133/133 134/134/134
f 134/134/134 135/135/135 132/132/132
f 134/134/134 136/136/136 135/135/135
f 134/134/134 137/137/137 136/136/136
f 138/138/138 135/135/135 136/136/136
f 139/139/139 141/141/141 140/140/140
f 140/140/140 141/141/141 142/142/142
f 140/140/140 142/142/142 143/143/143
f 143/143/143 144/144/144 140/140/140
f 143/143/143 142/142/142 145/145/145
f 143/143/143 146/146/146 144/144/144
f 147/147/147 143/143/143 145/145/145
f 147/147/147 146/146/146 143/143/143
f 148/148/148 150/150/150 149/149/149
f 151/151/151 148/148/148 149/149/149
f 151/151/151 152/152/152 148/148/148
f 153/153/153 155/155/155 154/154/154
f 153/153/153 156/156/156 155/155/155
f 155/155/155 156/156/156 157/157/157
f 158/158/158 155/155/155 157/157/157
f 159/159/159 156/156/156 153/153/153
f 159/159/159 153/153/153 160/160/160
f 159/159/159 160/160/160 161/161/161
f 162/162/162 164/164/164 163/163/163
f 162/162/162 163/163/163 165/165/165
f 165/165/165 163/163/163 166/166/166
f 166/166/166 163/163/163 167/167/167
f 168/168/168 165/165/165 166/166/166
f 168/168/168 169/169/169 165/165/165
f 166/166/166 167/167/167 170/170/170
f 170/170/170 168/168/168 166/166/166
f 171/171/171 170/170/170 167/167/167
f 170/170/170 172/172/172 168/168/168
f 170/170/170 171/171/171 173/173/173
f 170/170/170 173/173/173 172/172/172
f 174/174/174 176/176/176 175/175/175
f 174/174/174 177/177/177 176/176/176
f 178/178/178 180/180/180 179/179/179
f 178/178/178 181/181/181 180/180/180
f 180/180/180 181/181/181 182/182/182
f 183/183/183 181/181/181 178/178/178
f 183/183/183 178/178/178 184/184/184
f 183/183/183 184/184/184 185/185/185
f 183/183/183 185/185/185 186/186/186
f 183/183/183 186/186/186 187/187/187
f 186/186/186 188/188/188 187/187/187
f 186/186/186 189/189/189 188/188/188
f 190/190/190 192/192/192 191/191/191
f 190/190/190 193/193/193 192/192/192
f 194/194/194 196/196/196 195/195/195
f 194/194/194 197/197/197 196/196/196
f 198/198/198 196/196/196 199/199/199
f 198/198/198 199/199/199 200/200/200
