# StoneSmall_005
# Exported by MapExporter (Unity -> DirectX12)
# Vertices: 133  Triangles: 104

v 0.173178 -0.411430 0.106337
v -0.057569 -0.224978 0.472637
v -0.017691 -0.187966 0.494326
v 0.516387 0.079282 0.137849
v 0.516514 -0.186723 0.059207
v 0.134746 0.143946 0.526265
v 0.402026 0.348871 0.103483
v 0.335361 0.366023 0.179574
v 0.344403 0.382650 0.110571
v 0.078095 -0.194314 -0.465301
v -0.255381 0.012068 -0.515273
v 0.043136 -0.248305 -0.451033
v 0.083028 0.306845 -0.425329
v -0.226840 0.071657 -0.530922
v -0.273831 0.107129 -0.504856
v 0.067282 0.356858 -0.386489
v -0.523727 0.218290 -0.096147
v -0.273831 0.107129 -0.504856
v -0.508200 0.258958 -0.086387
v -0.355845 -0.340675 -0.226028
v -0.304104 0.057772 -0.492810
v -0.310464 -0.338061 -0.283231
v -0.274946 -0.374202 -0.244858
v 0.208036 0.198353 0.450482
v 0.335361 0.366023 0.179574
v 0.397435 0.335641 0.163312
v 0.186994 -0.420880 -0.009527
v 0.084072 -0.283071 -0.415232
v -0.274946 -0.374202 -0.244858
v 0.043136 -0.248305 -0.451033
v -0.366387 0.349446 0.247756
v -0.452903 -0.183698 0.190387
v -0.526405 0.241008 -0.035760
v -0.523727 0.218290 -0.096147
v -0.508200 0.258958 -0.086387
v -0.450540 -0.258326 0.154977
v -0.355845 -0.340675 -0.226028
v -0.304104 0.057772 -0.492810
v -0.273831 0.107129 -0.504856
v -0.226840 0.071657 -0.530922
v -0.255381 0.012068 -0.515273
v -0.310464 -0.338061 -0.283231
v 0.078095 -0.194314 -0.465301
v 0.043136 -0.248305 -0.451033
v -0.274946 -0.374202 -0.244858
v 0.067282 0.356858 -0.386489
v -0.508200 0.258958 -0.086387
v -0.335612 0.388415 0.218144
v -0.271993 0.398242 0.232741
v 0.107380 0.376660 -0.343091
v 0.133898 0.325945 -0.389940
v 0.083028 0.306845 -0.425329
v 0.207712 0.343961 -0.268433
v 0.524821 0.087066 0.085154
v 0.129658 -0.225159 -0.435079
v 0.043136 -0.248305 -0.451033
v 0.084072 -0.283071 -0.415232
v 0.162169 -0.279064 -0.358208
v 0.186994 -0.420880 -0.009527
v 0.397435 0.335641 0.163312
v 0.494651 0.151123 0.150382
v 0.208036 0.198353 0.450482
v 0.516387 0.079282 0.137849
v 0.524821 0.087066 0.085154
v 0.134746 0.143946 0.526265
v 0.115807 0.206877 0.512468
v 0.335361 0.366023 0.179574
v -0.250442 0.380841 0.295681
v 0.344403 0.382650 0.110571
v -0.271993 0.398242 0.232741
v 0.107380 0.376660 -0.343091
v 0.207712 0.343961 -0.268433
v 0.402026 0.348871 0.103483
v 0.499240 0.164359 0.090554
v 0.524821 0.087066 0.085154
v 0.397435 0.335641 0.163312
v 0.335361 0.366023 0.179574
v 0.516514 -0.186723 0.059207
v -0.017691 -0.187966 0.494326
v 0.248162 -0.404785 0.088139
v 0.173178 -0.411430 0.106337
v 0.259551 -0.409455 0.025657
v 0.186994 -0.420880 -0.009527
v 0.132455 -0.422477 0.046227
v 0.162169 -0.279064 -0.358208
v 0.488853 -0.235491 0.018598
v 0.529075 -0.171714 0.031983
v 0.516514 -0.186723 0.059207
v 0.129658 -0.225159 -0.435079
v 0.133898 0.325945 -0.389940
v 0.173178 -0.411430 0.106337
v -0.373818 -0.286096 0.225396
v -0.057569 -0.224978 0.472637
v -0.064458 -0.172457 0.503475
v -0.017691 -0.187966 0.494326
v 0.081650 0.160811 0.539547
v -0.335612 0.388415 0.218144
v -0.271993 0.398242 0.232741
v -0.322465 0.353641 0.294308
v -0.366387 0.349446 0.247756
v -0.526405 0.241008 -0.035760
v -0.508200 0.258958 -0.086387
v -0.452903 -0.183698 0.190387
v -0.421114 -0.239588 0.233841
v -0.450540 -0.258326 0.154977
v -0.410073 -0.298167 0.164314
v -0.330964 -0.375650 -0.189856
v -0.355845 -0.340675 -0.226028
v 0.488853 -0.235491 0.018598
v 0.259551 -0.409455 0.025657
v 0.248162 -0.404785 0.088139
v 0.516514 -0.186723 0.059207
v -0.274946 -0.374202 -0.244858
v -0.355845 -0.340675 -0.226028
v -0.330964 -0.375650 -0.189856
v 0.132455 -0.422477 0.046227
v 0.186994 -0.420880 -0.009527
v -0.410073 -0.298167 0.164314
v -0.373818 -0.286096 0.225396
v 0.173178 -0.411430 0.106337
v -0.421114 -0.239588 0.233841
v -0.064458 -0.172457 0.503475
v -0.322465 0.353641 0.294308
v 0.081650 0.160811 0.539547
v -0.250442 0.380841 0.295681
v -0.271993 0.398242 0.232741
v 0.115807 0.206877 0.512468
v 0.134746 0.143946 0.526265
v -0.017691 -0.187966 0.494326
v 0.524821 0.087066 0.085154
v 0.494651 0.151123 0.150382
v 0.499240 0.164359 0.090554
v 0.397435 0.335641 0.163312

vn -0.104332 -0.877018 0.468993
vn -0.216236 -0.833083 0.509132
vn 0.542933 -0.375361 0.751218
vn 0.736366 0.016017 0.676394
vn 0.575809 -0.386887 0.720252
vn 0.657561 -0.090452 0.747952
vn 0.748267 0.553998 -0.364941
vn 0.164025 0.807407 0.566736
vn 0.019872 0.999486 -0.025137
vn 0.277495 -0.084716 -0.956985
vn -0.254158 -0.317068 -0.913713
vn -0.214219 -0.483983 -0.848452
vn 0.220205 0.274330 -0.936084
vn 0.178201 0.037977 -0.983261
vn -0.552987 0.533431 -0.640044
vn -0.374582 0.869695 -0.321431
vn -0.940350 -0.009280 -0.340081
vn -0.552987 0.533431 -0.640044
vn -0.401373 0.793147 -0.458059
vn -0.891986 -0.360631 -0.272591
vn -0.879049 0.006691 -0.476684
vn -0.359128 -0.541772 -0.759941
vn 0.072924 -0.928682 -0.363637
vn 0.674594 0.329546 0.660548
vn 0.164025 0.807407 0.566736
vn 0.634958 0.538215 0.554214
vn 0.095731 -0.891783 -0.442220
vn 0.146235 -0.885467 -0.441094
vn 0.072924 -0.928682 -0.363637
vn -0.214219 -0.483983 -0.848452
vn -0.855171 0.276421 0.438490
vn -0.896180 -0.018965 0.443284
vn -0.875657 0.307750 0.372176
vn -0.940350 -0.009280 -0.340081
vn -0.401373 0.793147 -0.458059
vn -0.916404 -0.369178 -0.154633
vn -0.891986 -0.360631 -0.272591
vn -0.879049 0.006691 -0.476684
vn -0.552987 0.533431 -0.640044
vn 0.178201 0.037977 -0.983261
vn -0.254158 -0.317068 -0.913713
vn -0.359128 -0.541772 -0.759941
vn 0.277495 -0.084716 -0.956985
vn -0.214219 -0.483983 -0.848452
vn 0.072924 -0.928682 -0.363637
vn -0.374582 0.869695 -0.321431
vn -0.401373 0.793147 -0.458059
vn -0.350009 0.881875 -0.315897
vn 0.026608 0.991699 -0.125799
vn 0.107567 0.994194 0.002796
vn 0.781654 0.314240 -0.538768
vn 0.220205 0.274330 -0.936084
vn 0.740020 0.514260 -0.433482
vn 0.764813 0.322323 -0.557825
vn 0.775796 -0.124476 -0.618584
vn -0.214219 -0.483983 -0.848452
vn 0.146235 -0.885467 -0.441094
vn 0.607597 -0.648562 -0.458469
vn 0.095731 -0.891783 -0.442220
vn 0.634958 0.538215 0.554214
vn 0.760715 0.259689 0.594873
vn 0.674594 0.329546 0.660548
vn 0.736366 0.016017 0.676394
vn 0.764813 0.322323 -0.557825
vn 0.657561 -0.090452 0.747952
vn 0.233273 0.740232 0.630588
vn 0.164025 0.807407 0.566736
vn 0.111977 0.830373 0.545841
vn 0.019872 0.999486 -0.025137
vn 0.026608 0.991699 -0.125799
vn 0.107567 0.994194 0.002796
vn 0.740020 0.514260 -0.433482
vn 0.748267 0.553998 -0.364941
vn 0.868458 0.345569 -0.355476
vn 0.764813 0.322323 -0.557825
vn 0.634958 0.538215 0.554214
vn 0.164025 0.807407 0.566736
vn 0.575809 -0.386887 0.720252
vn 0.542933 -0.375361 0.751218
vn 0.582470 -0.582402 0.567043
vn -0.104332 -0.877018 0.468993
vn 0.437683 -0.774419 -0.456847
vn 0.095731 -0.891783 -0.442220
vn -0.263041 -0.947792 0.180278
vn 0.607597 -0.648562 -0.458469
vn 0.632738 -0.621706 -0.461655
vn 0.752754 -0.256461 -0.606292
vn 0.575809 -0.386887 0.720252
vn 0.775796 -0.124476 -0.618584
vn 0.781654 0.314240 -0.538768
vn -0.104332 -0.877018 0.468993
vn -0.185347 -0.836725 0.515304
vn -0.216236 -0.833083 0.509132
vn -0.531797 -0.060433 0.844713
vn 0.542933 -0.375361 0.751218
vn -0.332593 0.092439 0.938529
vn -0.350009 0.881875 -0.315897
vn 0.026608 0.991699 -0.125799
vn -0.498226 0.265251 0.825477
vn -0.855171 0.276421 0.438490
vn -0.875657 0.307750 0.372176
vn -0.401373 0.793147 -0.458059
vn -0.896180 -0.018965 0.443284
vn -0.575179 -0.212766 0.789873
vn -0.916404 -0.369178 -0.154633
vn -0.248863 -0.947555 0.200517
vn -0.359080 -0.907488 0.218008
vn -0.891986 -0.360631 -0.272591
vn 0.632738 -0.621706 -0.461655
vn 0.437683 -0.774419 -0.456847
vn 0.582470 -0.582402 0.567043
vn 0.575809 -0.386887 0.720252
vn 0.072924 -0.928682 -0.363637
vn -0.891986 -0.360631 -0.272591
vn -0.359080 -0.907488 0.218008
vn -0.263041 -0.947792 0.180278
vn 0.095731 -0.891783 -0.442220
vn -0.248863 -0.947555 0.200517
vn -0.185347 -0.836725 0.515304
vn -0.104332 -0.877018 0.468993
vn -0.575179 -0.212766 0.789873
vn -0.531797 -0.060433 0.844713
vn -0.498226 0.265251 0.825477
vn -0.332593 0.092439 0.938529
vn 0.111977 0.830373 0.545841
vn 0.026608 0.991699 -0.125799
vn 0.233273 0.740232 0.630588
vn 0.657561 -0.090452 0.747952
vn 0.542933 -0.375361 0.751218
vn 0.764813 0.322323 -0.557825
vn 0.760715 0.259689 0.594873
vn 0.868458 0.345569 -0.355476
vn 0.634958 0.538215 0.554214

vt 0.877457 0.965800
vt 0.878759 0.963641
vt 0.879017 0.963212
vt 0.880883 0.960117
vt 0.879026 0.963198
vt 0.881334 0.959368
vt 0.882765 0.956995
vt 0.882885 0.956796
vt 0.883001 0.956604
vt 0.878973 0.963286
vt 0.880414 0.960896
vt 0.878596 0.963911
vt 0.882471 0.957482
vt 0.880830 0.960206
vt 0.881077 0.959795
vt 0.882821 0.956902
vt 0.881853 0.958507
vt 0.881077 0.959795
vt 0.882137 0.958036
vt 0.877951 0.964981
vt 0.880733 0.960366
vt 0.877969 0.964951
vt 0.877717 0.965369
vt 0.881714 0.958738
vt 0.882885 0.956796
vt 0.882673 0.957148
vt 0.877391 0.965910
vt 0.878353 0.964314
vt 0.877717 0.965369
vt 0.878596 0.963911
vt 0.882769 0.956988
vt 0.879047 0.963163
vt 0.882012 0.958244
vt 0.881853 0.958507
vt 0.882137 0.958036
vt 0.878526 0.964027
vt 0.877951 0.964981
vt 0.880733 0.960366
vt 0.881077 0.959795
vt 0.880830 0.960206
vt 0.880414 0.960896
vt 0.877969 0.964951
vt 0.878973 0.963286
vt 0.878596 0.963911
vt 0.877717 0.965369
vt 0.882821 0.956902
vt 0.882137 0.958036
vt 0.883041 0.956537
vt 0.883110 0.956423
vt 0.882959 0.956673
vt 0.882605 0.957261
vt 0.882471 0.957482
vt 0.882731 0.957052
vt 0.880937 0.960027
vt 0.878758 0.963643
vt 0.878596 0.963911
vt 0.878353 0.964314
vt 0.878381 0.964267
vt 0.877391 0.965910
vt 0.882673 0.957148
vt 0.881384 0.959285
vt 0.881714 0.958738
vt 0.880883 0.960117
vt 0.880937 0.960027
vt 0.881334 0.959368
vt 0.881774 0.958639
vt 0.882885 0.956796
vt 0.882988 0.956625
vt 0.883001 0.956604
vt 0.883110 0.956423
vt 0.882959 0.956673
vt 0.882731 0.957052
vt 0.882765 0.956995
vt 0.881477 0.959132
vt 0.880937 0.960027
vt 0.882673 0.957148
vt 0.882885 0.956796
vt 0.879026 0.963198
vt 0.879017 0.963212
vt 0.877504 0.965723
vt 0.877457 0.965800
vt 0.877471 0.965778
vt 0.877391 0.965910
vt 0.877380 0.965928
vt 0.878381 0.964267
vt 0.878685 0.963763
vt 0.879131 0.963024
vt 0.879026 0.963198
vt 0.878758 0.963643
vt 0.882605 0.957261
vt 0.877457 0.965800
vt 0.878332 0.964349
vt 0.878759 0.963641
vt 0.879125 0.963033
vt 0.879017 0.963212
vt 0.881452 0.959173
vt 0.883041 0.956537
vt 0.883110 0.956423
vt 0.882798 0.956940
vt 0.882769 0.956988
vt 0.882012 0.958244
vt 0.882137 0.958036
vt 0.879047 0.963163
vt 0.878657 0.963810
vt 0.878526 0.964027
vt 0.878248 0.964489
vt 0.877707 0.965386
vt 0.877951 0.964981
vt 0.878685 0.963763
vt 0.877471 0.965778
vt 0.877504 0.965723
vt 0.879026 0.963198
vt 0.877717 0.965369
vt 0.877951 0.964981
vt 0.877707 0.965386
vt 0.877380 0.965928
vt 0.877391 0.965910
vt 0.878248 0.964489
vt 0.878332 0.964349
vt 0.877457 0.965800
vt 0.878657 0.963810
vt 0.879125 0.963033
vt 0.882798 0.956940
vt 0.881452 0.959173
vt 0.882988 0.956625
vt 0.883110 0.956423
vt 0.881774 0.958639
vt 0.881334 0.959368
vt 0.879017 0.963212
vt 0.880937 0.960027
vt 0.881384 0.959285
vt 0.881477 0.959132
vt 0.882673 0.957148

f 1/1/1 3/3/3 2/2/2
f 4/4/4 6/6/6 5/5/5
f 7/7/7 9/9/9 8/8/8
f 10/10/10 12/12/12 11/11/11
f 10/10/10 14/14/14 13/13/13
f 13/13/13 14/14/14 15/15/15
f 13/13/13 15/15/15 16/16/16
f 17/17/17 19/19/19 18/18/18
f 20/20/20 17/17/17 21/21/21
f 22/22/22 20/20/20 21/21/21
f 23/23/23 20/20/20 22/22/22
f 24/24/24 26/26/26 25/25/25
f 27/27/27 29/29/29 28/28/28
f 29/29/29 30/30/30 28/28/28
f 31/31/31 33/33/33 32/32/32
f 34/34/34 32/32/32 33/33/33
f 34/34/34 33/33/33 35/35/35
f 34/34/34 36/36/36 32/32/32
f 37/37/37 36/36/36 34/34/34
f 34/34/34 39/39/39 38/38/38
f 40/40/40 38/38/38 39/39/39
f 40/40/40 41/41/41 38/38/38
f 42/42/42 38/38/38 41/41/41
f 43/43/43 41/41/41 40/40/40
f 44/44/44 42/42/42 41/41/41
f 45/45/45 42/42/42 44/44/44
f 46/46/46 39/39/39 47/47/47
f 46/46/46 47/47/47 48/48/48
f 46/46/46 48/48/48 49/49/49
f 46/46/46 49/49/49 50/50/50
f 46/46/46 50/50/50 51/51/51
f 51/51/51 52/52/52 46/46/46
f 51/51/51 43/43/43 52/52/52
f 50/50/50 53/53/53 51/51/51
f 53/53/53 54/54/54 51/51/51
f 51/51/51 55/55/55 43/43/43
f 56/56/56 43/43/43 55/55/55
f 55/55/55 57/57/57 56/56/56
f 55/55/55 58/58/58 57/57/57
f 59/59/59 57/57/57 58/58/58
f 60/60/60 62/62/62 61/61/61
f 62/62/62 63/63/63 61/61/61
f 64/64/64 61/61/61 63/63/63
f 62/62/62 65/65/65 63/63/63
f 65/65/65 62/62/62 66/66/66
f 62/62/62 67/67/67 66/66/66
f 67/67/67 68/68/68 66/66/66
f 69/69/69 68/68/68 67/67/67
f 69/69/69 70/70/70 68/68/68
f 70/70/70 69/69/69 71/71/71
f 72/72/72 71/71/71 69/69/69
f 72/72/72 69/69/69 73/73/73
f 74/74/74 72/72/72 73/73/73
f 72/72/72 74/74/74 75/75/75
f 76/76/76 74/74/74 73/73/73
f 73/73/73 77/77/77 76/76/76
f 65/65/65 79/79/79 78/78/78
f 79/79/79 80/80/80 78/78/78
f 81/81/81 80/80/80 79/79/79
f 82/82/82 80/80/80 81/81/81
f 83/83/83 82/82/82 81/81/81
f 81/81/81 84/84/84 83/83/83
f 83/83/83 85/85/85 82/82/82
f 85/85/85 86/86/86 82/82/82
f 85/85/85 87/87/87 86/86/86
f 87/87/87 88/88/88 86/86/86
f 63/63/63 88/88/88 87/87/87
f 85/85/85 89/89/89 87/87/87
f 63/63/63 87/87/87 64/64/64
f 64/64/64 87/87/87 89/89/89
f 64/64/64 89/89/89 90/90/90
f 91/91/91 93/93/93 92/92/92
f 92/92/92 93/93/93 94/94/94
f 93/93/93 95/95/95 94/94/94
f 95/95/95 96/96/96 94/94/94
f 97/97/97 99/99/99 98/98/98
f 100/100/100 99/99/99 97/97/97
f 101/101/101 100/100/100 97/97/97
f 101/101/101 97/97/97 102/102/102
f 103/103/103 99/99/99 100/100/100
f 103/103/103 104/104/104 99/99/99
f 104/104/104 103/103/103 105/105/105
f 104/104/104 105/105/105 106/106/106
f 105/105/105 107/107/107 106/106/106
f 105/105/105 108/108/108 107/107/107
f 109/109/109 111/111/111 110/110/110
f 109/109/109 112/112/112 111/111/111
f 113/113/113 115/115/115 114/114/114
f 113/113/113 116/116/116 115/115/115
f 113/113/113 117/117/117 116/116/116
f 118/118/118 115/115/115 116/116/116
f 116/116/116 119/119/119 118/118/118
f 116/116/116 120/120/120 119/119/119
f 118/118/118 119/119/119 121/121/121
f 119/119/119 122/122/122 121/121/121
f 123/123/123 121/121/121 122/122/122
f 123/123/123 122/122/122 124/124/124
f 124/124/124 125/125/125 123/123/123
f 123/123/123 125/125/125 126/126/126
f 124/124/124 127/127/127 125/125/125
f 128/128/128 127/127/127 124/124/124
f 129/129/129 128/128/128 124/124/124
f 130/130/130 132/132/132 131/131/131
f 133/133/133 131/131/131 132/132/132
