# Stone_001
# Exported by MapExporter (Unity -> DirectX12)
# Vertices: 83  Triangles: 78

v 1.470620 0.603574 0.078759
v 1.122643 0.810837 -0.106566
v 1.392803 0.606456 -0.335988
v 1.630890 0.000000 0.148088
v 1.470620 0.603574 0.078759
v 1.553253 0.000000 -0.268199
v 2.138859 0.000000 1.549002
v 1.996527 0.601334 1.454854
v 2.067456 0.000000 1.907660
v 1.929198 0.606465 1.810924
v 1.470620 0.603574 0.078759
v 1.781749 0.810837 1.576254
v 1.122643 0.810837 -0.106566
v -0.643531 0.810837 1.310167
v 1.125802 0.810837 2.272514
v -0.024072 0.810837 2.340581
v 1.036437 0.606127 2.545270
v 0.065955 0.606127 2.602719
v -0.257681 0.601714 2.430678
v -0.280370 0.000000 2.596705
v 0.047511 0.000000 2.767019
v 1.116402 0.000000 2.703745
v 1.036437 0.606127 2.545270
v 1.395355 0.606465 2.377575
v 1.475364 0.000000 2.536139
v 2.067456 0.000000 1.907660
v 1.125802 0.810837 2.272514
v 1.929198 0.606465 1.810924
v 1.781749 0.810837 1.576254
v -0.797819 0.000000 1.781482
v -0.726765 0.603283 1.666725
v -0.257681 0.601714 2.430678
v 0.313231 0.604446 -2.358968
v 0.099895 0.810837 -2.196406
v -0.052840 0.604260 -2.415559
v -0.052840 0.604260 -2.415559
v 0.339375 0.000000 -2.517253
v -0.026112 0.000000 -2.576555
v -1.019326 0.000000 -2.199736
v -0.052840 0.604260 -2.415559
v -0.951569 0.604831 -2.070238
v 0.099895 0.810837 -2.196406
v -1.319209 0.604753 -1.866666
v -1.386715 0.000000 -1.996444
v -1.022412 0.810837 -1.761948
v 1.133323 0.810837 -1.366930
v 0.313231 0.604446 -2.358968
v -1.597922 0.810837 -1.331580
v 1.226545 0.603659 -1.621417
v 0.339375 0.000000 -2.517253
v 1.391021 0.604023 -1.274910
v 1.363889 0.000000 -1.680969
v 1.533134 0.000000 -1.333309
v -1.896903 0.810837 0.110479
v -0.989703 0.604129 1.337261
v -2.020822 0.602602 0.340180
v -2.131794 0.603416 -0.016028
v -2.268049 0.000000 0.012893
v -2.158821 0.000000 0.371407
v -1.062986 0.000000 1.452657
v -0.726765 0.603283 1.666725
v -0.797819 0.000000 1.781482
v -0.257681 0.601714 2.430678
v -0.726765 0.603283 1.666725
v -0.024072 0.810837 2.340581
v -2.131794 0.603416 -0.016028
v -1.896903 0.810837 0.110479
v -1.871434 0.603593 -1.275909
v -2.268049 0.000000 0.012893
v -1.984550 0.000000 -1.367351
v -1.772391 0.000000 -1.704381
v -1.871434 0.603593 -1.275909
v -1.657946 0.604439 -1.611706
v -1.319209 0.604753 -1.866666
v -1.386715 0.000000 -1.996444
v -1.022412 0.810837 -1.761948
v -1.597922 0.810837 -1.331580
v -1.871434 0.603593 -1.275909
v 1.533134 0.000000 -1.333309
v 1.553253 0.000000 -0.268199
v 1.392803 0.606456 -0.335988
v 1.391021 0.604023 -1.274910
v 1.133323 0.810837 -1.366930

vn 0.860400 0.418914 -0.290214
vn 0.051727 0.998595 -0.011469
vn 0.891991 0.449310 -0.049734
vn 0.931395 0.196200 -0.306608
vn 0.860400 0.418914 -0.290214
vn 0.968787 0.240387 -0.060540
vn 0.948632 0.202432 -0.243142
vn 0.876453 0.417132 -0.240482
vn 0.803086 0.269100 0.531638
vn 0.734396 0.454455 0.504116
vn 0.860400 0.418914 -0.290214
vn 0.042980 0.999076 0.000467
vn 0.051727 0.998595 -0.011469
vn -0.039993 0.998658 0.032895
vn 0.014294 0.999330 0.033682
vn -0.017197 0.999322 0.032555
vn 0.135932 0.454047 0.880548
vn -0.060551 0.452674 0.889618
vn -0.704567 0.415001 0.575639
vn -0.744015 0.210069 0.634282
vn -0.079221 0.263985 0.961268
vn 0.157163 0.269159 0.950186
vn 0.135932 0.454047 0.880548
vn 0.576882 0.455258 0.678194
vn 0.614153 0.274480 0.739917
vn 0.803086 0.269100 0.531638
vn 0.014294 0.999330 0.033682
vn 0.734396 0.454455 0.504116
vn 0.042980 0.999076 0.000467
vn -0.812356 0.193253 0.550210
vn -0.758344 0.410641 0.506249
vn -0.704567 0.415001 0.575639
vn 0.492178 0.427142 -0.758492
vn 0.007827 0.999176 -0.039829
vn -0.216320 0.438879 -0.872119
vn -0.216320 0.438879 -0.872119
vn 0.519966 0.234101 -0.821481
vn -0.218333 0.243964 -0.944888
vn -0.384038 0.232049 -0.893683
vn -0.216320 0.438879 -0.872119
vn -0.353465 0.429724 -0.830903
vn 0.007827 0.999176 -0.039829
vn -0.499560 0.427293 -0.753565
vn -0.531998 0.233475 -0.813921
vn -0.015541 0.999406 -0.030746
vn 0.037744 0.999099 -0.019392
vn 0.492178 0.427142 -0.758492
vn -0.034653 0.999278 -0.015596
vn 0.633333 0.422029 -0.648676
vn 0.519966 0.234101 -0.821481
vn 0.890403 0.443487 -0.102475
vn 0.687772 0.229129 -0.688818
vn 0.960683 0.247070 -0.126671
vn -0.047852 0.998714 0.016757
vn -0.647961 0.421343 0.634521
vn -0.686402 0.421245 0.592795
vn -0.903592 0.417057 -0.097907
vn -0.971789 0.216415 -0.093762
vn -0.747968 0.213110 0.628592
vn -0.702391 0.205759 0.681404
vn -0.758344 0.410641 0.506249
vn -0.812356 0.193253 0.550210
vn -0.704567 0.415001 0.575639
vn -0.758344 0.410641 0.506249
vn -0.017197 0.999322 0.032555
vn -0.903592 0.417057 -0.097907
vn -0.047852 0.998714 0.016757
vn -0.875132 0.415513 -0.247977
vn -0.971789 0.216415 -0.093762
vn -0.937007 0.216431 -0.274182
vn -0.707092 0.236022 -0.666569
vn -0.875132 0.415513 -0.247977
vn -0.646829 0.425819 -0.632685
vn -0.499560 0.427293 -0.753565
vn -0.531998 0.233475 -0.813921
vn -0.015541 0.999406 -0.030746
vn -0.034653 0.999278 -0.015596
vn -0.875132 0.415513 -0.247977
vn 0.960683 0.247070 -0.126671
vn 0.968787 0.240387 -0.060540
vn 0.891991 0.449310 -0.049734
vn 0.890403 0.443487 -0.102475
vn 0.037744 0.999099 -0.019392

vt 0.863761 0.944948
vt 0.866005 0.939414
vt 0.863792 0.944871
vt 0.857227 0.961064
vt 0.863761 0.944948
vt 0.857227 0.961064
vt 0.857227 0.961064
vt 0.863737 0.945008
vt 0.857227 0.961064
vt 0.863792 0.944871
vt 0.863761 0.944948
vt 0.866005 0.939414
vt 0.866005 0.939414
vt 0.866005 0.939414
vt 0.866005 0.939414
vt 0.866005 0.939414
vt 0.863789 0.944880
vt 0.863789 0.944880
vt 0.863741 0.944998
vt 0.857227 0.961064
vt 0.857227 0.961064
vt 0.857227 0.961064
vt 0.863789 0.944880
vt 0.863792 0.944871
vt 0.857227 0.961064
vt 0.857227 0.961064
vt 0.866005 0.939414
vt 0.863792 0.944871
vt 0.866005 0.939414
vt 0.857227 0.961064
vt 0.863758 0.944956
vt 0.863741 0.944998
vt 0.863771 0.944925
vt 0.866005 0.939414
vt 0.863769 0.944930
vt 0.863769 0.944930
vt 0.857227 0.961064
vt 0.857227 0.961064
vt 0.857227 0.961064
vt 0.863769 0.944930
vt 0.863775 0.944915
vt 0.866005 0.939414
vt 0.863774 0.944917
vt 0.857227 0.961064
vt 0.866005 0.939414
vt 0.866005 0.939414
vt 0.863771 0.944925
vt 0.866005 0.939414
vt 0.863762 0.944946
vt 0.857227 0.961064
vt 0.863766 0.944936
vt 0.857227 0.961064
vt 0.857227 0.961064
vt 0.866005 0.939414
vt 0.863767 0.944934
vt 0.863751 0.944974
vt 0.863759 0.944953
vt 0.857227 0.961064
vt 0.857227 0.961064
vt 0.857227 0.961064
vt 0.863758 0.944956
vt 0.857227 0.961064
vt 0.863741 0.944998
vt 0.863758 0.944956
vt 0.866005 0.939414
vt 0.863759 0.944953
vt 0.866005 0.939414
vt 0.863761 0.944948
vt 0.857227 0.961064
vt 0.857227 0.961064
vt 0.857227 0.961064
vt 0.863761 0.944948
vt 0.863770 0.944925
vt 0.863774 0.944917
vt 0.857227 0.961064
vt 0.866005 0.939414
vt 0.866005 0.939414
vt 0.863761 0.944948
vt 0.857227 0.961064
vt 0.857227 0.961064
vt 0.863792 0.944871
vt 0.863766 0.944936
vt 0.866005 0.939414

f 1/1/1 3/3/3 2/2/2
f 4/4/4 3/3/3 5/5/5
f 4/4/4 6/6/6 3/3/3
f 4/4/4 8/8/8 7/7/7
f 8/8/8 9/9/9 7/7/7
f 8/8/8 10/10/10 9/9/9
f 4/4/4 11/11/11 8/8/8
f 10/10/10 8/8/8 12/12/12
f 11/11/11 12/12/12 8/8/8
f 11/11/11 13/13/13 12/12/12
f 12/12/12 13/13/13 14/14/14
f 15/15/15 12/12/12 14/14/14
f 14/14/14 16/16/16 15/15/15
f 17/17/17 15/15/15 16/16/16
f 17/17/17 16/16/16 18/18/18
f 19/19/19 18/18/18 16/16/16
f 20/20/20 18/18/18 19/19/19
f 20/20/20 21/21/21 18/18/18
f 22/22/22 18/18/18 21/21/21
f 22/22/22 23/23/23 18/18/18
f 24/24/24 23/23/23 22/22/22
f 24/24/24 22/22/22 25/25/25
f 26/26/26 24/24/24 25/25/25
f 23/23/23 24/24/24 27/27/27
f 26/26/26 28/28/28 24/24/24
f 28/28/28 27/27/27 24/24/24
f 28/28/28 29/29/29 27/27/27
f 20/20/20 31/31/31 30/30/30
f 20/20/20 32/32/32 31/31/31
f 33/33/33 35/35/35 34/34/34
f 36/36/36 33/33/33 37/37/37
f 36/36/36 37/37/37 38/38/38
f 39/39/39 40/40/40 38/38/38
f 39/39/39 41/41/41 40/40/40
f 41/41/41 42/42/42 40/40/40
f 43/43/43 41/41/41 39/39/39
f 43/43/43 39/39/39 44/44/44
f 41/41/41 43/43/43 45/45/45
f 41/41/41 45/45/45 42/42/42
f 46/46/46 42/42/42 45/45/45
f 47/47/47 42/42/42 46/46/46
f 13/13/13 46/46/46 45/45/45
f 45/45/45 48/48/48 13/13/13
f 47/47/47 46/46/46 49/49/49
f 50/50/50 47/47/47 49/49/49
f 51/51/51 49/49/49 46/46/46
f 50/50/50 49/49/49 52/52/52
f 49/49/49 51/51/51 53/53/53
f 49/49/49 53/53/53 52/52/52
f 48/48/48 54/54/54 13/13/13
f 54/54/54 14/14/14 13/13/13
f 55/55/55 14/14/14 54/54/54
f 55/55/55 54/54/54 56/56/56
f 57/57/57 56/56/56 54/54/54
f 56/56/56 57/57/57 58/58/58
f 56/56/56 58/58/58 59/59/59
f 60/60/60 56/56/56 59/59/59
f 60/60/60 55/55/55 56/56/56
f 61/61/61 55/55/55 60/60/60
f 61/61/61 14/14/14 55/55/55
f 61/61/61 60/60/60 62/62/62
f 63/63/63 14/14/14 64/64/64
f 63/63/63 65/65/65 14/14/14
f 66/66/66 67/67/67 48/48/48
f 66/66/66 48/48/48 68/68/68
f 69/69/69 66/66/66 68/68/68
f 69/69/69 68/68/68 70/70/70
f 71/71/71 70/70/70 72/72/72
f 71/71/71 72/72/72 73/73/73
f 71/71/71 73/73/73 74/74/74
f 71/71/71 74/74/74 75/75/75
f 73/73/73 76/76/76 74/74/74
f 73/73/73 77/77/77 76/76/76
f 73/73/73 78/78/78 77/77/77
f 79/79/79 81/81/81 80/80/80
f 79/79/79 82/82/82 81/81/81
f 82/82/82 13/13/13 81/81/81
f 82/82/82 83/83/83 13/13/13
