# StoneSmall_004
# Exported by MapExporter (Unity -> DirectX12)
# Vertices: 126  Triangles: 104

v -0.055996 -0.325135 0.647534
v -0.593506 -0.464348 0.172343
v -0.828018 0.100278 0.334944
v 0.074138 -0.389692 0.668174
v -0.434438 -0.521412 0.218563
v 0.419366 -0.653959 0.458820
v 0.517843 -0.683311 0.382690
v 0.228062 0.592268 -0.493728
v -0.087768 -0.316030 -0.739861
v 0.741512 -0.285311 -0.416040
v 0.807885 -0.226517 -0.350791
v 0.319920 0.607507 -0.424623
v 0.888710 0.266286 0.041714
v 0.775802 -0.370321 -0.358950
v 0.095950 -0.395505 -0.624422
v 0.757018 -0.538667 -0.077281
v -0.828018 0.100278 0.334944
v -0.893431 0.124347 0.250826
v -0.873299 0.223477 0.280580
v -0.593506 -0.464348 0.172343
v -0.662458 -0.431756 0.090680
v -0.534093 -0.525934 0.085233
v -0.434438 -0.521412 0.218563
v 0.517843 -0.683311 0.382690
v -0.055996 -0.325135 0.647534
v 0.223234 0.693100 -0.401115
v 0.455698 0.417344 0.550975
v -0.311124 0.661933 0.405370
v 0.114553 0.714240 -0.433287
v -0.367113 0.681288 0.290088
v -0.478649 0.690307 -0.485517
v -0.564509 0.638447 -0.489384
v -0.511271 0.633521 -0.539317
v -0.452852 0.638225 0.377386
v -0.873299 0.223477 0.280580
v -0.913896 0.038244 -0.455404
v -0.866581 0.000243 -0.528440
v -0.868618 -0.085413 -0.482945
v -0.258359 -0.358367 -0.694386
v -0.610042 -0.476470 0.010499
v -0.197556 -0.300422 -0.746499
v -0.147183 -0.393687 -0.689417
v -0.534093 -0.525934 0.085233
v -0.087768 -0.316030 -0.739861
v 0.228062 0.592268 -0.493728
v 0.134354 0.660788 -0.501994
v 0.095950 -0.395505 -0.624422
v 0.741512 -0.285311 -0.416040
v 0.732585 -0.589884 0.037503
v 0.757018 -0.538667 -0.077281
v 0.319920 0.607507 -0.424623
v 0.223234 0.693100 -0.401115
v 0.114553 0.714240 -0.433287
v 0.857845 0.320847 0.118476
v 0.888710 0.266286 0.041714
v 0.889453 0.240289 0.146087
v 0.907333 0.101858 0.035179
v 0.807885 -0.226517 -0.350791
v 0.784504 -0.542105 0.079842
v 0.837609 -0.323257 -0.303416
v 0.775802 -0.370321 -0.358950
v 0.757018 -0.538667 -0.077281
v 0.818825 -0.491609 -0.021739
v 0.732585 -0.589884 0.037503
v 0.517843 -0.683311 0.382690
v 0.079048 -0.221056 0.702892
v -0.297367 0.586669 0.477984
v 0.393699 0.376054 0.609843
v 0.455698 0.417344 0.550975
v -0.311124 0.661933 0.405370
v 0.732585 -0.589884 0.037503
v -0.147183 -0.393687 -0.689417
v -0.534093 -0.525934 0.085233
v 0.517843 -0.683311 0.382690
v 0.486332 0.348128 0.577835
v 0.529181 -0.650260 0.418842
v 0.142398 -0.328629 0.697813
v 0.889453 0.240289 0.146087
v 0.784504 -0.542105 0.079842
v 0.517843 -0.683311 0.382690
v 0.857845 0.320847 0.118476
v 0.455698 0.417344 0.550975
v 0.223234 0.693100 -0.401115
v 0.393699 0.376054 0.609843
v 0.455698 0.417344 0.550975
v 0.486332 0.348128 0.577835
v 0.079048 -0.221056 0.702892
v 0.142398 -0.328629 0.697813
v 0.074138 -0.389692 0.668174
v 0.419366 -0.653959 0.458820
v 0.529181 -0.650260 0.418842
v 0.517843 -0.683311 0.382690
v -0.055996 -0.325135 0.647534
v -0.047101 -0.215202 0.672959
v -0.828018 0.100278 0.334944
v -0.821591 0.211571 0.359369
v -0.297367 0.586669 0.477984
v -0.420441 0.585926 0.449888
v -0.311124 0.661933 0.405370
v -0.367113 0.681288 0.290088
v 0.114553 0.714240 -0.433287
v 0.223234 0.693100 -0.401115
v -0.311124 0.661933 0.405370
v -0.452852 0.638225 0.377386
v -0.420441 0.585926 0.449888
v -0.821591 0.211571 0.359369
v -0.873299 0.223477 0.280580
v -0.828018 0.100278 0.334944
v -0.662458 -0.431756 0.090680
v -0.893431 0.124347 0.250826
v -0.915593 -0.048930 -0.392380
v -0.610042 -0.476470 0.010499
v -0.534093 -0.525934 0.085233
v -0.868618 -0.085413 -0.482945
v -0.913896 0.038244 -0.455404
v -0.873299 0.223477 0.280580
v -0.197556 -0.300422 -0.746499
v -0.511271 0.633521 -0.539317
v -0.866581 0.000243 -0.528440
v 0.134354 0.660788 -0.501994
v -0.478649 0.690307 -0.485517
v 0.114553 0.714240 -0.433287
v 0.732585 -0.589884 0.037503
v 0.818825 -0.491609 -0.021739
v 0.757018 -0.538667 -0.077281
v 0.837609 -0.323257 -0.303416

vn -0.478708 -0.457533 0.749335
vn -0.434640 -0.574589 0.693496
vn -0.589002 -0.305222 0.748276
vn -0.353733 -0.603604 0.714517
vn -0.310108 -0.778927 0.545074
vn -0.169832 -0.736509 0.654761
vn -0.013647 -0.957544 -0.287965
vn 0.366283 0.257694 -0.894109
vn 0.362076 -0.109581 -0.925685
vn 0.379137 -0.004239 -0.925331
vn 0.745150 0.196884 -0.637172
vn 0.678172 0.451025 -0.580224
vn 0.708340 0.485150 -0.512722
vn 0.362281 -0.659505 -0.658639
vn 0.263422 -0.729549 -0.631163
vn 0.282537 -0.843161 -0.457442
vn -0.589002 -0.305222 0.748276
vn -0.977709 -0.165810 0.128807
vn -0.925431 0.377768 0.029468
vn -0.434640 -0.574589 0.693496
vn -0.821546 -0.529038 0.212558
vn 0.066677 -0.958202 -0.278213
vn -0.310108 -0.778927 0.545074
vn -0.013647 -0.957544 -0.287965
vn -0.478708 -0.457533 0.749335
vn 0.255528 0.941461 0.219900
vn 0.350873 0.890516 0.289604
vn 0.376942 0.845643 0.377894
vn -0.077879 0.996255 0.037561
vn -0.083054 0.996510 0.008325
vn -0.016902 0.993684 -0.110940
vn -0.784762 0.618801 -0.035137
vn -0.078231 0.326050 -0.942110
vn -0.770737 0.580773 0.262045
vn -0.925431 0.377768 0.029468
vn -0.974743 0.202257 -0.094696
vn -0.343291 -0.038738 -0.938430
vn -0.590533 -0.642883 -0.487825
vn -0.486681 -0.729061 -0.481260
vn -0.483319 -0.797578 -0.360932
vn -0.070059 -0.002241 -0.997540
vn -0.061226 -0.959617 -0.274565
vn 0.066677 -0.958202 -0.278213
vn 0.362076 -0.109581 -0.925685
vn 0.366283 0.257694 -0.894109
vn -0.020472 0.422410 -0.906174
vn 0.263422 -0.729549 -0.631163
vn 0.379137 -0.004239 -0.925331
vn -0.187932 -0.942644 -0.275868
vn 0.282537 -0.843161 -0.457442
vn 0.678172 0.451025 -0.580224
vn 0.255528 0.941461 0.219900
vn -0.077879 0.996255 0.037561
vn 0.573333 0.799105 0.180887
vn 0.708340 0.485150 -0.512722
vn 0.744645 0.128593 0.654956
vn 0.999104 -0.042140 -0.003817
vn 0.745150 0.196884 -0.637172
vn 0.781289 -0.351526 0.515769
vn 0.938862 -0.308681 -0.152493
vn 0.362281 -0.659505 -0.658639
vn 0.282537 -0.843161 -0.457442
vn 0.949455 -0.313063 -0.022963
vn -0.187932 -0.942644 -0.275868
vn -0.013647 -0.957544 -0.287965
vn -0.086074 0.082053 0.992904
vn -0.100347 0.355164 0.929402
vn -0.019863 0.248974 0.968307
vn 0.350873 0.890516 0.289604
vn 0.376942 0.845643 0.377894
vn -0.187932 -0.942644 -0.275868
vn -0.061226 -0.959617 -0.274565
vn 0.066677 -0.958202 -0.278213
vn -0.013647 -0.957544 -0.287965
vn 0.587734 0.093991 0.803576
vn 0.644524 -0.258654 0.719504
vn 0.425822 -0.075687 0.901636
vn 0.744645 0.128593 0.654956
vn 0.781289 -0.351526 0.515769
vn -0.013647 -0.957544 -0.287965
vn 0.573333 0.799105 0.180887
vn 0.350873 0.890516 0.289604
vn 0.255528 0.941461 0.219900
vn -0.019863 0.248974 0.968307
vn 0.350873 0.890516 0.289604
vn 0.587734 0.093991 0.803576
vn -0.086074 0.082053 0.992904
vn 0.425822 -0.075687 0.901636
vn -0.353733 -0.603604 0.714517
vn -0.169832 -0.736509 0.654761
vn 0.644524 -0.258654 0.719504
vn -0.013647 -0.957544 -0.287965
vn -0.478708 -0.457533 0.749335
vn -0.324410 0.008285 0.945880
vn -0.589002 -0.305222 0.748276
vn -0.412943 0.272871 0.868919
vn -0.100347 0.355164 0.929402
vn -0.347224 0.270483 0.897928
vn 0.376942 0.845643 0.377894
vn -0.083054 0.996510 0.008325
vn -0.077879 0.996255 0.037561
vn 0.255528 0.941461 0.219900
vn 0.376942 0.845643 0.377894
vn -0.770737 0.580773 0.262045
vn -0.347224 0.270483 0.897928
vn -0.412943 0.272871 0.868919
vn -0.925431 0.377768 0.029468
vn -0.589002 -0.305222 0.748276
vn -0.821546 -0.529038 0.212558
vn -0.977709 -0.165810 0.128807
vn -0.948259 -0.304654 0.089394
vn -0.483319 -0.797578 -0.360932
vn 0.066677 -0.958202 -0.278213
vn -0.590533 -0.642883 -0.487825
vn -0.974743 0.202257 -0.094696
vn -0.925431 0.377768 0.029468
vn -0.070059 -0.002241 -0.997540
vn -0.078231 0.326050 -0.942110
vn -0.343291 -0.038738 -0.938430
vn -0.020472 0.422410 -0.906174
vn -0.016902 0.993684 -0.110940
vn -0.077879 0.996255 0.037561
vn -0.187932 -0.942644 -0.275868
vn 0.949455 -0.313063 -0.022963
vn 0.282537 -0.843161 -0.457442
vn 0.938862 -0.308681 -0.152493

vt 0.874036 0.971430
vt 0.873065 0.973043
vt 0.877006 0.966503
vt 0.873586 0.972178
vt 0.872666 0.973703
vt 0.871741 0.975239
vt 0.871536 0.975578
vt 0.880441 0.960805
vt 0.874100 0.971325
vt 0.874314 0.970969
vt 0.874725 0.970288
vt 0.880547 0.960629
vt 0.878165 0.964581
vt 0.873721 0.971954
vt 0.873545 0.972245
vt 0.872546 0.973903
vt 0.877006 0.966503
vt 0.877174 0.966225
vt 0.877866 0.965077
vt 0.873065 0.973043
vt 0.873292 0.972665
vt 0.872635 0.973756
vt 0.872666 0.973703
vt 0.871536 0.975578
vt 0.874036 0.971430
vt 0.881145 0.959638
vt 0.879220 0.962831
vt 0.880927 0.959999
vt 0.881292 0.959393
vt 0.881062 0.959774
vt 0.881125 0.959670
vt 0.880763 0.960271
vt 0.880729 0.960328
vt 0.880762 0.960273
vt 0.877866 0.965077
vt 0.876573 0.967222
vt 0.876308 0.967662
vt 0.875710 0.968654
vt 0.873804 0.971815
vt 0.872980 0.973183
vt 0.874209 0.971144
vt 0.873558 0.972224
vt 0.872635 0.973756
vt 0.874100 0.971325
vt 0.880441 0.960805
vt 0.880919 0.960012
vt 0.873545 0.972245
vt 0.874314 0.970969
vt 0.872188 0.974496
vt 0.872546 0.973903
vt 0.880547 0.960629
vt 0.881145 0.959638
vt 0.881292 0.959393
vt 0.878546 0.963949
vt 0.878165 0.964581
vt 0.877984 0.964882
vt 0.877017 0.966485
vt 0.874725 0.970288
vt 0.872522 0.973943
vt 0.874049 0.971409
vt 0.873721 0.971954
vt 0.872546 0.973903
vt 0.872874 0.973358
vt 0.872188 0.974496
vt 0.871536 0.975578
vt 0.874763 0.970225
vt 0.880402 0.960870
vt 0.878932 0.963309
vt 0.879220 0.962831
vt 0.880927 0.959999
vt 0.872188 0.974496
vt 0.873558 0.972224
vt 0.872635 0.973756
vt 0.871536 0.975578
vt 0.878737 0.963633
vt 0.871767 0.975196
vt 0.874012 0.971471
vt 0.877984 0.964882
vt 0.872522 0.973943
vt 0.871536 0.975578
vt 0.878546 0.963949
vt 0.879220 0.962831
vt 0.881145 0.959638
vt 0.878932 0.963309
vt 0.879220 0.962831
vt 0.878737 0.963633
vt 0.874763 0.970225
vt 0.874012 0.971471
vt 0.873586 0.972178
vt 0.871741 0.975239
vt 0.871767 0.975196
vt 0.871536 0.975578
vt 0.874036 0.971430
vt 0.874804 0.970157
vt 0.877006 0.966503
vt 0.877783 0.965214
vt 0.880402 0.960870
vt 0.880397 0.960879
vt 0.880927 0.959999
vt 0.881062 0.959774
vt 0.881292 0.959393
vt 0.881145 0.959638
vt 0.880927 0.959999
vt 0.880762 0.960273
vt 0.880397 0.960879
vt 0.877783 0.965214
vt 0.877866 0.965077
vt 0.877006 0.966503
vt 0.873292 0.972665
vt 0.877174 0.966225
vt 0.875965 0.968231
vt 0.872980 0.973183
vt 0.872635 0.973756
vt 0.875710 0.968654
vt 0.876573 0.967222
vt 0.877866 0.965077
vt 0.874209 0.971144
vt 0.880729 0.960328
vt 0.876308 0.967662
vt 0.880919 0.960012
vt 0.881125 0.959670
vt 0.881292 0.959393
vt 0.872188 0.974496
vt 0.872874 0.973358
vt 0.872546 0.973903
vt 0.874049 0.971409

f 1/1/1 3/3/3 2/2/2
f 1/1/1 5/5/5 4/4/4
f 5/5/5 6/6/6 4/4/4
f 5/5/5 7/7/7 6/6/6
f 8/8/8 10/10/10 9/9/9
f 10/10/10 12/12/12 11/11/11
f 11/11/11 12/12/12 13/13/13
f 14/14/14 10/10/10 11/11/11
f 15/15/15 10/10/10 14/14/14
f 16/16/16 15/15/15 14/14/14
f 17/17/17 19/19/19 18/18/18
f 17/17/17 21/21/21 20/20/20
f 22/22/22 20/20/20 21/21/21
f 22/22/22 23/23/23 20/20/20
f 23/23/23 22/22/22 24/24/24
f 25/25/25 20/20/20 23/23/23
f 26/26/26 28/28/28 27/27/27
f 29/29/29 31/31/31 30/30/30
f 32/32/32 30/30/30 31/31/31
f 32/32/32 31/31/31 33/33/33
f 32/32/32 34/34/34 30/30/30
f 35/35/35 34/34/34 32/32/32
f 35/35/35 32/32/32 36/36/36
f 32/32/32 33/33/33 37/37/37
f 32/32/32 37/37/37 36/36/36
f 38/38/38 36/36/36 37/37/37
f 39/39/39 38/38/38 37/37/37
f 40/40/40 38/38/38 39/39/39
f 39/39/39 37/37/37 41/41/41
f 42/42/42 40/40/40 39/39/39
f 42/42/42 39/39/39 41/41/41
f 42/42/42 43/43/43 40/40/40
f 41/41/41 44/44/44 42/42/42
f 41/41/41 45/45/45 44/44/44
f 41/41/41 46/46/46 45/45/45
f 44/44/44 47/47/47 42/42/42
f 47/47/47 44/44/44 48/48/48
f 47/47/47 49/49/49 42/42/42
f 47/47/47 50/50/50 49/49/49
f 48/48/48 45/45/45 51/51/51
f 46/46/46 52/52/52 45/45/45
f 52/52/52 51/51/51 45/45/45
f 53/53/53 52/52/52 46/46/46
f 54/54/54 51/51/51 52/52/52
f 54/54/54 55/55/55 51/51/51
f 56/56/56 55/55/55 54/54/54
f 56/56/56 57/57/57 55/55/55
f 57/57/57 58/58/58 55/55/55
f 57/57/57 56/56/56 59/59/59
f 57/57/57 60/60/60 58/58/58
f 61/61/61 58/58/58 60/60/60
f 60/60/60 62/62/62 61/61/61
f 60/60/60 57/57/57 63/63/63
f 57/57/57 59/59/59 63/63/63
f 64/64/64 63/63/63 59/59/59
f 59/59/59 65/65/65 64/64/64
f 66/66/66 68/68/68 67/67/67
f 67/67/67 68/68/68 69/69/69
f 67/67/67 69/69/69 70/70/70
f 71/71/71 73/73/73 72/72/72
f 71/71/71 74/74/74 73/73/73
f 75/75/75 77/77/77 76/76/76
f 78/78/78 75/75/75 76/76/76
f 79/79/79 78/78/78 76/76/76
f 79/79/79 76/76/76 80/80/80
f 75/75/75 78/78/78 81/81/81
f 75/75/75 81/81/81 82/82/82
f 83/83/83 82/82/82 81/81/81
f 84/84/84 86/86/86 85/85/85
f 87/87/87 86/86/86 84/84/84
f 87/87/87 88/88/88 86/86/86
f 89/89/89 88/88/88 87/87/87
f 90/90/90 88/88/88 89/89/89
f 90/90/90 91/91/91 88/88/88
f 92/92/92 91/91/91 90/90/90
f 93/93/93 89/89/89 87/87/87
f 87/87/87 94/94/94 93/93/93
f 95/95/95 93/93/93 94/94/94
f 95/95/95 94/94/94 96/96/96
f 94/94/94 87/87/87 97/97/97
f 98/98/98 96/96/96 94/94/94
f 94/94/94 97/97/97 98/98/98
f 98/98/98 97/97/97 99/99/99
f 100/100/100 102/102/102 101/101/101
f 100/100/100 103/103/103 102/102/102
f 103/103/103 100/100/100 104/104/104
f 103/103/103 104/104/104 105/105/105
f 104/104/104 106/106/106 105/105/105
f 104/104/104 107/107/107 106/106/106
f 108/108/108 106/106/106 107/107/107
f 108/108/108 110/110/110 109/109/109
f 109/109/109 110/110/110 111/111/111
f 112/112/112 109/109/109 111/111/111
f 109/109/109 112/112/112 113/113/113
f 112/112/112 111/111/111 114/114/114
f 114/114/114 111/111/111 115/115/115
f 110/110/110 115/115/115 111/111/111
f 110/110/110 116/116/116 115/115/115
f 117/117/117 119/119/119 118/118/118
f 117/117/117 118/118/118 120/120/120
f 121/121/121 120/120/120 118/118/118
f 121/121/121 122/122/122 120/120/120
f 123/123/123 125/125/125 124/124/124
f 126/126/126 124/124/124 125/125/125
