# Stone_006
# Exported by MapExporter (Unity -> DirectX12)
# Vertices: 82  Triangles: 78

v -1.512258 0.702825 1.043361
v -1.007727 0.909073 1.012066
v -1.153732 0.703296 1.485709
v -1.348866 0.000000 1.609188
v -1.512258 0.702825 1.043361
v -1.711799 0.000000 1.168893
v -3.837853 0.000000 -0.703224
v -1.512258 0.702825 1.043361
v -3.450112 0.702254 -0.651882
v -1.007727 0.909073 1.012066
v -3.692271 0.712268 -1.139954
v -4.075507 0.000000 -1.193223
v -3.285036 0.909073 -0.974878
v -0.152177 0.909073 2.549197
v -1.153732 0.703296 1.485709
v -0.507058 0.701617 2.626987
v -1.348866 0.000000 1.609188
v -0.565708 0.000000 2.947141
v -0.136452 0.000000 3.278937
v -0.084024 0.708013 2.964155
v 2.439408 0.909073 1.523557
v 1.667528 0.909073 3.071360
v 1.850326 0.909073 -1.171639
v 0.056158 0.909073 -1.427858
v -1.945118 0.909073 -2.233983
v -3.285036 0.909073 -0.974878
v -3.373201 0.909073 -2.352834
v -3.763096 0.708812 -2.444296
v -3.692271 0.712268 -1.139954
v -4.125158 0.000000 -2.711663
v -4.075507 0.000000 -1.193223
v 1.761885 0.700386 -1.526989
v 0.429466 0.700386 -1.717267
v 1.991709 0.000000 -1.665860
v 0.470125 0.000000 -1.883152
v 2.258240 0.704584 -1.280831
v 2.487345 0.000000 -1.418510
v 3.360623 0.000000 -0.535694
v 3.040430 0.703829 -0.500418
v 2.839276 0.909073 -0.191824
v 3.182446 0.706906 -0.010302
v 3.040430 0.703829 -0.500418
v 3.507638 0.000000 -0.042625
v 3.167534 0.000000 1.563867
v 2.865463 0.709115 1.389242
v 2.839276 0.909073 -0.191824
v 3.040430 0.703829 -0.500418
v 1.850326 0.909073 -1.171639
v 2.670370 0.710055 1.929837
v 2.865463 0.709115 1.389242
v 2.978582 0.000000 2.106176
v 2.226793 0.000000 3.613691
v 2.011066 0.710055 3.251897
v 2.439408 0.909073 1.523557
v 2.865463 0.709115 1.389242
v 1.667528 0.909073 3.071360
v 1.590390 0.705934 3.435304
v 1.803919 0.000000 3.800073
v -0.136452 0.000000 3.278937
v -0.084024 0.708013 2.964155
v -0.152177 0.909073 2.549197
v -2.227074 0.704889 -2.624886
v -1.655200 0.701244 -2.489616
v -2.417681 0.000000 -2.903254
v -1.655200 0.701244 -2.489616
v -1.845867 0.000000 -2.769293
v -3.373201 0.909073 -2.352834
v -2.227074 0.704889 -2.624886
v -3.477743 0.703203 -2.720178
v -3.373201 0.909073 -2.352834
v -3.763096 0.708812 -2.444296
v -4.125158 0.000000 -2.711663
v -3.827746 0.000000 -2.991397
v -2.417681 0.000000 -2.903254
v -2.227074 0.704889 -2.624886
v -0.082212 0.000000 -2.034950
v -1.655200 0.701244 -2.489616
v -0.124126 0.700352 -1.865964
v -1.945118 0.909073 -2.233983
v 0.056158 0.909073 -1.427858
v 0.429466 0.700386 -1.717267
v 0.470125 0.000000 -1.883152

vn -0.574949 0.531226 0.622280
vn -0.034783 0.998912 0.031078
vn -0.717778 0.528945 0.452782
vn -0.802312 0.304289 0.513521
vn -0.574949 0.531226 0.622280
vn -0.648922 0.303468 0.697716
vn -0.668937 0.324220 0.668883
vn -0.574949 0.531226 0.622280
vn -0.591503 0.537797 0.600749
vn -0.034783 0.998912 0.031078
vn -0.783185 0.610114 0.119924
vn -0.880940 0.452164 0.139613
vn -0.034519 0.999125 0.023632
vn -0.020779 0.999397 0.027825
vn -0.717778 0.528945 0.452782
vn -0.692429 0.531165 0.488268
vn -0.802312 0.304289 0.513521
vn -0.765803 0.324859 0.554988
vn -0.320033 0.397721 0.859882
vn -0.280570 0.577533 0.766640
vn 0.032858 0.999391 0.011786
vn 0.010240 0.999582 0.027029
vn 0.012873 0.999510 -0.028547
vn 0.010642 0.999225 -0.037903
vn 0.009369 0.999326 -0.035493
vn -0.034519 0.999125 0.023632
vn -0.013843 0.999795 -0.014759
vn -0.754509 0.650006 -0.090602
vn -0.783185 0.610114 0.119924
vn -0.859327 0.497610 -0.118070
vn -0.880940 0.452164 0.139613
vn 0.191347 0.485805 -0.852866
vn 0.151172 0.481421 -0.863355
vn 0.220304 0.258260 -0.940621
vn 0.170989 0.237386 -0.956248
vn 0.539039 0.534241 -0.651171
vn 0.595252 0.333594 -0.731020
vn 0.748019 0.371856 -0.549718
vn 0.659867 0.560608 -0.500294
vn 0.027642 0.999598 -0.006375
vn 0.795780 0.599774 0.083699
vn 0.659867 0.560608 -0.500294
vn 0.903089 0.421340 0.083079
vn 0.879090 0.420984 0.223548
vn 0.775842 0.599622 0.196273
vn 0.027642 0.999598 -0.006375
vn 0.659867 0.560608 -0.500294
vn 0.012873 0.999510 -0.028547
vn 0.716041 0.614633 0.330926
vn 0.775842 0.599622 0.196273
vn 0.813962 0.445044 0.373365
vn 0.718344 0.476940 0.506469
vn 0.635171 0.638190 0.435053
vn 0.032858 0.999391 0.011786
vn 0.775842 0.599622 0.196273
vn 0.010240 0.999582 0.027029
vn -0.120566 0.605736 0.786478
vn -0.124611 0.434036 0.892236
vn -0.320033 0.397721 0.859882
vn -0.280570 0.577533 0.766640
vn -0.020779 0.999397 0.027825
vn 0.098483 0.530829 -0.841737
vn 0.302252 0.492635 -0.816061
vn 0.111594 0.332083 -0.936626
vn 0.302252 0.492635 -0.816061
vn 0.332218 0.263480 -0.905654
vn -0.013843 0.999795 -0.014759
vn 0.098483 0.530829 -0.841737
vn -0.075724 0.593536 -0.801237
vn -0.013843 0.999795 -0.014759
vn -0.754509 0.650006 -0.090602
vn -0.859327 0.497610 -0.118070
vn -0.103838 0.410602 -0.905883
vn 0.111594 0.332083 -0.936626
vn 0.098483 0.530829 -0.841737
vn 0.341897 0.245814 -0.907018
vn 0.302252 0.492635 -0.816061
vn 0.309281 0.488388 -0.815979
vn 0.009369 0.999326 -0.035493
vn 0.010642 0.999225 -0.037903
vn 0.151172 0.481421 -0.863355
vn 0.170989 0.237386 -0.956248

vt 0.864167 0.943946
vt 0.866400 0.938439
vt 0.864173 0.943933
vt 0.856559 0.962712
vt 0.864167 0.943946
vt 0.856559 0.962712
vt 0.856559 0.962712
vt 0.864167 0.943946
vt 0.864161 0.943961
vt 0.866400 0.938439
vt 0.864270 0.943694
vt 0.856559 0.962712
vt 0.866400 0.938439
vt 0.866400 0.938439
vt 0.864173 0.943933
vt 0.864154 0.943978
vt 0.856559 0.962712
vt 0.856559 0.962712
vt 0.856559 0.962712
vt 0.864224 0.943808
vt 0.866400 0.938439
vt 0.866400 0.938439
vt 0.866400 0.938439
vt 0.866400 0.938439
vt 0.866400 0.938439
vt 0.866400 0.938439
vt 0.866400 0.938439
vt 0.864232 0.943786
vt 0.864270 0.943694
vt 0.856559 0.962712
vt 0.856559 0.962712
vt 0.864141 0.944011
vt 0.864141 0.944011
vt 0.856559 0.962712
vt 0.856559 0.962712
vt 0.864187 0.943899
vt 0.856559 0.962712
vt 0.856559 0.962712
vt 0.864178 0.943919
vt 0.866400 0.938439
vt 0.864212 0.943837
vt 0.864178 0.943919
vt 0.856559 0.962712
vt 0.856559 0.962712
vt 0.864236 0.943778
vt 0.866400 0.938439
vt 0.864178 0.943919
vt 0.866400 0.938439
vt 0.864246 0.943753
vt 0.864236 0.943778
vt 0.856559 0.962712
vt 0.856559 0.962712
vt 0.864246 0.943753
vt 0.866400 0.938439
vt 0.864236 0.943778
vt 0.866400 0.938439
vt 0.864201 0.943863
vt 0.856559 0.962712
vt 0.856559 0.962712
vt 0.864224 0.943808
vt 0.866400 0.938439
vt 0.864190 0.943891
vt 0.864150 0.943988
vt 0.856559 0.962712
vt 0.864150 0.943988
vt 0.856559 0.962712
vt 0.866400 0.938439
vt 0.864190 0.943891
vt 0.864171 0.943936
vt 0.866400 0.938439
vt 0.864232 0.943786
vt 0.856559 0.962712
vt 0.856559 0.962712
vt 0.856559 0.962712
vt 0.864190 0.943891
vt 0.856559 0.962712
vt 0.864150 0.943988
vt 0.864141 0.944012
vt 0.866400 0.938439
vt 0.866400 0.938439
vt 0.864141 0.944011
vt 0.856559 0.962712

f 1/1/1 3/3/3 2/2/2
f 4/4/4 3/3/3 5/5/5
f 4/4/4 5/5/5 6/6/6
f 7/7/7 6/6/6 8/8/8
f 7/7/7 8/8/8 9/9/9
f 10/10/10 9/9/9 8/8/8
f 7/7/7 9/9/9 11/11/11
f 7/7/7 11/11/11 12/12/12
f 11/11/11 9/9/9 13/13/13
f 10/10/10 13/13/13 9/9/9
f 14/14/14 10/10/10 15/15/15
f 14/14/14 15/15/15 16/16/16
f 17/17/17 16/16/16 15/15/15
f 17/17/17 18/18/18 16/16/16
f 19/19/19 16/16/16 18/18/18
f 19/19/19 20/20/20 16/16/16
f 16/16/16 20/20/20 14/14/14
f 10/10/10 14/14/14 21/21/21
f 14/14/14 22/22/22 21/21/21
f 21/21/21 23/23/23 10/10/10
f 23/23/23 24/24/24 10/10/10
f 24/24/24 25/25/25 10/10/10
f 25/25/25 26/26/26 10/10/10
f 25/25/25 27/27/27 26/26/26
f 26/26/26 27/27/27 28/28/28
f 26/26/26 28/28/28 29/29/29
f 30/30/30 29/29/29 28/28/28
f 30/30/30 31/31/31 29/29/29
f 24/24/24 23/23/23 32/32/32
f 24/24/24 32/32/32 33/33/33
f 34/34/34 33/33/33 32/32/32
f 34/34/34 35/35/35 33/33/33
f 36/36/36 34/34/34 32/32/32
f 36/36/36 32/32/32 23/23/23
f 36/36/36 37/37/37 34/34/34
f 38/38/38 37/37/37 36/36/36
f 23/23/23 39/39/39 36/36/36
f 38/38/38 36/36/36 39/39/39
f 23/23/23 40/40/40 39/39/39
f 38/38/38 42/42/42 41/41/41
f 38/38/38 41/41/41 43/43/43
f 44/44/44 43/43/43 41/41/41
f 44/44/44 41/41/41 45/45/45
f 46/46/46 45/45/45 41/41/41
f 41/41/41 47/47/47 46/46/46
f 46/46/46 21/21/21 45/45/45
f 46/46/46 48/48/48 21/21/21
f 44/44/44 50/50/50 49/49/49
f 44/44/44 49/49/49 51/51/51
f 52/52/52 51/51/51 49/49/49
f 52/52/52 49/49/49 53/53/53
f 54/54/54 53/53/53 49/49/49
f 49/49/49 55/55/55 54/54/54
f 54/54/54 56/56/56 53/53/53
f 57/57/57 52/52/52 53/53/53
f 57/57/57 53/53/53 56/56/56
f 57/57/57 58/58/58 52/52/52
f 59/59/59 58/58/58 57/57/57
f 59/59/59 57/57/57 60/60/60
f 56/56/56 60/60/60 57/57/57
f 56/56/56 61/61/61 60/60/60
f 62/62/62 25/25/25 63/63/63
f 64/64/64 62/62/62 65/65/65
f 64/64/64 65/65/65 66/66/66
f 67/67/67 25/25/25 68/68/68
f 67/67/67 68/68/68 69/69/69
f 69/69/69 71/71/71 70/70/70
f 69/69/69 72/72/72 71/71/71
f 69/69/69 73/73/73 72/72/72
f 74/74/74 73/73/73 69/69/69
f 74/74/74 69/69/69 75/75/75
f 76/76/76 66/66/66 77/77/77
f 76/76/76 77/77/77 78/78/78
f 79/79/79 78/78/78 77/77/77
f 79/79/79 80/80/80 78/78/78
f 81/81/81 78/78/78 80/80/80
f 76/76/76 78/78/78 81/81/81
f 76/76/76 81/81/81 82/82/82
